G04 #@! TF.GenerationSoftware,KiCad,Pcbnew,5.1.5-1.fc30*
G04 #@! TF.CreationDate,2020-10-27T14:38:21-05:00*
G04 #@! TF.ProjectId,charger,63686172-6765-4722-9e6b-696361645f70,rev?*
G04 #@! TF.SameCoordinates,Original*
G04 #@! TF.FileFunction,Legend,Top*
G04 #@! TF.FilePolarity,Positive*
%FSLAX46Y46*%
G04 Gerber Fmt 4.6, Leading zero omitted, Abs format (unit mm)*
G04 Created by KiCad (PCBNEW 5.1.5-1.fc30) date 2020-10-27 14:38:21*
%MOMM*%
%LPD*%
G04 APERTURE LIST*
%ADD10C,0.120000*%
%ADD11C,0.300000*%
%ADD12C,0.150000*%
G04 APERTURE END LIST*
D10*
X234462064Y-40200000D02*
X230357936Y-40200000D01*
X234462064Y-43620000D02*
X230357936Y-43620000D01*
D11*
X200660000Y-101600000D02*
X105410000Y-101600000D01*
X105410000Y-160020000D02*
X105410000Y-101600000D01*
X200660000Y-160020000D02*
X105410000Y-160020000D01*
X200660000Y-160020000D02*
X200660000Y-101600000D01*
D10*
X51170000Y-100670000D02*
X53620000Y-100670000D01*
X52970000Y-97450000D02*
X51170000Y-97450000D01*
X53340000Y-66970000D02*
X50415000Y-66970000D01*
X53340000Y-66970000D02*
X54840000Y-66970000D01*
X53340000Y-70190000D02*
X51840000Y-70190000D01*
X53340000Y-70190000D02*
X54840000Y-70190000D01*
D12*
X211035000Y-102615000D02*
X209685000Y-102615000D01*
X211035000Y-105765000D02*
X215685000Y-105765000D01*
X211035000Y-102515000D02*
X215685000Y-102515000D01*
X211035000Y-105765000D02*
X211035000Y-105565000D01*
X215685000Y-105765000D02*
X215685000Y-105565000D01*
X215685000Y-102515000D02*
X215685000Y-102715000D01*
X211035000Y-102515000D02*
X211035000Y-102615000D01*
D10*
X171430000Y-40640000D02*
X171430000Y-44090000D01*
X171430000Y-40640000D02*
X171430000Y-38690000D01*
X176550000Y-40640000D02*
X176550000Y-42590000D01*
X176550000Y-40640000D02*
X176550000Y-38690000D01*
X121900000Y-41910000D02*
X121900000Y-45360000D01*
X121900000Y-41910000D02*
X121900000Y-39960000D01*
X127020000Y-41910000D02*
X127020000Y-43860000D01*
X127020000Y-41910000D02*
X127020000Y-39960000D01*
D12*
X45075000Y-41980000D02*
X43725000Y-41980000D01*
X45075000Y-45130000D02*
X49725000Y-45130000D01*
X45075000Y-41880000D02*
X49725000Y-41880000D01*
X45075000Y-45130000D02*
X45075000Y-44930000D01*
X49725000Y-45130000D02*
X49725000Y-44930000D01*
X49725000Y-41880000D02*
X49725000Y-42080000D01*
X45075000Y-41880000D02*
X45075000Y-41980000D01*
D10*
X44080000Y-116500000D02*
X41630000Y-116500000D01*
X42280000Y-119720000D02*
X44080000Y-119720000D01*
X58760000Y-93610000D02*
X58760000Y-91160000D01*
X55540000Y-91810000D02*
X55540000Y-93610000D01*
X62000000Y-99240000D02*
X65000000Y-99240000D01*
X62000000Y-96390000D02*
X62000000Y-99240000D01*
X65000000Y-96390000D02*
X65000000Y-99240000D01*
X62000000Y-96390000D02*
X65000000Y-96390000D01*
X51840000Y-108130000D02*
X54840000Y-108130000D01*
X51840000Y-105280000D02*
X51840000Y-108130000D01*
X54840000Y-105280000D02*
X54840000Y-108130000D01*
X51840000Y-105280000D02*
X54840000Y-105280000D01*
X64540000Y-80190000D02*
X67540000Y-80190000D01*
X64540000Y-77340000D02*
X64540000Y-80190000D01*
X67540000Y-77340000D02*
X67540000Y-80190000D01*
X64540000Y-77340000D02*
X67540000Y-77340000D01*
X181380000Y-34470000D02*
X184380000Y-34470000D01*
X181380000Y-31620000D02*
X181380000Y-34470000D01*
X184380000Y-31620000D02*
X184380000Y-34470000D01*
X181380000Y-31620000D02*
X184380000Y-31620000D01*
X133120000Y-35740000D02*
X136120000Y-35740000D01*
X133120000Y-32890000D02*
X133120000Y-35740000D01*
X136120000Y-32890000D02*
X136120000Y-35740000D01*
X133120000Y-32890000D02*
X136120000Y-32890000D01*
X163600000Y-34470000D02*
X166600000Y-34470000D01*
X163600000Y-31620000D02*
X163600000Y-34470000D01*
X166600000Y-31620000D02*
X166600000Y-34470000D01*
X163600000Y-31620000D02*
X166600000Y-31620000D01*
X115340000Y-35740000D02*
X118340000Y-35740000D01*
X115340000Y-32890000D02*
X115340000Y-35740000D01*
X118340000Y-32890000D02*
X118340000Y-35740000D01*
X115340000Y-32890000D02*
X118340000Y-32890000D01*
X57752064Y-75290000D02*
X56547936Y-75290000D01*
X57752064Y-77110000D02*
X56547936Y-77110000D01*
X56547936Y-73300000D02*
X57752064Y-73300000D01*
X56547936Y-71480000D02*
X57752064Y-71480000D01*
X52980000Y-75532064D02*
X52980000Y-74327936D01*
X51160000Y-75532064D02*
X51160000Y-74327936D01*
X58060000Y-99662064D02*
X58060000Y-98457936D01*
X56240000Y-99662064D02*
X56240000Y-98457936D01*
X56547936Y-88540000D02*
X57752064Y-88540000D01*
X56547936Y-86720000D02*
X57752064Y-86720000D01*
X47592064Y-70210000D02*
X46387936Y-70210000D01*
X47592064Y-72030000D02*
X46387936Y-72030000D01*
X61627936Y-61870000D02*
X62832064Y-61870000D01*
X61627936Y-60050000D02*
X62832064Y-60050000D01*
X220377936Y-102510000D02*
X221582064Y-102510000D01*
X220377936Y-100690000D02*
X221582064Y-100690000D01*
X197517936Y-37740000D02*
X198722064Y-37740000D01*
X197517936Y-35920000D02*
X198722064Y-35920000D01*
X162200000Y-81882064D02*
X162200000Y-80677936D01*
X160380000Y-81882064D02*
X160380000Y-80677936D01*
X116480000Y-81882064D02*
X116480000Y-80677936D01*
X114660000Y-81882064D02*
X114660000Y-80677936D01*
X221582064Y-93070000D02*
X220377936Y-93070000D01*
X221582064Y-94890000D02*
X220377936Y-94890000D01*
X220377936Y-97430000D02*
X221582064Y-97430000D01*
X220377936Y-95610000D02*
X221582064Y-95610000D01*
X175620000Y-33687936D02*
X175620000Y-34892064D01*
X177440000Y-33687936D02*
X177440000Y-34892064D01*
X159110000Y-31147936D02*
X159110000Y-32352064D01*
X160930000Y-31147936D02*
X160930000Y-32352064D01*
X171810000Y-32417936D02*
X171810000Y-33622064D01*
X173630000Y-32417936D02*
X173630000Y-33622064D01*
X126090000Y-33687936D02*
X126090000Y-34892064D01*
X127910000Y-33687936D02*
X127910000Y-34892064D01*
X110850000Y-31147936D02*
X110850000Y-32352064D01*
X112670000Y-31147936D02*
X112670000Y-32352064D01*
X122280000Y-33687936D02*
X122280000Y-34892064D01*
X124100000Y-33687936D02*
X124100000Y-34892064D01*
X54007936Y-41550000D02*
X55212064Y-41550000D01*
X54007936Y-39730000D02*
X55212064Y-39730000D01*
X172052064Y-49890000D02*
X170847936Y-49890000D01*
X172052064Y-51710000D02*
X170847936Y-51710000D01*
X121252064Y-51160000D02*
X120047936Y-51160000D01*
X121252064Y-52980000D02*
X120047936Y-52980000D01*
X177197936Y-51710000D02*
X178402064Y-51710000D01*
X177197936Y-49890000D02*
X178402064Y-49890000D01*
X127667936Y-52980000D02*
X128872064Y-52980000D01*
X127667936Y-51160000D02*
X128872064Y-51160000D01*
X57510000Y-34957936D02*
X57510000Y-36162064D01*
X59330000Y-34957936D02*
X59330000Y-36162064D01*
X56790000Y-36162064D02*
X56790000Y-34957936D01*
X54970000Y-36162064D02*
X54970000Y-34957936D01*
X42577936Y-115210000D02*
X43782064Y-115210000D01*
X42577936Y-113390000D02*
X43782064Y-113390000D01*
X70452064Y-49890000D02*
X69247936Y-49890000D01*
X70452064Y-51710000D02*
X69247936Y-51710000D01*
X224430000Y-153002064D02*
X224430000Y-151797936D01*
X222610000Y-153002064D02*
X222610000Y-151797936D01*
X43782064Y-121010000D02*
X42577936Y-121010000D01*
X43782064Y-122830000D02*
X42577936Y-122830000D01*
X206260000Y-29365000D02*
X206260000Y-29065000D01*
X206260000Y-34135000D02*
X206260000Y-34435000D01*
X200140000Y-34085000D02*
X200140000Y-34435000D01*
X206260000Y-29065000D02*
X200140000Y-29065000D01*
X206260000Y-34435000D02*
X200140000Y-34435000D01*
X176685000Y-22340000D02*
X176385000Y-22340000D01*
X181455000Y-22340000D02*
X181755000Y-22340000D01*
X181405000Y-28460000D02*
X181755000Y-28460000D01*
X176385000Y-22340000D02*
X176385000Y-28460000D01*
X181755000Y-22340000D02*
X181755000Y-28460000D01*
X165255000Y-22340000D02*
X164955000Y-22340000D01*
X170025000Y-22340000D02*
X170325000Y-22340000D01*
X169975000Y-28460000D02*
X170325000Y-28460000D01*
X164955000Y-22340000D02*
X164955000Y-28460000D01*
X170325000Y-22340000D02*
X170325000Y-28460000D01*
X128425000Y-22340000D02*
X128125000Y-22340000D01*
X133195000Y-22340000D02*
X133495000Y-22340000D01*
X133145000Y-28460000D02*
X133495000Y-28460000D01*
X128125000Y-22340000D02*
X128125000Y-28460000D01*
X133495000Y-22340000D02*
X133495000Y-28460000D01*
X118265000Y-22340000D02*
X117965000Y-22340000D01*
X123035000Y-22340000D02*
X123335000Y-22340000D01*
X122985000Y-28460000D02*
X123335000Y-28460000D01*
X117965000Y-22340000D02*
X117965000Y-28460000D01*
X123335000Y-22340000D02*
X123335000Y-28460000D01*
X34445000Y-107430000D02*
X34145000Y-107430000D01*
X39215000Y-107430000D02*
X39515000Y-107430000D01*
X39165000Y-113550000D02*
X39515000Y-113550000D01*
X34145000Y-107430000D02*
X34145000Y-113550000D01*
X39515000Y-107430000D02*
X39515000Y-113550000D01*
X48930000Y-74880000D02*
G75*
G02X49580000Y-75530000I0J-650000D01*
G01*
X49580000Y-87030000D02*
G75*
G02X48930000Y-87680000I-650000J0D01*
G01*
X37430000Y-87680000D02*
G75*
G02X36780000Y-87030000I0J650000D01*
G01*
X36780000Y-75530000D02*
G75*
G02X37430000Y-74880000I650000J0D01*
G01*
X49580000Y-84280000D02*
X49580000Y-87030000D01*
X36780000Y-84280000D02*
X36780000Y-87030000D01*
X49580000Y-75530000D02*
X49580000Y-78280000D01*
X48930000Y-87680000D02*
X37430000Y-87680000D01*
X36780000Y-75530000D02*
X36780000Y-78280000D01*
X37430000Y-74880000D02*
X48930000Y-74880000D01*
X172720000Y-63500000D02*
X172720000Y-66040000D01*
X172720000Y-63500000D02*
X165100000Y-63500000D01*
X187960000Y-63500000D02*
X187960000Y-66040000D01*
X165100000Y-83820000D02*
X165100000Y-63500000D01*
X165100000Y-83820000D02*
X172720000Y-83820000D01*
X172720000Y-80010000D02*
X172720000Y-83820000D01*
X195580000Y-63500000D02*
X187960000Y-63500000D01*
X195580000Y-83820000D02*
X195580000Y-63500000D01*
X187960000Y-83820000D02*
X195580000Y-83820000D01*
X187960000Y-80010000D02*
X187960000Y-83820000D01*
X186335000Y-73275000D02*
G75*
G03X186335000Y-73275000I-6000000J0D01*
G01*
X190507288Y-73275000D02*
G75*
G03X190507288Y-73275000I-10172288J0D01*
G01*
X127000000Y-63500000D02*
X127000000Y-66040000D01*
X127000000Y-63500000D02*
X119380000Y-63500000D01*
X142240000Y-63500000D02*
X142240000Y-66040000D01*
X119380000Y-83820000D02*
X119380000Y-63500000D01*
X119380000Y-83820000D02*
X127000000Y-83820000D01*
X127000000Y-80010000D02*
X127000000Y-83820000D01*
X149860000Y-63500000D02*
X142240000Y-63500000D01*
X149860000Y-83820000D02*
X149860000Y-63500000D01*
X142240000Y-83820000D02*
X149860000Y-83820000D01*
X142240000Y-80010000D02*
X142240000Y-83820000D01*
X140615000Y-73275000D02*
G75*
G03X140615000Y-73275000I-6000000J0D01*
G01*
X144787288Y-73275000D02*
G75*
G03X144787288Y-73275000I-10172288J0D01*
G01*
X240090000Y-34350000D02*
X238760000Y-34350000D01*
X240090000Y-33020000D02*
X240090000Y-34350000D01*
X240090000Y-31750000D02*
X237430000Y-31750000D01*
X237430000Y-31750000D02*
X237430000Y-29150000D01*
X240090000Y-31750000D02*
X240090000Y-29150000D01*
X240090000Y-29150000D02*
X237430000Y-29150000D01*
X237430000Y-142180000D02*
X238760000Y-142180000D01*
X237430000Y-143510000D02*
X237430000Y-142180000D01*
X237430000Y-144780000D02*
X240090000Y-144780000D01*
X240090000Y-144780000D02*
X240090000Y-149920000D01*
X237430000Y-144780000D02*
X237430000Y-149920000D01*
X237430000Y-149920000D02*
X240090000Y-149920000D01*
X240090000Y-135950000D02*
X238760000Y-135950000D01*
X240090000Y-134620000D02*
X240090000Y-135950000D01*
X240090000Y-133350000D02*
X237430000Y-133350000D01*
X237430000Y-133350000D02*
X237430000Y-120590000D01*
X240090000Y-133350000D02*
X240090000Y-120590000D01*
X240090000Y-120590000D02*
X237430000Y-120590000D01*
X212030000Y-158810000D02*
X212030000Y-157480000D01*
X213360000Y-158810000D02*
X212030000Y-158810000D01*
X214630000Y-158810000D02*
X214630000Y-156150000D01*
X214630000Y-156150000D02*
X227390000Y-156150000D01*
X214630000Y-158810000D02*
X227390000Y-158810000D01*
X227390000Y-158810000D02*
X227390000Y-156150000D01*
X35500000Y-49470000D02*
X36830000Y-49470000D01*
X35500000Y-50800000D02*
X35500000Y-49470000D01*
X35500000Y-52070000D02*
X38160000Y-52070000D01*
X38160000Y-52070000D02*
X38160000Y-64830000D01*
X35500000Y-52070000D02*
X35500000Y-64830000D01*
X35500000Y-64830000D02*
X38160000Y-64830000D01*
X216158578Y-107240000D02*
X215641422Y-107240000D01*
X216158578Y-108660000D02*
X215641422Y-108660000D01*
X49788578Y-46280000D02*
X49271422Y-46280000D01*
X49788578Y-47700000D02*
X49271422Y-47700000D01*
X49790000Y-60080000D02*
X55490000Y-60080000D01*
X49790000Y-64380000D02*
X55490000Y-64380000D01*
X49790000Y-60080000D02*
X49790000Y-64380000D01*
X195200000Y-33880000D02*
X195200000Y-28480000D01*
X198500000Y-33880000D02*
X198500000Y-28480000D01*
X195200000Y-33880000D02*
X198500000Y-33880000D01*
X181990000Y-37240000D02*
X181990000Y-42640000D01*
X178690000Y-37240000D02*
X178690000Y-42640000D01*
X181990000Y-37240000D02*
X178690000Y-37240000D01*
X132460000Y-38510000D02*
X132460000Y-43910000D01*
X129160000Y-38510000D02*
X129160000Y-43910000D01*
X132460000Y-38510000D02*
X129160000Y-38510000D01*
X168020000Y-37240000D02*
X168020000Y-42640000D01*
X164720000Y-37240000D02*
X164720000Y-42640000D01*
X168020000Y-37240000D02*
X164720000Y-37240000D01*
X118490000Y-38510000D02*
X118490000Y-43910000D01*
X115190000Y-38510000D02*
X115190000Y-43910000D01*
X118490000Y-38510000D02*
X115190000Y-38510000D01*
X42296000Y-107345241D02*
X42926000Y-107345241D01*
X42611000Y-107660241D02*
X42611000Y-107030241D01*
X44048000Y-100919000D02*
X44852000Y-100919000D01*
X43817000Y-100959000D02*
X45083000Y-100959000D01*
X43648000Y-100999000D02*
X45252000Y-100999000D01*
X43510000Y-101039000D02*
X45390000Y-101039000D01*
X43391000Y-101079000D02*
X45509000Y-101079000D01*
X43285000Y-101119000D02*
X45615000Y-101119000D01*
X43188000Y-101159000D02*
X45712000Y-101159000D01*
X43100000Y-101199000D02*
X45800000Y-101199000D01*
X43018000Y-101239000D02*
X45882000Y-101239000D01*
X42941000Y-101279000D02*
X45959000Y-101279000D01*
X42869000Y-101319000D02*
X46031000Y-101319000D01*
X42800000Y-101359000D02*
X46100000Y-101359000D01*
X42736000Y-101399000D02*
X46164000Y-101399000D01*
X42674000Y-101439000D02*
X46226000Y-101439000D01*
X42616000Y-101479000D02*
X46284000Y-101479000D01*
X42560000Y-101519000D02*
X46340000Y-101519000D01*
X42506000Y-101559000D02*
X46394000Y-101559000D01*
X42455000Y-101599000D02*
X46445000Y-101599000D01*
X42406000Y-101639000D02*
X46494000Y-101639000D01*
X42358000Y-101679000D02*
X46542000Y-101679000D01*
X42313000Y-101719000D02*
X46587000Y-101719000D01*
X42268000Y-101759000D02*
X46632000Y-101759000D01*
X42226000Y-101799000D02*
X46674000Y-101799000D01*
X42185000Y-101839000D02*
X46715000Y-101839000D01*
X45490000Y-101879000D02*
X46755000Y-101879000D01*
X42145000Y-101879000D02*
X43410000Y-101879000D01*
X45490000Y-101919000D02*
X46793000Y-101919000D01*
X42107000Y-101919000D02*
X43410000Y-101919000D01*
X45490000Y-101959000D02*
X46830000Y-101959000D01*
X42070000Y-101959000D02*
X43410000Y-101959000D01*
X45490000Y-101999000D02*
X46866000Y-101999000D01*
X42034000Y-101999000D02*
X43410000Y-101999000D01*
X45490000Y-102039000D02*
X46900000Y-102039000D01*
X42000000Y-102039000D02*
X43410000Y-102039000D01*
X45490000Y-102079000D02*
X46934000Y-102079000D01*
X41966000Y-102079000D02*
X43410000Y-102079000D01*
X45490000Y-102119000D02*
X46966000Y-102119000D01*
X41934000Y-102119000D02*
X43410000Y-102119000D01*
X45490000Y-102159000D02*
X46998000Y-102159000D01*
X41902000Y-102159000D02*
X43410000Y-102159000D01*
X45490000Y-102199000D02*
X47028000Y-102199000D01*
X41872000Y-102199000D02*
X43410000Y-102199000D01*
X45490000Y-102239000D02*
X47057000Y-102239000D01*
X41843000Y-102239000D02*
X43410000Y-102239000D01*
X45490000Y-102279000D02*
X47086000Y-102279000D01*
X41814000Y-102279000D02*
X43410000Y-102279000D01*
X45490000Y-102319000D02*
X47114000Y-102319000D01*
X41786000Y-102319000D02*
X43410000Y-102319000D01*
X45490000Y-102359000D02*
X47140000Y-102359000D01*
X41760000Y-102359000D02*
X43410000Y-102359000D01*
X45490000Y-102399000D02*
X47166000Y-102399000D01*
X41734000Y-102399000D02*
X43410000Y-102399000D01*
X45490000Y-102439000D02*
X47192000Y-102439000D01*
X41708000Y-102439000D02*
X43410000Y-102439000D01*
X45490000Y-102479000D02*
X47216000Y-102479000D01*
X41684000Y-102479000D02*
X43410000Y-102479000D01*
X45490000Y-102519000D02*
X47240000Y-102519000D01*
X41660000Y-102519000D02*
X43410000Y-102519000D01*
X45490000Y-102559000D02*
X47262000Y-102559000D01*
X41638000Y-102559000D02*
X43410000Y-102559000D01*
X45490000Y-102599000D02*
X47284000Y-102599000D01*
X41616000Y-102599000D02*
X43410000Y-102599000D01*
X45490000Y-102639000D02*
X47306000Y-102639000D01*
X41594000Y-102639000D02*
X43410000Y-102639000D01*
X45490000Y-102679000D02*
X47326000Y-102679000D01*
X41574000Y-102679000D02*
X43410000Y-102679000D01*
X45490000Y-102719000D02*
X47346000Y-102719000D01*
X41554000Y-102719000D02*
X43410000Y-102719000D01*
X45490000Y-102759000D02*
X47366000Y-102759000D01*
X41534000Y-102759000D02*
X43410000Y-102759000D01*
X45490000Y-102799000D02*
X47384000Y-102799000D01*
X41516000Y-102799000D02*
X43410000Y-102799000D01*
X45490000Y-102839000D02*
X47402000Y-102839000D01*
X41498000Y-102839000D02*
X43410000Y-102839000D01*
X45490000Y-102879000D02*
X47420000Y-102879000D01*
X41480000Y-102879000D02*
X43410000Y-102879000D01*
X45490000Y-102919000D02*
X47436000Y-102919000D01*
X41464000Y-102919000D02*
X43410000Y-102919000D01*
X45490000Y-102959000D02*
X47452000Y-102959000D01*
X41448000Y-102959000D02*
X43410000Y-102959000D01*
X45490000Y-102999000D02*
X47468000Y-102999000D01*
X41432000Y-102999000D02*
X43410000Y-102999000D01*
X45490000Y-103039000D02*
X47483000Y-103039000D01*
X41417000Y-103039000D02*
X43410000Y-103039000D01*
X45490000Y-103079000D02*
X47497000Y-103079000D01*
X41403000Y-103079000D02*
X43410000Y-103079000D01*
X45490000Y-103119000D02*
X47511000Y-103119000D01*
X41389000Y-103119000D02*
X43410000Y-103119000D01*
X45490000Y-103159000D02*
X47524000Y-103159000D01*
X41376000Y-103159000D02*
X43410000Y-103159000D01*
X45490000Y-103199000D02*
X47536000Y-103199000D01*
X41364000Y-103199000D02*
X43410000Y-103199000D01*
X45490000Y-103239000D02*
X47548000Y-103239000D01*
X41352000Y-103239000D02*
X43410000Y-103239000D01*
X45490000Y-103279000D02*
X47560000Y-103279000D01*
X41340000Y-103279000D02*
X43410000Y-103279000D01*
X45490000Y-103319000D02*
X47571000Y-103319000D01*
X41329000Y-103319000D02*
X43410000Y-103319000D01*
X45490000Y-103359000D02*
X47581000Y-103359000D01*
X41319000Y-103359000D02*
X43410000Y-103359000D01*
X45490000Y-103399000D02*
X47591000Y-103399000D01*
X41309000Y-103399000D02*
X43410000Y-103399000D01*
X45490000Y-103439000D02*
X47600000Y-103439000D01*
X41300000Y-103439000D02*
X43410000Y-103439000D01*
X45490000Y-103480000D02*
X47609000Y-103480000D01*
X41291000Y-103480000D02*
X43410000Y-103480000D01*
X45490000Y-103520000D02*
X47617000Y-103520000D01*
X41283000Y-103520000D02*
X43410000Y-103520000D01*
X45490000Y-103560000D02*
X47625000Y-103560000D01*
X41275000Y-103560000D02*
X43410000Y-103560000D01*
X45490000Y-103600000D02*
X47632000Y-103600000D01*
X41268000Y-103600000D02*
X43410000Y-103600000D01*
X45490000Y-103640000D02*
X47639000Y-103640000D01*
X41261000Y-103640000D02*
X43410000Y-103640000D01*
X45490000Y-103680000D02*
X47645000Y-103680000D01*
X41255000Y-103680000D02*
X43410000Y-103680000D01*
X45490000Y-103720000D02*
X47651000Y-103720000D01*
X41249000Y-103720000D02*
X43410000Y-103720000D01*
X45490000Y-103760000D02*
X47656000Y-103760000D01*
X41244000Y-103760000D02*
X43410000Y-103760000D01*
X45490000Y-103800000D02*
X47661000Y-103800000D01*
X41239000Y-103800000D02*
X43410000Y-103800000D01*
X45490000Y-103840000D02*
X47665000Y-103840000D01*
X41235000Y-103840000D02*
X43410000Y-103840000D01*
X45490000Y-103880000D02*
X47668000Y-103880000D01*
X41232000Y-103880000D02*
X43410000Y-103880000D01*
X45490000Y-103920000D02*
X47672000Y-103920000D01*
X41228000Y-103920000D02*
X43410000Y-103920000D01*
X41226000Y-103960000D02*
X47674000Y-103960000D01*
X41223000Y-104000000D02*
X47677000Y-104000000D01*
X41222000Y-104040000D02*
X47678000Y-104040000D01*
X41220000Y-104080000D02*
X47680000Y-104080000D01*
X41220000Y-104120000D02*
X47680000Y-104120000D01*
X41220000Y-104160000D02*
X47680000Y-104160000D01*
X47720000Y-104160000D02*
G75*
G03X47720000Y-104160000I-3270000J0D01*
G01*
X56547936Y-80920000D02*
X57752064Y-80920000D01*
X56547936Y-79100000D02*
X57752064Y-79100000D01*
X41242064Y-98150000D02*
X40037936Y-98150000D01*
X41242064Y-99970000D02*
X40037936Y-99970000D01*
X46080000Y-65437936D02*
X46080000Y-66642064D01*
X47900000Y-65437936D02*
X47900000Y-66642064D01*
X58780000Y-66707936D02*
X58780000Y-67912064D01*
X60600000Y-66707936D02*
X60600000Y-67912064D01*
X42725000Y-96804775D02*
X43225000Y-96804775D01*
X42975000Y-97054775D02*
X42975000Y-96554775D01*
X44166000Y-91649000D02*
X44734000Y-91649000D01*
X43932000Y-91689000D02*
X44968000Y-91689000D01*
X43773000Y-91729000D02*
X45127000Y-91729000D01*
X43645000Y-91769000D02*
X45255000Y-91769000D01*
X43535000Y-91809000D02*
X45365000Y-91809000D01*
X43439000Y-91849000D02*
X45461000Y-91849000D01*
X43352000Y-91889000D02*
X45548000Y-91889000D01*
X43272000Y-91929000D02*
X45628000Y-91929000D01*
X43199000Y-91969000D02*
X45701000Y-91969000D01*
X43131000Y-92009000D02*
X45769000Y-92009000D01*
X43067000Y-92049000D02*
X45833000Y-92049000D01*
X43007000Y-92089000D02*
X45893000Y-92089000D01*
X42950000Y-92129000D02*
X45950000Y-92129000D01*
X42896000Y-92169000D02*
X46004000Y-92169000D01*
X42845000Y-92209000D02*
X46055000Y-92209000D01*
X45490000Y-92249000D02*
X46103000Y-92249000D01*
X42797000Y-92249000D02*
X43410000Y-92249000D01*
X45490000Y-92289000D02*
X46149000Y-92289000D01*
X42751000Y-92289000D02*
X43410000Y-92289000D01*
X45490000Y-92329000D02*
X46193000Y-92329000D01*
X42707000Y-92329000D02*
X43410000Y-92329000D01*
X45490000Y-92369000D02*
X46235000Y-92369000D01*
X42665000Y-92369000D02*
X43410000Y-92369000D01*
X45490000Y-92409000D02*
X46276000Y-92409000D01*
X42624000Y-92409000D02*
X43410000Y-92409000D01*
X45490000Y-92449000D02*
X46314000Y-92449000D01*
X42586000Y-92449000D02*
X43410000Y-92449000D01*
X45490000Y-92489000D02*
X46351000Y-92489000D01*
X42549000Y-92489000D02*
X43410000Y-92489000D01*
X45490000Y-92529000D02*
X46387000Y-92529000D01*
X42513000Y-92529000D02*
X43410000Y-92529000D01*
X45490000Y-92569000D02*
X46421000Y-92569000D01*
X42479000Y-92569000D02*
X43410000Y-92569000D01*
X45490000Y-92609000D02*
X46454000Y-92609000D01*
X42446000Y-92609000D02*
X43410000Y-92609000D01*
X45490000Y-92649000D02*
X46485000Y-92649000D01*
X42415000Y-92649000D02*
X43410000Y-92649000D01*
X45490000Y-92689000D02*
X46515000Y-92689000D01*
X42385000Y-92689000D02*
X43410000Y-92689000D01*
X45490000Y-92729000D02*
X46545000Y-92729000D01*
X42355000Y-92729000D02*
X43410000Y-92729000D01*
X45490000Y-92769000D02*
X46572000Y-92769000D01*
X42328000Y-92769000D02*
X43410000Y-92769000D01*
X45490000Y-92809000D02*
X46599000Y-92809000D01*
X42301000Y-92809000D02*
X43410000Y-92809000D01*
X45490000Y-92849000D02*
X46625000Y-92849000D01*
X42275000Y-92849000D02*
X43410000Y-92849000D01*
X45490000Y-92889000D02*
X46650000Y-92889000D01*
X42250000Y-92889000D02*
X43410000Y-92889000D01*
X45490000Y-92929000D02*
X46674000Y-92929000D01*
X42226000Y-92929000D02*
X43410000Y-92929000D01*
X45490000Y-92969000D02*
X46697000Y-92969000D01*
X42203000Y-92969000D02*
X43410000Y-92969000D01*
X45490000Y-93009000D02*
X46718000Y-93009000D01*
X42182000Y-93009000D02*
X43410000Y-93009000D01*
X45490000Y-93049000D02*
X46740000Y-93049000D01*
X42160000Y-93049000D02*
X43410000Y-93049000D01*
X45490000Y-93089000D02*
X46760000Y-93089000D01*
X42140000Y-93089000D02*
X43410000Y-93089000D01*
X45490000Y-93129000D02*
X46779000Y-93129000D01*
X42121000Y-93129000D02*
X43410000Y-93129000D01*
X45490000Y-93169000D02*
X46798000Y-93169000D01*
X42102000Y-93169000D02*
X43410000Y-93169000D01*
X45490000Y-93209000D02*
X46815000Y-93209000D01*
X42085000Y-93209000D02*
X43410000Y-93209000D01*
X45490000Y-93249000D02*
X46832000Y-93249000D01*
X42068000Y-93249000D02*
X43410000Y-93249000D01*
X45490000Y-93289000D02*
X46848000Y-93289000D01*
X42052000Y-93289000D02*
X43410000Y-93289000D01*
X45490000Y-93329000D02*
X46864000Y-93329000D01*
X42036000Y-93329000D02*
X43410000Y-93329000D01*
X45490000Y-93369000D02*
X46878000Y-93369000D01*
X42022000Y-93369000D02*
X43410000Y-93369000D01*
X45490000Y-93409000D02*
X46892000Y-93409000D01*
X42008000Y-93409000D02*
X43410000Y-93409000D01*
X45490000Y-93449000D02*
X46905000Y-93449000D01*
X41995000Y-93449000D02*
X43410000Y-93449000D01*
X45490000Y-93489000D02*
X46918000Y-93489000D01*
X41982000Y-93489000D02*
X43410000Y-93489000D01*
X45490000Y-93529000D02*
X46930000Y-93529000D01*
X41970000Y-93529000D02*
X43410000Y-93529000D01*
X45490000Y-93570000D02*
X46941000Y-93570000D01*
X41959000Y-93570000D02*
X43410000Y-93570000D01*
X45490000Y-93610000D02*
X46951000Y-93610000D01*
X41949000Y-93610000D02*
X43410000Y-93610000D01*
X45490000Y-93650000D02*
X46961000Y-93650000D01*
X41939000Y-93650000D02*
X43410000Y-93650000D01*
X45490000Y-93690000D02*
X46970000Y-93690000D01*
X41930000Y-93690000D02*
X43410000Y-93690000D01*
X45490000Y-93730000D02*
X46978000Y-93730000D01*
X41922000Y-93730000D02*
X43410000Y-93730000D01*
X45490000Y-93770000D02*
X46986000Y-93770000D01*
X41914000Y-93770000D02*
X43410000Y-93770000D01*
X45490000Y-93810000D02*
X46993000Y-93810000D01*
X41907000Y-93810000D02*
X43410000Y-93810000D01*
X45490000Y-93850000D02*
X47000000Y-93850000D01*
X41900000Y-93850000D02*
X43410000Y-93850000D01*
X45490000Y-93890000D02*
X47006000Y-93890000D01*
X41894000Y-93890000D02*
X43410000Y-93890000D01*
X45490000Y-93930000D02*
X47011000Y-93930000D01*
X41889000Y-93930000D02*
X43410000Y-93930000D01*
X45490000Y-93970000D02*
X47015000Y-93970000D01*
X41885000Y-93970000D02*
X43410000Y-93970000D01*
X45490000Y-94010000D02*
X47019000Y-94010000D01*
X41881000Y-94010000D02*
X43410000Y-94010000D01*
X45490000Y-94050000D02*
X47023000Y-94050000D01*
X41877000Y-94050000D02*
X43410000Y-94050000D01*
X45490000Y-94090000D02*
X47026000Y-94090000D01*
X41874000Y-94090000D02*
X43410000Y-94090000D01*
X45490000Y-94130000D02*
X47028000Y-94130000D01*
X41872000Y-94130000D02*
X43410000Y-94130000D01*
X45490000Y-94170000D02*
X47029000Y-94170000D01*
X41871000Y-94170000D02*
X43410000Y-94170000D01*
X41870000Y-94210000D02*
X43410000Y-94210000D01*
X45490000Y-94210000D02*
X47030000Y-94210000D01*
X41870000Y-94250000D02*
X43410000Y-94250000D01*
X45490000Y-94250000D02*
X47030000Y-94250000D01*
X47070000Y-94250000D02*
G75*
G03X47070000Y-94250000I-2620000J0D01*
G01*
X64410000Y-67912064D02*
X64410000Y-66707936D01*
X62590000Y-67912064D02*
X62590000Y-66707936D01*
X221582064Y-103230000D02*
X220377936Y-103230000D01*
X221582064Y-105050000D02*
X220377936Y-105050000D01*
X197760000Y-53942064D02*
X197760000Y-52737936D01*
X195940000Y-53942064D02*
X195940000Y-52737936D01*
X220377936Y-107590000D02*
X221582064Y-107590000D01*
X220377936Y-105770000D02*
X221582064Y-105770000D01*
X201570000Y-53942064D02*
X201570000Y-52737936D01*
X199750000Y-53942064D02*
X199750000Y-52737936D01*
X209735000Y-68099131D02*
X212735000Y-68099131D01*
X211235000Y-69599131D02*
X211235000Y-66599131D01*
X219670000Y-38300000D02*
X219750000Y-38300000D01*
X218650000Y-38340000D02*
X220770000Y-38340000D01*
X218196000Y-38380000D02*
X221224000Y-38380000D01*
X217848000Y-38420000D02*
X221572000Y-38420000D01*
X217556000Y-38460000D02*
X221864000Y-38460000D01*
X217298000Y-38500000D02*
X222122000Y-38500000D01*
X217066000Y-38540000D02*
X222354000Y-38540000D01*
X216853000Y-38580000D02*
X222567000Y-38580000D01*
X216655000Y-38620000D02*
X222765000Y-38620000D01*
X216470000Y-38660000D02*
X222950000Y-38660000D01*
X216295000Y-38700000D02*
X223125000Y-38700000D01*
X216128000Y-38740000D02*
X223292000Y-38740000D01*
X215970000Y-38780000D02*
X223450000Y-38780000D01*
X215818000Y-38820000D02*
X223602000Y-38820000D01*
X215673000Y-38860000D02*
X223747000Y-38860000D01*
X215532000Y-38900000D02*
X223888000Y-38900000D01*
X215397000Y-38940000D02*
X224023000Y-38940000D01*
X215266000Y-38980000D02*
X224154000Y-38980000D01*
X215139000Y-39020000D02*
X224281000Y-39020000D01*
X215016000Y-39060000D02*
X224404000Y-39060000D01*
X214896000Y-39100000D02*
X224524000Y-39100000D01*
X214780000Y-39140000D02*
X224640000Y-39140000D01*
X214667000Y-39180000D02*
X224753000Y-39180000D01*
X214556000Y-39220000D02*
X224864000Y-39220000D01*
X214448000Y-39260000D02*
X224972000Y-39260000D01*
X214342000Y-39300000D02*
X225078000Y-39300000D01*
X214239000Y-39340000D02*
X225181000Y-39340000D01*
X214138000Y-39380000D02*
X225282000Y-39380000D01*
X214039000Y-39420000D02*
X225381000Y-39420000D01*
X213942000Y-39460000D02*
X225478000Y-39460000D01*
X213846000Y-39500000D02*
X225574000Y-39500000D01*
X213753000Y-39540000D02*
X225667000Y-39540000D01*
X213661000Y-39580000D02*
X225759000Y-39580000D01*
X213571000Y-39620000D02*
X225849000Y-39620000D01*
X213482000Y-39660000D02*
X225938000Y-39660000D01*
X213395000Y-39700000D02*
X226025000Y-39700000D01*
X213310000Y-39740000D02*
X226110000Y-39740000D01*
X213225000Y-39780000D02*
X226195000Y-39780000D01*
X213142000Y-39820000D02*
X226278000Y-39820000D01*
X213061000Y-39860000D02*
X226359000Y-39860000D01*
X212980000Y-39900000D02*
X226440000Y-39900000D01*
X212901000Y-39940000D02*
X226519000Y-39940000D01*
X212823000Y-39980000D02*
X226597000Y-39980000D01*
X212746000Y-40020000D02*
X226674000Y-40020000D01*
X212670000Y-40060000D02*
X226750000Y-40060000D01*
X212595000Y-40100000D02*
X226825000Y-40100000D01*
X212521000Y-40140000D02*
X226899000Y-40140000D01*
X212448000Y-40180000D02*
X226972000Y-40180000D01*
X212376000Y-40220000D02*
X227044000Y-40220000D01*
X212304000Y-40260000D02*
X227116000Y-40260000D01*
X212234000Y-40300000D02*
X227186000Y-40300000D01*
X212165000Y-40340000D02*
X227255000Y-40340000D01*
X212096000Y-40380000D02*
X227324000Y-40380000D01*
X212028000Y-40420000D02*
X227392000Y-40420000D01*
X211962000Y-40460000D02*
X227458000Y-40460000D01*
X211895000Y-40500000D02*
X227525000Y-40500000D01*
X211830000Y-40540000D02*
X227590000Y-40540000D01*
X211765000Y-40580000D02*
X227655000Y-40580000D01*
X211701000Y-40620000D02*
X227719000Y-40620000D01*
X211638000Y-40660000D02*
X227782000Y-40660000D01*
X211575000Y-40700000D02*
X227845000Y-40700000D01*
X211513000Y-40740000D02*
X227907000Y-40740000D01*
X211452000Y-40780000D02*
X227968000Y-40780000D01*
X211392000Y-40820000D02*
X228028000Y-40820000D01*
X211332000Y-40860000D02*
X228088000Y-40860000D01*
X211272000Y-40900000D02*
X228148000Y-40900000D01*
X211213000Y-40940000D02*
X228207000Y-40940000D01*
X211155000Y-40980000D02*
X228265000Y-40980000D01*
X211098000Y-41020000D02*
X228322000Y-41020000D01*
X211041000Y-41060000D02*
X228379000Y-41060000D01*
X210984000Y-41100000D02*
X228436000Y-41100000D01*
X210928000Y-41140000D02*
X228492000Y-41140000D01*
X210873000Y-41180000D02*
X228547000Y-41180000D01*
X210818000Y-41220000D02*
X228602000Y-41220000D01*
X210763000Y-41260000D02*
X228657000Y-41260000D01*
X210710000Y-41300000D02*
X228710000Y-41300000D01*
X210656000Y-41340000D02*
X228764000Y-41340000D01*
X210603000Y-41380000D02*
X228817000Y-41380000D01*
X210551000Y-41420000D02*
X228869000Y-41420000D01*
X210499000Y-41460000D02*
X228921000Y-41460000D01*
X210447000Y-41500000D02*
X228973000Y-41500000D01*
X210396000Y-41540000D02*
X229024000Y-41540000D01*
X210346000Y-41580000D02*
X229074000Y-41580000D01*
X210296000Y-41620000D02*
X229124000Y-41620000D01*
X210246000Y-41660000D02*
X229174000Y-41660000D01*
X210197000Y-41700000D02*
X229223000Y-41700000D01*
X210148000Y-41740000D02*
X229272000Y-41740000D01*
X210099000Y-41780000D02*
X229321000Y-41780000D01*
X210051000Y-41820000D02*
X229369000Y-41820000D01*
X210004000Y-41860000D02*
X229416000Y-41860000D01*
X209956000Y-41900000D02*
X229464000Y-41900000D01*
X209910000Y-41940000D02*
X229510000Y-41940000D01*
X209863000Y-41980000D02*
X229557000Y-41980000D01*
X209817000Y-42020000D02*
X229603000Y-42020000D01*
X209771000Y-42060000D02*
X229649000Y-42060000D01*
X209726000Y-42100000D02*
X229694000Y-42100000D01*
X209681000Y-42140000D02*
X229739000Y-42140000D01*
X209636000Y-42180000D02*
X229784000Y-42180000D01*
X209592000Y-42220000D02*
X229828000Y-42220000D01*
X209548000Y-42260000D02*
X229872000Y-42260000D01*
X209505000Y-42300000D02*
X229915000Y-42300000D01*
X209461000Y-42340000D02*
X229959000Y-42340000D01*
X209418000Y-42380000D02*
X230002000Y-42380000D01*
X209376000Y-42420000D02*
X230044000Y-42420000D01*
X209334000Y-42460000D02*
X230086000Y-42460000D01*
X209292000Y-42500000D02*
X230128000Y-42500000D01*
X209250000Y-42540000D02*
X230170000Y-42540000D01*
X209209000Y-42580000D02*
X230211000Y-42580000D01*
X209168000Y-42620000D02*
X230252000Y-42620000D01*
X209127000Y-42660000D02*
X230293000Y-42660000D01*
X209087000Y-42700000D02*
X230333000Y-42700000D01*
X209047000Y-42740000D02*
X230373000Y-42740000D01*
X209007000Y-42780000D02*
X230413000Y-42780000D01*
X208967000Y-42820000D02*
X230453000Y-42820000D01*
X208928000Y-42860000D02*
X230492000Y-42860000D01*
X208889000Y-42900000D02*
X230531000Y-42900000D01*
X208851000Y-42940000D02*
X230569000Y-42940000D01*
X208812000Y-42980000D02*
X230608000Y-42980000D01*
X208774000Y-43020000D02*
X230646000Y-43020000D01*
X208737000Y-43060000D02*
X230683000Y-43060000D01*
X208699000Y-43100000D02*
X230721000Y-43100000D01*
X208662000Y-43140000D02*
X230758000Y-43140000D01*
X208625000Y-43180000D02*
X230795000Y-43180000D01*
X208588000Y-43220000D02*
X230832000Y-43220000D01*
X208552000Y-43260000D02*
X230868000Y-43260000D01*
X208516000Y-43300000D02*
X230904000Y-43300000D01*
X208480000Y-43340000D02*
X230940000Y-43340000D01*
X208444000Y-43380000D02*
X230976000Y-43380000D01*
X208409000Y-43420000D02*
X231011000Y-43420000D01*
X208374000Y-43460000D02*
X231046000Y-43460000D01*
X208339000Y-43500000D02*
X231081000Y-43500000D01*
X208304000Y-43540000D02*
X231116000Y-43540000D01*
X208270000Y-43580000D02*
X231150000Y-43580000D01*
X208235000Y-43620000D02*
X231185000Y-43620000D01*
X208201000Y-43660000D02*
X231219000Y-43660000D01*
X208168000Y-43700000D02*
X231252000Y-43700000D01*
X208134000Y-43740000D02*
X231286000Y-43740000D01*
X208101000Y-43780000D02*
X231319000Y-43780000D01*
X208068000Y-43820000D02*
X231352000Y-43820000D01*
X208035000Y-43860000D02*
X231385000Y-43860000D01*
X208003000Y-43900000D02*
X231417000Y-43900000D01*
X207971000Y-43940000D02*
X231449000Y-43940000D01*
X207938000Y-43980000D02*
X231482000Y-43980000D01*
X207907000Y-44020000D02*
X231513000Y-44020000D01*
X207875000Y-44060000D02*
X231545000Y-44060000D01*
X207844000Y-44100000D02*
X231576000Y-44100000D01*
X207812000Y-44140000D02*
X231608000Y-44140000D01*
X207781000Y-44180000D02*
X231639000Y-44180000D01*
X207751000Y-44220000D02*
X231669000Y-44220000D01*
X207720000Y-44260000D02*
X231700000Y-44260000D01*
X207690000Y-44300000D02*
X231730000Y-44300000D01*
X207660000Y-44340000D02*
X231760000Y-44340000D01*
X207630000Y-44380000D02*
X231790000Y-44380000D01*
X207600000Y-44420000D02*
X231820000Y-44420000D01*
X207570000Y-44460000D02*
X231850000Y-44460000D01*
X207541000Y-44500000D02*
X231879000Y-44500000D01*
X207512000Y-44540000D02*
X231908000Y-44540000D01*
X207483000Y-44580000D02*
X231937000Y-44580000D01*
X207454000Y-44620000D02*
X231966000Y-44620000D01*
X207426000Y-44660000D02*
X231994000Y-44660000D01*
X207397000Y-44700000D02*
X232023000Y-44700000D01*
X207369000Y-44740000D02*
X232051000Y-44740000D01*
X207341000Y-44780000D02*
X232079000Y-44780000D01*
X207313000Y-44820000D02*
X232107000Y-44820000D01*
X207286000Y-44860000D02*
X232134000Y-44860000D01*
X207259000Y-44900000D02*
X232161000Y-44900000D01*
X207231000Y-44940000D02*
X232189000Y-44940000D01*
X207204000Y-44980000D02*
X232216000Y-44980000D01*
X207178000Y-45020000D02*
X232242000Y-45020000D01*
X207151000Y-45060000D02*
X232269000Y-45060000D01*
X207124000Y-45100000D02*
X232296000Y-45100000D01*
X207098000Y-45140000D02*
X232322000Y-45140000D01*
X207072000Y-45180000D02*
X232348000Y-45180000D01*
X207046000Y-45220000D02*
X232374000Y-45220000D01*
X207020000Y-45259000D02*
X232400000Y-45259000D01*
X206995000Y-45299000D02*
X232425000Y-45299000D01*
X206970000Y-45339000D02*
X232450000Y-45339000D01*
X206944000Y-45379000D02*
X232476000Y-45379000D01*
X206919000Y-45419000D02*
X232501000Y-45419000D01*
X206894000Y-45459000D02*
X232526000Y-45459000D01*
X206870000Y-45499000D02*
X232550000Y-45499000D01*
X206845000Y-45539000D02*
X232575000Y-45539000D01*
X206821000Y-45579000D02*
X232599000Y-45579000D01*
X206797000Y-45619000D02*
X232623000Y-45619000D01*
X206773000Y-45659000D02*
X232647000Y-45659000D01*
X206749000Y-45699000D02*
X232671000Y-45699000D01*
X206725000Y-45739000D02*
X232695000Y-45739000D01*
X206702000Y-45779000D02*
X232718000Y-45779000D01*
X206678000Y-45819000D02*
X232742000Y-45819000D01*
X206655000Y-45859000D02*
X232765000Y-45859000D01*
X206632000Y-45899000D02*
X232788000Y-45899000D01*
X206609000Y-45939000D02*
X232811000Y-45939000D01*
X206587000Y-45979000D02*
X232833000Y-45979000D01*
X206564000Y-46019000D02*
X232856000Y-46019000D01*
X206542000Y-46059000D02*
X232878000Y-46059000D01*
X206520000Y-46099000D02*
X232900000Y-46099000D01*
X206497000Y-46139000D02*
X232923000Y-46139000D01*
X206476000Y-46179000D02*
X232944000Y-46179000D01*
X221950000Y-46219000D02*
X232966000Y-46219000D01*
X206454000Y-46219000D02*
X217470000Y-46219000D01*
X221950000Y-46259000D02*
X232988000Y-46259000D01*
X206432000Y-46259000D02*
X217470000Y-46259000D01*
X221950000Y-46299000D02*
X233009000Y-46299000D01*
X206411000Y-46299000D02*
X217470000Y-46299000D01*
X221950000Y-46339000D02*
X233030000Y-46339000D01*
X206390000Y-46339000D02*
X217470000Y-46339000D01*
X221950000Y-46379000D02*
X233052000Y-46379000D01*
X206368000Y-46379000D02*
X217470000Y-46379000D01*
X221950000Y-46419000D02*
X233073000Y-46419000D01*
X206347000Y-46419000D02*
X217470000Y-46419000D01*
X221950000Y-46459000D02*
X233093000Y-46459000D01*
X206327000Y-46459000D02*
X217470000Y-46459000D01*
X221950000Y-46499000D02*
X233114000Y-46499000D01*
X206306000Y-46499000D02*
X217470000Y-46499000D01*
X221950000Y-46539000D02*
X233135000Y-46539000D01*
X206285000Y-46539000D02*
X217470000Y-46539000D01*
X221950000Y-46579000D02*
X233155000Y-46579000D01*
X206265000Y-46579000D02*
X217470000Y-46579000D01*
X221950000Y-46619000D02*
X233175000Y-46619000D01*
X206245000Y-46619000D02*
X217470000Y-46619000D01*
X221950000Y-46659000D02*
X233195000Y-46659000D01*
X206225000Y-46659000D02*
X217470000Y-46659000D01*
X221950000Y-46699000D02*
X233215000Y-46699000D01*
X206205000Y-46699000D02*
X217470000Y-46699000D01*
X221950000Y-46739000D02*
X233235000Y-46739000D01*
X206185000Y-46739000D02*
X217470000Y-46739000D01*
X221950000Y-46779000D02*
X233254000Y-46779000D01*
X206166000Y-46779000D02*
X217470000Y-46779000D01*
X221950000Y-46819000D02*
X233274000Y-46819000D01*
X206146000Y-46819000D02*
X217470000Y-46819000D01*
X221950000Y-46859000D02*
X233293000Y-46859000D01*
X206127000Y-46859000D02*
X217470000Y-46859000D01*
X221950000Y-46899000D02*
X233312000Y-46899000D01*
X206108000Y-46899000D02*
X217470000Y-46899000D01*
X221950000Y-46939000D02*
X233332000Y-46939000D01*
X206088000Y-46939000D02*
X217470000Y-46939000D01*
X221950000Y-46979000D02*
X233350000Y-46979000D01*
X206070000Y-46979000D02*
X217470000Y-46979000D01*
X221950000Y-47019000D02*
X233369000Y-47019000D01*
X206051000Y-47019000D02*
X217470000Y-47019000D01*
X221950000Y-47059000D02*
X233388000Y-47059000D01*
X206032000Y-47059000D02*
X217470000Y-47059000D01*
X221950000Y-47099000D02*
X233406000Y-47099000D01*
X206014000Y-47099000D02*
X217470000Y-47099000D01*
X221950000Y-47139000D02*
X233425000Y-47139000D01*
X205995000Y-47139000D02*
X217470000Y-47139000D01*
X221950000Y-47179000D02*
X233443000Y-47179000D01*
X205977000Y-47179000D02*
X217470000Y-47179000D01*
X221950000Y-47219000D02*
X233461000Y-47219000D01*
X205959000Y-47219000D02*
X217470000Y-47219000D01*
X221950000Y-47259000D02*
X233479000Y-47259000D01*
X205941000Y-47259000D02*
X217470000Y-47259000D01*
X221950000Y-47299000D02*
X233497000Y-47299000D01*
X205923000Y-47299000D02*
X217470000Y-47299000D01*
X221950000Y-47339000D02*
X233514000Y-47339000D01*
X205906000Y-47339000D02*
X217470000Y-47339000D01*
X221950000Y-47379000D02*
X233532000Y-47379000D01*
X205888000Y-47379000D02*
X217470000Y-47379000D01*
X221950000Y-47419000D02*
X233549000Y-47419000D01*
X205871000Y-47419000D02*
X217470000Y-47419000D01*
X221950000Y-47459000D02*
X233566000Y-47459000D01*
X205854000Y-47459000D02*
X217470000Y-47459000D01*
X221950000Y-47499000D02*
X233583000Y-47499000D01*
X205837000Y-47499000D02*
X217470000Y-47499000D01*
X221950000Y-47539000D02*
X233600000Y-47539000D01*
X205820000Y-47539000D02*
X217470000Y-47539000D01*
X221950000Y-47579000D02*
X233617000Y-47579000D01*
X205803000Y-47579000D02*
X217470000Y-47579000D01*
X221950000Y-47619000D02*
X233634000Y-47619000D01*
X205786000Y-47619000D02*
X217470000Y-47619000D01*
X221950000Y-47659000D02*
X233650000Y-47659000D01*
X205770000Y-47659000D02*
X217470000Y-47659000D01*
X221950000Y-47699000D02*
X233667000Y-47699000D01*
X205753000Y-47699000D02*
X217470000Y-47699000D01*
X221950000Y-47739000D02*
X233683000Y-47739000D01*
X205737000Y-47739000D02*
X217470000Y-47739000D01*
X221950000Y-47779000D02*
X233699000Y-47779000D01*
X205721000Y-47779000D02*
X217470000Y-47779000D01*
X221950000Y-47819000D02*
X233715000Y-47819000D01*
X205705000Y-47819000D02*
X217470000Y-47819000D01*
X221950000Y-47859000D02*
X233731000Y-47859000D01*
X205689000Y-47859000D02*
X217470000Y-47859000D01*
X221950000Y-47899000D02*
X233747000Y-47899000D01*
X205673000Y-47899000D02*
X217470000Y-47899000D01*
X221950000Y-47939000D02*
X233762000Y-47939000D01*
X205658000Y-47939000D02*
X217470000Y-47939000D01*
X221950000Y-47979000D02*
X233778000Y-47979000D01*
X205642000Y-47979000D02*
X217470000Y-47979000D01*
X221950000Y-48019000D02*
X233793000Y-48019000D01*
X205627000Y-48019000D02*
X217470000Y-48019000D01*
X221950000Y-48059000D02*
X233809000Y-48059000D01*
X205611000Y-48059000D02*
X217470000Y-48059000D01*
X221950000Y-48099000D02*
X233824000Y-48099000D01*
X205596000Y-48099000D02*
X217470000Y-48099000D01*
X221950000Y-48139000D02*
X233839000Y-48139000D01*
X205581000Y-48139000D02*
X217470000Y-48139000D01*
X221950000Y-48179000D02*
X233853000Y-48179000D01*
X205567000Y-48179000D02*
X217470000Y-48179000D01*
X221950000Y-48219000D02*
X233868000Y-48219000D01*
X205552000Y-48219000D02*
X217470000Y-48219000D01*
X221950000Y-48259000D02*
X233883000Y-48259000D01*
X205537000Y-48259000D02*
X217470000Y-48259000D01*
X221950000Y-48299000D02*
X233897000Y-48299000D01*
X205523000Y-48299000D02*
X217470000Y-48299000D01*
X221950000Y-48339000D02*
X233912000Y-48339000D01*
X205508000Y-48339000D02*
X217470000Y-48339000D01*
X221950000Y-48379000D02*
X233926000Y-48379000D01*
X205494000Y-48379000D02*
X217470000Y-48379000D01*
X221950000Y-48419000D02*
X233940000Y-48419000D01*
X205480000Y-48419000D02*
X217470000Y-48419000D01*
X221950000Y-48459000D02*
X233954000Y-48459000D01*
X205466000Y-48459000D02*
X217470000Y-48459000D01*
X221950000Y-48499000D02*
X233968000Y-48499000D01*
X205452000Y-48499000D02*
X217470000Y-48499000D01*
X221950000Y-48539000D02*
X233981000Y-48539000D01*
X205439000Y-48539000D02*
X217470000Y-48539000D01*
X221950000Y-48579000D02*
X233995000Y-48579000D01*
X205425000Y-48579000D02*
X217470000Y-48579000D01*
X221950000Y-48619000D02*
X234008000Y-48619000D01*
X205412000Y-48619000D02*
X217470000Y-48619000D01*
X221950000Y-48659000D02*
X234022000Y-48659000D01*
X205398000Y-48659000D02*
X217470000Y-48659000D01*
X221950000Y-48699000D02*
X234035000Y-48699000D01*
X205385000Y-48699000D02*
X217470000Y-48699000D01*
X221950000Y-48739000D02*
X234048000Y-48739000D01*
X205372000Y-48739000D02*
X217470000Y-48739000D01*
X221950000Y-48779000D02*
X234061000Y-48779000D01*
X205359000Y-48779000D02*
X217470000Y-48779000D01*
X221950000Y-48819000D02*
X234074000Y-48819000D01*
X205346000Y-48819000D02*
X217470000Y-48819000D01*
X221950000Y-48859000D02*
X234086000Y-48859000D01*
X205334000Y-48859000D02*
X217470000Y-48859000D01*
X221950000Y-48899000D02*
X234099000Y-48899000D01*
X205321000Y-48899000D02*
X217470000Y-48899000D01*
X221950000Y-48939000D02*
X234112000Y-48939000D01*
X205308000Y-48939000D02*
X217470000Y-48939000D01*
X221950000Y-48979000D02*
X234124000Y-48979000D01*
X205296000Y-48979000D02*
X217470000Y-48979000D01*
X221950000Y-49019000D02*
X234136000Y-49019000D01*
X205284000Y-49019000D02*
X217470000Y-49019000D01*
X221950000Y-49059000D02*
X234148000Y-49059000D01*
X205272000Y-49059000D02*
X217470000Y-49059000D01*
X221950000Y-49099000D02*
X234160000Y-49099000D01*
X205260000Y-49099000D02*
X217470000Y-49099000D01*
X221950000Y-49139000D02*
X234172000Y-49139000D01*
X205248000Y-49139000D02*
X217470000Y-49139000D01*
X221950000Y-49179000D02*
X234184000Y-49179000D01*
X205236000Y-49179000D02*
X217470000Y-49179000D01*
X221950000Y-49219000D02*
X234195000Y-49219000D01*
X205225000Y-49219000D02*
X217470000Y-49219000D01*
X221950000Y-49259000D02*
X234207000Y-49259000D01*
X205213000Y-49259000D02*
X217470000Y-49259000D01*
X221950000Y-49299000D02*
X234218000Y-49299000D01*
X205202000Y-49299000D02*
X217470000Y-49299000D01*
X221950000Y-49339000D02*
X234230000Y-49339000D01*
X205190000Y-49339000D02*
X217470000Y-49339000D01*
X221950000Y-49379000D02*
X234241000Y-49379000D01*
X205179000Y-49379000D02*
X217470000Y-49379000D01*
X221950000Y-49419000D02*
X234252000Y-49419000D01*
X205168000Y-49419000D02*
X217470000Y-49419000D01*
X221950000Y-49459000D02*
X234263000Y-49459000D01*
X205157000Y-49459000D02*
X217470000Y-49459000D01*
X221950000Y-49499000D02*
X234274000Y-49499000D01*
X205146000Y-49499000D02*
X217470000Y-49499000D01*
X221950000Y-49539000D02*
X234284000Y-49539000D01*
X205136000Y-49539000D02*
X217470000Y-49539000D01*
X221950000Y-49579000D02*
X234295000Y-49579000D01*
X205125000Y-49579000D02*
X217470000Y-49579000D01*
X221950000Y-49619000D02*
X234305000Y-49619000D01*
X205115000Y-49619000D02*
X217470000Y-49619000D01*
X221950000Y-49659000D02*
X234316000Y-49659000D01*
X205104000Y-49659000D02*
X217470000Y-49659000D01*
X221950000Y-49699000D02*
X234326000Y-49699000D01*
X205094000Y-49699000D02*
X217470000Y-49699000D01*
X221950000Y-49739000D02*
X234336000Y-49739000D01*
X205084000Y-49739000D02*
X217470000Y-49739000D01*
X221950000Y-49779000D02*
X234346000Y-49779000D01*
X205074000Y-49779000D02*
X217470000Y-49779000D01*
X221950000Y-49819000D02*
X234356000Y-49819000D01*
X205064000Y-49819000D02*
X217470000Y-49819000D01*
X221950000Y-49859000D02*
X234365000Y-49859000D01*
X205055000Y-49859000D02*
X217470000Y-49859000D01*
X221950000Y-49899000D02*
X234375000Y-49899000D01*
X205045000Y-49899000D02*
X217470000Y-49899000D01*
X221950000Y-49939000D02*
X234385000Y-49939000D01*
X205035000Y-49939000D02*
X217470000Y-49939000D01*
X221950000Y-49979000D02*
X234394000Y-49979000D01*
X205026000Y-49979000D02*
X217470000Y-49979000D01*
X221950000Y-50019000D02*
X234403000Y-50019000D01*
X205017000Y-50019000D02*
X217470000Y-50019000D01*
X221950000Y-50059000D02*
X234412000Y-50059000D01*
X205008000Y-50059000D02*
X217470000Y-50059000D01*
X221950000Y-50099000D02*
X234421000Y-50099000D01*
X204999000Y-50099000D02*
X217470000Y-50099000D01*
X221950000Y-50139000D02*
X234430000Y-50139000D01*
X204990000Y-50139000D02*
X217470000Y-50139000D01*
X221950000Y-50179000D02*
X234439000Y-50179000D01*
X204981000Y-50179000D02*
X217470000Y-50179000D01*
X221950000Y-50219000D02*
X234448000Y-50219000D01*
X204972000Y-50219000D02*
X217470000Y-50219000D01*
X221950000Y-50259000D02*
X234457000Y-50259000D01*
X204963000Y-50259000D02*
X217470000Y-50259000D01*
X221950000Y-50299000D02*
X234465000Y-50299000D01*
X204955000Y-50299000D02*
X217470000Y-50299000D01*
X221950000Y-50339000D02*
X234473000Y-50339000D01*
X204947000Y-50339000D02*
X217470000Y-50339000D01*
X221950000Y-50379000D02*
X234482000Y-50379000D01*
X204938000Y-50379000D02*
X217470000Y-50379000D01*
X221950000Y-50419000D02*
X234490000Y-50419000D01*
X204930000Y-50419000D02*
X217470000Y-50419000D01*
X221950000Y-50459000D02*
X234498000Y-50459000D01*
X204922000Y-50459000D02*
X217470000Y-50459000D01*
X221950000Y-50499000D02*
X234506000Y-50499000D01*
X204914000Y-50499000D02*
X217470000Y-50499000D01*
X221950000Y-50539000D02*
X234514000Y-50539000D01*
X204906000Y-50539000D02*
X217470000Y-50539000D01*
X221950000Y-50579000D02*
X234521000Y-50579000D01*
X204899000Y-50579000D02*
X217470000Y-50579000D01*
X221950000Y-50619000D02*
X234529000Y-50619000D01*
X204891000Y-50619000D02*
X217470000Y-50619000D01*
X221950000Y-50659000D02*
X234536000Y-50659000D01*
X204884000Y-50659000D02*
X217470000Y-50659000D01*
X204876000Y-50699000D02*
X234544000Y-50699000D01*
X204869000Y-50739000D02*
X234551000Y-50739000D01*
X204862000Y-50779000D02*
X234558000Y-50779000D01*
X204855000Y-50819000D02*
X234565000Y-50819000D01*
X204848000Y-50859000D02*
X234572000Y-50859000D01*
X204841000Y-50899000D02*
X234579000Y-50899000D01*
X204834000Y-50939000D02*
X234586000Y-50939000D01*
X204828000Y-50979000D02*
X234592000Y-50979000D01*
X204821000Y-51019000D02*
X234599000Y-51019000D01*
X204815000Y-51059000D02*
X234605000Y-51059000D01*
X204809000Y-51099000D02*
X234611000Y-51099000D01*
X204802000Y-51139000D02*
X234618000Y-51139000D01*
X204796000Y-51179000D02*
X234624000Y-51179000D01*
X204790000Y-51219000D02*
X234630000Y-51219000D01*
X204785000Y-51259000D02*
X234635000Y-51259000D01*
X204779000Y-51299000D02*
X234641000Y-51299000D01*
X204773000Y-51339000D02*
X234647000Y-51339000D01*
X204768000Y-51379000D02*
X234652000Y-51379000D01*
X204762000Y-51419000D02*
X234658000Y-51419000D01*
X204757000Y-51459000D02*
X234663000Y-51459000D01*
X204752000Y-51499000D02*
X234668000Y-51499000D01*
X204747000Y-51539000D02*
X234673000Y-51539000D01*
X204742000Y-51579000D02*
X234678000Y-51579000D01*
X204737000Y-51619000D02*
X234683000Y-51619000D01*
X204732000Y-51659000D02*
X234688000Y-51659000D01*
X204728000Y-51699000D02*
X234692000Y-51699000D01*
X204723000Y-51739000D02*
X234697000Y-51739000D01*
X204719000Y-51779000D02*
X234701000Y-51779000D01*
X204714000Y-51819000D02*
X234706000Y-51819000D01*
X204710000Y-51859000D02*
X234710000Y-51859000D01*
X204706000Y-51899000D02*
X234714000Y-51899000D01*
X204702000Y-51939000D02*
X234718000Y-51939000D01*
X204698000Y-51979000D02*
X234722000Y-51979000D01*
X204694000Y-52019000D02*
X234726000Y-52019000D01*
X204691000Y-52059000D02*
X234729000Y-52059000D01*
X204687000Y-52099000D02*
X234733000Y-52099000D01*
X204684000Y-52139000D02*
X234736000Y-52139000D01*
X204680000Y-52179000D02*
X234740000Y-52179000D01*
X204677000Y-52219000D02*
X234743000Y-52219000D01*
X204674000Y-52259000D02*
X234746000Y-52259000D01*
X204671000Y-52299000D02*
X234749000Y-52299000D01*
X204668000Y-52339000D02*
X234752000Y-52339000D01*
X204665000Y-52379000D02*
X234755000Y-52379000D01*
X204663000Y-52419000D02*
X234757000Y-52419000D01*
X204660000Y-52459000D02*
X234760000Y-52459000D01*
X204658000Y-52499000D02*
X234762000Y-52499000D01*
X204655000Y-52539000D02*
X234765000Y-52539000D01*
X204653000Y-52579000D02*
X234767000Y-52579000D01*
X204651000Y-52619000D02*
X234769000Y-52619000D01*
X204649000Y-52659000D02*
X234771000Y-52659000D01*
X204647000Y-52699000D02*
X234773000Y-52699000D01*
X204645000Y-52740000D02*
X234775000Y-52740000D01*
X204643000Y-52780000D02*
X234777000Y-52780000D01*
X204641000Y-52820000D02*
X234779000Y-52820000D01*
X204640000Y-52860000D02*
X234780000Y-52860000D01*
X204638000Y-52900000D02*
X234782000Y-52900000D01*
X204637000Y-52940000D02*
X234783000Y-52940000D01*
X204636000Y-52980000D02*
X234784000Y-52980000D01*
X204635000Y-53020000D02*
X234785000Y-53020000D01*
X204634000Y-53060000D02*
X234786000Y-53060000D01*
X204633000Y-53100000D02*
X234787000Y-53100000D01*
X204632000Y-53140000D02*
X234788000Y-53140000D01*
X204631000Y-53180000D02*
X234789000Y-53180000D01*
X204631000Y-53220000D02*
X234789000Y-53220000D01*
X204630000Y-53260000D02*
X234790000Y-53260000D01*
X204630000Y-53300000D02*
X234790000Y-53300000D01*
X204630000Y-53340000D02*
X234790000Y-53340000D01*
X204630000Y-53380000D02*
X234790000Y-53380000D01*
X204629000Y-53420000D02*
X234791000Y-53420000D01*
X234830000Y-53420000D02*
G75*
G03X234830000Y-53420000I-15120000J0D01*
G01*
X162200000Y-76802064D02*
X162200000Y-75597936D01*
X160380000Y-76802064D02*
X160380000Y-75597936D01*
X116480000Y-76802064D02*
X116480000Y-75597936D01*
X114660000Y-76802064D02*
X114660000Y-75597936D01*
X221582064Y-90530000D02*
X220377936Y-90530000D01*
X221582064Y-92350000D02*
X220377936Y-92350000D01*
X55212064Y-42270000D02*
X54007936Y-42270000D01*
X55212064Y-44090000D02*
X54007936Y-44090000D01*
X160930000Y-38702064D02*
X160930000Y-37497936D01*
X159110000Y-38702064D02*
X159110000Y-37497936D01*
X112670000Y-39972064D02*
X112670000Y-38767936D01*
X110850000Y-39972064D02*
X110850000Y-38767936D01*
X54007936Y-46630000D02*
X55212064Y-46630000D01*
X54007936Y-44810000D02*
X55212064Y-44810000D01*
X163470000Y-45052064D02*
X163470000Y-43847936D01*
X161650000Y-45052064D02*
X161650000Y-43847936D01*
X112670000Y-47592064D02*
X112670000Y-46387936D01*
X110850000Y-47592064D02*
X110850000Y-46387936D01*
X172052064Y-47350000D02*
X170847936Y-47350000D01*
X172052064Y-49170000D02*
X170847936Y-49170000D01*
X121252064Y-48620000D02*
X120047936Y-48620000D01*
X121252064Y-50440000D02*
X120047936Y-50440000D01*
X178402064Y-47350000D02*
X177197936Y-47350000D01*
X178402064Y-49170000D02*
X177197936Y-49170000D01*
X128872064Y-48620000D02*
X127667936Y-48620000D01*
X128872064Y-50440000D02*
X127667936Y-50440000D01*
X70452064Y-42270000D02*
X69247936Y-42270000D01*
X70452064Y-44090000D02*
X69247936Y-44090000D01*
X70452064Y-39730000D02*
X69247936Y-39730000D01*
X70452064Y-41550000D02*
X69247936Y-41550000D01*
X70452064Y-37190000D02*
X69247936Y-37190000D01*
X70452064Y-39010000D02*
X69247936Y-39010000D01*
X60050000Y-34957936D02*
X60050000Y-36162064D01*
X61870000Y-34957936D02*
X61870000Y-36162064D01*
X70452064Y-34650000D02*
X69247936Y-34650000D01*
X70452064Y-36470000D02*
X69247936Y-36470000D01*
X70452064Y-44810000D02*
X69247936Y-44810000D01*
X70452064Y-46630000D02*
X69247936Y-46630000D01*
X94685000Y-28305741D02*
X92185000Y-28305741D01*
X93435000Y-27055741D02*
X93435000Y-29555741D01*
X87031000Y-53160000D02*
X85689000Y-53160000D01*
X87550000Y-53120000D02*
X85170000Y-53120000D01*
X87906000Y-53080000D02*
X84814000Y-53080000D01*
X88195000Y-53040000D02*
X84525000Y-53040000D01*
X88444000Y-53000000D02*
X84276000Y-53000000D01*
X88667000Y-52960000D02*
X84053000Y-52960000D01*
X88869000Y-52920000D02*
X83851000Y-52920000D01*
X89056000Y-52880000D02*
X83664000Y-52880000D01*
X89230000Y-52840000D02*
X83490000Y-52840000D01*
X89394000Y-52800000D02*
X83326000Y-52800000D01*
X89549000Y-52760000D02*
X83171000Y-52760000D01*
X89697000Y-52720000D02*
X83023000Y-52720000D01*
X89838000Y-52680000D02*
X82882000Y-52680000D01*
X89973000Y-52640000D02*
X82747000Y-52640000D01*
X90102000Y-52600000D02*
X82618000Y-52600000D01*
X90227000Y-52560000D02*
X82493000Y-52560000D01*
X90348000Y-52520000D02*
X82372000Y-52520000D01*
X90465000Y-52480000D02*
X82255000Y-52480000D01*
X90578000Y-52440000D02*
X82142000Y-52440000D01*
X90688000Y-52400000D02*
X82032000Y-52400000D01*
X90795000Y-52360000D02*
X81925000Y-52360000D01*
X90899000Y-52320000D02*
X81821000Y-52320000D01*
X91001000Y-52280000D02*
X81719000Y-52280000D01*
X91100000Y-52240000D02*
X81620000Y-52240000D01*
X91196000Y-52200000D02*
X81524000Y-52200000D01*
X91291000Y-52160000D02*
X81429000Y-52160000D01*
X91383000Y-52120000D02*
X81337000Y-52120000D01*
X91474000Y-52080000D02*
X81246000Y-52080000D01*
X91562000Y-52040000D02*
X81158000Y-52040000D01*
X91649000Y-52000000D02*
X81071000Y-52000000D01*
X91734000Y-51960000D02*
X80986000Y-51960000D01*
X91817000Y-51920000D02*
X80903000Y-51920000D01*
X91899000Y-51880000D02*
X80821000Y-51880000D01*
X91980000Y-51840000D02*
X80740000Y-51840000D01*
X92059000Y-51800000D02*
X80661000Y-51800000D01*
X92136000Y-51760000D02*
X80584000Y-51760000D01*
X92213000Y-51720000D02*
X80507000Y-51720000D01*
X92288000Y-51680000D02*
X80432000Y-51680000D01*
X92362000Y-51640000D02*
X80358000Y-51640000D01*
X92435000Y-51600000D02*
X80285000Y-51600000D01*
X92506000Y-51560000D02*
X80214000Y-51560000D01*
X92577000Y-51520000D02*
X80143000Y-51520000D01*
X92646000Y-51480000D02*
X80074000Y-51480000D01*
X92715000Y-51440000D02*
X80005000Y-51440000D01*
X92783000Y-51400000D02*
X79937000Y-51400000D01*
X92849000Y-51360000D02*
X79871000Y-51360000D01*
X92915000Y-51320000D02*
X79805000Y-51320000D01*
X92980000Y-51280000D02*
X79740000Y-51280000D01*
X93044000Y-51240000D02*
X79676000Y-51240000D01*
X93107000Y-51200000D02*
X79613000Y-51200000D01*
X93169000Y-51160000D02*
X79551000Y-51160000D01*
X93231000Y-51120000D02*
X79489000Y-51120000D01*
X93291000Y-51080000D02*
X79429000Y-51080000D01*
X93351000Y-51040000D02*
X79369000Y-51040000D01*
X93411000Y-51000000D02*
X79309000Y-51000000D01*
X93469000Y-50960000D02*
X79251000Y-50960000D01*
X93527000Y-50920000D02*
X79193000Y-50920000D01*
X93584000Y-50880000D02*
X79136000Y-50880000D01*
X93641000Y-50840000D02*
X79079000Y-50840000D01*
X93697000Y-50800000D02*
X79023000Y-50800000D01*
X93752000Y-50760000D02*
X78968000Y-50760000D01*
X93806000Y-50720000D02*
X78914000Y-50720000D01*
X93860000Y-50680000D02*
X78860000Y-50680000D01*
X93914000Y-50640000D02*
X78806000Y-50640000D01*
X93967000Y-50600000D02*
X78753000Y-50600000D01*
X94019000Y-50560000D02*
X78701000Y-50560000D01*
X94071000Y-50520000D02*
X78649000Y-50520000D01*
X94122000Y-50480000D02*
X78598000Y-50480000D01*
X94172000Y-50440000D02*
X78548000Y-50440000D01*
X94222000Y-50400000D02*
X78498000Y-50400000D01*
X94272000Y-50360000D02*
X78448000Y-50360000D01*
X94321000Y-50320000D02*
X78399000Y-50320000D01*
X94369000Y-50280000D02*
X78351000Y-50280000D01*
X94418000Y-50240000D02*
X78302000Y-50240000D01*
X94465000Y-50200000D02*
X78255000Y-50200000D01*
X94512000Y-50160000D02*
X78208000Y-50160000D01*
X94559000Y-50120000D02*
X78161000Y-50120000D01*
X94605000Y-50080000D02*
X78115000Y-50080000D01*
X94651000Y-50040000D02*
X78069000Y-50040000D01*
X94696000Y-50000000D02*
X78024000Y-50000000D01*
X94741000Y-49960000D02*
X77979000Y-49960000D01*
X94785000Y-49920000D02*
X77935000Y-49920000D01*
X94829000Y-49880000D02*
X77891000Y-49880000D01*
X94873000Y-49840000D02*
X77847000Y-49840000D01*
X94916000Y-49800000D02*
X77804000Y-49800000D01*
X94959000Y-49760000D02*
X77761000Y-49760000D01*
X95001000Y-49720000D02*
X77719000Y-49720000D01*
X95043000Y-49680000D02*
X77677000Y-49680000D01*
X95085000Y-49640000D02*
X77635000Y-49640000D01*
X95126000Y-49600000D02*
X77594000Y-49600000D01*
X95167000Y-49560000D02*
X77553000Y-49560000D01*
X95208000Y-49520000D02*
X77512000Y-49520000D01*
X95248000Y-49480000D02*
X77472000Y-49480000D01*
X95288000Y-49440000D02*
X77432000Y-49440000D01*
X95327000Y-49400000D02*
X77393000Y-49400000D01*
X95366000Y-49360000D02*
X77354000Y-49360000D01*
X95405000Y-49320000D02*
X77315000Y-49320000D01*
X95443000Y-49280000D02*
X77277000Y-49280000D01*
X95481000Y-49240000D02*
X77239000Y-49240000D01*
X95519000Y-49200000D02*
X77201000Y-49200000D01*
X95557000Y-49160000D02*
X77163000Y-49160000D01*
X95594000Y-49120000D02*
X77126000Y-49120000D01*
X95630000Y-49080000D02*
X77090000Y-49080000D01*
X95667000Y-49040000D02*
X77053000Y-49040000D01*
X95703000Y-49000000D02*
X77017000Y-49000000D01*
X95739000Y-48960000D02*
X76981000Y-48960000D01*
X95774000Y-48920000D02*
X76946000Y-48920000D01*
X95810000Y-48880000D02*
X76910000Y-48880000D01*
X95844000Y-48840000D02*
X76876000Y-48840000D01*
X95879000Y-48800000D02*
X76841000Y-48800000D01*
X95913000Y-48760000D02*
X76807000Y-48760000D01*
X95947000Y-48721000D02*
X76773000Y-48721000D01*
X95981000Y-48681000D02*
X76739000Y-48681000D01*
X96015000Y-48641000D02*
X76705000Y-48641000D01*
X96048000Y-48601000D02*
X76672000Y-48601000D01*
X96081000Y-48561000D02*
X76639000Y-48561000D01*
X96113000Y-48521000D02*
X76607000Y-48521000D01*
X96146000Y-48481000D02*
X76574000Y-48481000D01*
X96178000Y-48441000D02*
X76542000Y-48441000D01*
X96210000Y-48401000D02*
X76510000Y-48401000D01*
X96241000Y-48361000D02*
X76479000Y-48361000D01*
X96273000Y-48321000D02*
X76447000Y-48321000D01*
X96304000Y-48281000D02*
X76416000Y-48281000D01*
X96335000Y-48241000D02*
X76385000Y-48241000D01*
X96365000Y-48201000D02*
X76355000Y-48201000D01*
X96395000Y-48161000D02*
X76325000Y-48161000D01*
X96425000Y-48121000D02*
X76295000Y-48121000D01*
X96455000Y-48081000D02*
X76265000Y-48081000D01*
X96485000Y-48041000D02*
X76235000Y-48041000D01*
X96514000Y-48001000D02*
X76206000Y-48001000D01*
X96543000Y-47961000D02*
X76177000Y-47961000D01*
X96572000Y-47921000D02*
X76148000Y-47921000D01*
X96601000Y-47881000D02*
X76119000Y-47881000D01*
X96629000Y-47841000D02*
X76091000Y-47841000D01*
X96657000Y-47801000D02*
X76063000Y-47801000D01*
X84120000Y-47761000D02*
X76035000Y-47761000D01*
X96685000Y-47761000D02*
X88600000Y-47761000D01*
X84120000Y-47721000D02*
X76007000Y-47721000D01*
X96713000Y-47721000D02*
X88600000Y-47721000D01*
X84120000Y-47681000D02*
X75980000Y-47681000D01*
X96740000Y-47681000D02*
X88600000Y-47681000D01*
X84120000Y-47641000D02*
X75953000Y-47641000D01*
X96767000Y-47641000D02*
X88600000Y-47641000D01*
X84120000Y-47601000D02*
X75926000Y-47601000D01*
X96794000Y-47601000D02*
X88600000Y-47601000D01*
X84120000Y-47561000D02*
X75899000Y-47561000D01*
X96821000Y-47561000D02*
X88600000Y-47561000D01*
X84120000Y-47521000D02*
X75872000Y-47521000D01*
X96848000Y-47521000D02*
X88600000Y-47521000D01*
X84120000Y-47481000D02*
X75846000Y-47481000D01*
X96874000Y-47481000D02*
X88600000Y-47481000D01*
X84120000Y-47441000D02*
X75820000Y-47441000D01*
X96900000Y-47441000D02*
X88600000Y-47441000D01*
X84120000Y-47401000D02*
X75794000Y-47401000D01*
X96926000Y-47401000D02*
X88600000Y-47401000D01*
X84120000Y-47361000D02*
X75768000Y-47361000D01*
X96952000Y-47361000D02*
X88600000Y-47361000D01*
X84120000Y-47321000D02*
X75743000Y-47321000D01*
X96977000Y-47321000D02*
X88600000Y-47321000D01*
X84120000Y-47281000D02*
X75717000Y-47281000D01*
X97003000Y-47281000D02*
X88600000Y-47281000D01*
X84120000Y-47241000D02*
X75692000Y-47241000D01*
X97028000Y-47241000D02*
X88600000Y-47241000D01*
X84120000Y-47201000D02*
X75668000Y-47201000D01*
X97052000Y-47201000D02*
X88600000Y-47201000D01*
X84120000Y-47161000D02*
X75643000Y-47161000D01*
X97077000Y-47161000D02*
X88600000Y-47161000D01*
X84120000Y-47121000D02*
X75618000Y-47121000D01*
X97102000Y-47121000D02*
X88600000Y-47121000D01*
X84120000Y-47081000D02*
X75594000Y-47081000D01*
X97126000Y-47081000D02*
X88600000Y-47081000D01*
X84120000Y-47041000D02*
X75570000Y-47041000D01*
X97150000Y-47041000D02*
X88600000Y-47041000D01*
X84120000Y-47001000D02*
X75546000Y-47001000D01*
X97174000Y-47001000D02*
X88600000Y-47001000D01*
X84120000Y-46961000D02*
X75523000Y-46961000D01*
X97197000Y-46961000D02*
X88600000Y-46961000D01*
X84120000Y-46921000D02*
X75499000Y-46921000D01*
X97221000Y-46921000D02*
X88600000Y-46921000D01*
X84120000Y-46881000D02*
X75476000Y-46881000D01*
X97244000Y-46881000D02*
X88600000Y-46881000D01*
X84120000Y-46841000D02*
X75453000Y-46841000D01*
X97267000Y-46841000D02*
X88600000Y-46841000D01*
X84120000Y-46801000D02*
X75430000Y-46801000D01*
X97290000Y-46801000D02*
X88600000Y-46801000D01*
X84120000Y-46761000D02*
X75407000Y-46761000D01*
X97313000Y-46761000D02*
X88600000Y-46761000D01*
X84120000Y-46721000D02*
X75385000Y-46721000D01*
X97335000Y-46721000D02*
X88600000Y-46721000D01*
X84120000Y-46681000D02*
X75363000Y-46681000D01*
X97357000Y-46681000D02*
X88600000Y-46681000D01*
X84120000Y-46641000D02*
X75341000Y-46641000D01*
X97379000Y-46641000D02*
X88600000Y-46641000D01*
X84120000Y-46601000D02*
X75319000Y-46601000D01*
X97401000Y-46601000D02*
X88600000Y-46601000D01*
X84120000Y-46561000D02*
X75297000Y-46561000D01*
X97423000Y-46561000D02*
X88600000Y-46561000D01*
X84120000Y-46521000D02*
X75276000Y-46521000D01*
X97444000Y-46521000D02*
X88600000Y-46521000D01*
X84120000Y-46481000D02*
X75254000Y-46481000D01*
X97466000Y-46481000D02*
X88600000Y-46481000D01*
X84120000Y-46441000D02*
X75233000Y-46441000D01*
X97487000Y-46441000D02*
X88600000Y-46441000D01*
X84120000Y-46401000D02*
X75212000Y-46401000D01*
X97508000Y-46401000D02*
X88600000Y-46401000D01*
X84120000Y-46361000D02*
X75191000Y-46361000D01*
X97529000Y-46361000D02*
X88600000Y-46361000D01*
X84120000Y-46321000D02*
X75171000Y-46321000D01*
X97549000Y-46321000D02*
X88600000Y-46321000D01*
X84120000Y-46281000D02*
X75150000Y-46281000D01*
X97570000Y-46281000D02*
X88600000Y-46281000D01*
X84120000Y-46241000D02*
X75130000Y-46241000D01*
X97590000Y-46241000D02*
X88600000Y-46241000D01*
X84120000Y-46201000D02*
X75110000Y-46201000D01*
X97610000Y-46201000D02*
X88600000Y-46201000D01*
X84120000Y-46161000D02*
X75090000Y-46161000D01*
X97630000Y-46161000D02*
X88600000Y-46161000D01*
X84120000Y-46121000D02*
X75070000Y-46121000D01*
X97650000Y-46121000D02*
X88600000Y-46121000D01*
X84120000Y-46081000D02*
X75051000Y-46081000D01*
X97669000Y-46081000D02*
X88600000Y-46081000D01*
X84120000Y-46041000D02*
X75031000Y-46041000D01*
X97689000Y-46041000D02*
X88600000Y-46041000D01*
X84120000Y-46001000D02*
X75012000Y-46001000D01*
X97708000Y-46001000D02*
X88600000Y-46001000D01*
X84120000Y-45961000D02*
X74993000Y-45961000D01*
X97727000Y-45961000D02*
X88600000Y-45961000D01*
X84120000Y-45921000D02*
X74974000Y-45921000D01*
X97746000Y-45921000D02*
X88600000Y-45921000D01*
X84120000Y-45881000D02*
X74956000Y-45881000D01*
X97764000Y-45881000D02*
X88600000Y-45881000D01*
X84120000Y-45841000D02*
X74937000Y-45841000D01*
X97783000Y-45841000D02*
X88600000Y-45841000D01*
X84120000Y-45801000D02*
X74919000Y-45801000D01*
X97801000Y-45801000D02*
X88600000Y-45801000D01*
X84120000Y-45761000D02*
X74901000Y-45761000D01*
X97819000Y-45761000D02*
X88600000Y-45761000D01*
X84120000Y-45721000D02*
X74883000Y-45721000D01*
X97837000Y-45721000D02*
X88600000Y-45721000D01*
X84120000Y-45681000D02*
X74865000Y-45681000D01*
X97855000Y-45681000D02*
X88600000Y-45681000D01*
X84120000Y-45641000D02*
X74847000Y-45641000D01*
X97873000Y-45641000D02*
X88600000Y-45641000D01*
X84120000Y-45601000D02*
X74830000Y-45601000D01*
X97890000Y-45601000D02*
X88600000Y-45601000D01*
X84120000Y-45561000D02*
X74812000Y-45561000D01*
X97908000Y-45561000D02*
X88600000Y-45561000D01*
X84120000Y-45521000D02*
X74795000Y-45521000D01*
X97925000Y-45521000D02*
X88600000Y-45521000D01*
X84120000Y-45481000D02*
X74778000Y-45481000D01*
X97942000Y-45481000D02*
X88600000Y-45481000D01*
X84120000Y-45441000D02*
X74761000Y-45441000D01*
X97959000Y-45441000D02*
X88600000Y-45441000D01*
X84120000Y-45401000D02*
X74745000Y-45401000D01*
X97975000Y-45401000D02*
X88600000Y-45401000D01*
X84120000Y-45361000D02*
X74728000Y-45361000D01*
X97992000Y-45361000D02*
X88600000Y-45361000D01*
X84120000Y-45321000D02*
X74712000Y-45321000D01*
X98008000Y-45321000D02*
X88600000Y-45321000D01*
X84120000Y-45281000D02*
X74695000Y-45281000D01*
X98025000Y-45281000D02*
X88600000Y-45281000D01*
X84120000Y-45241000D02*
X74679000Y-45241000D01*
X98041000Y-45241000D02*
X88600000Y-45241000D01*
X84120000Y-45201000D02*
X74663000Y-45201000D01*
X98057000Y-45201000D02*
X88600000Y-45201000D01*
X84120000Y-45161000D02*
X74648000Y-45161000D01*
X98072000Y-45161000D02*
X88600000Y-45161000D01*
X84120000Y-45121000D02*
X74632000Y-45121000D01*
X98088000Y-45121000D02*
X88600000Y-45121000D01*
X84120000Y-45081000D02*
X74617000Y-45081000D01*
X98103000Y-45081000D02*
X88600000Y-45081000D01*
X84120000Y-45041000D02*
X74601000Y-45041000D01*
X98119000Y-45041000D02*
X88600000Y-45041000D01*
X84120000Y-45001000D02*
X74586000Y-45001000D01*
X98134000Y-45001000D02*
X88600000Y-45001000D01*
X84120000Y-44961000D02*
X74571000Y-44961000D01*
X98149000Y-44961000D02*
X88600000Y-44961000D01*
X84120000Y-44921000D02*
X74557000Y-44921000D01*
X98163000Y-44921000D02*
X88600000Y-44921000D01*
X84120000Y-44881000D02*
X74542000Y-44881000D01*
X98178000Y-44881000D02*
X88600000Y-44881000D01*
X84120000Y-44841000D02*
X74527000Y-44841000D01*
X98193000Y-44841000D02*
X88600000Y-44841000D01*
X84120000Y-44801000D02*
X74513000Y-44801000D01*
X98207000Y-44801000D02*
X88600000Y-44801000D01*
X84120000Y-44761000D02*
X74499000Y-44761000D01*
X98221000Y-44761000D02*
X88600000Y-44761000D01*
X84120000Y-44721000D02*
X74485000Y-44721000D01*
X98235000Y-44721000D02*
X88600000Y-44721000D01*
X84120000Y-44681000D02*
X74471000Y-44681000D01*
X98249000Y-44681000D02*
X88600000Y-44681000D01*
X84120000Y-44641000D02*
X74457000Y-44641000D01*
X98263000Y-44641000D02*
X88600000Y-44641000D01*
X84120000Y-44601000D02*
X74444000Y-44601000D01*
X98276000Y-44601000D02*
X88600000Y-44601000D01*
X84120000Y-44561000D02*
X74430000Y-44561000D01*
X98290000Y-44561000D02*
X88600000Y-44561000D01*
X84120000Y-44521000D02*
X74417000Y-44521000D01*
X98303000Y-44521000D02*
X88600000Y-44521000D01*
X84120000Y-44481000D02*
X74404000Y-44481000D01*
X98316000Y-44481000D02*
X88600000Y-44481000D01*
X84120000Y-44441000D02*
X74391000Y-44441000D01*
X98329000Y-44441000D02*
X88600000Y-44441000D01*
X84120000Y-44401000D02*
X74378000Y-44401000D01*
X98342000Y-44401000D02*
X88600000Y-44401000D01*
X84120000Y-44361000D02*
X74365000Y-44361000D01*
X98355000Y-44361000D02*
X88600000Y-44361000D01*
X84120000Y-44321000D02*
X74353000Y-44321000D01*
X98367000Y-44321000D02*
X88600000Y-44321000D01*
X84120000Y-44281000D02*
X74340000Y-44281000D01*
X98380000Y-44281000D02*
X88600000Y-44281000D01*
X84120000Y-44241000D02*
X74328000Y-44241000D01*
X98392000Y-44241000D02*
X88600000Y-44241000D01*
X84120000Y-44201000D02*
X74316000Y-44201000D01*
X98404000Y-44201000D02*
X88600000Y-44201000D01*
X84120000Y-44161000D02*
X74304000Y-44161000D01*
X98416000Y-44161000D02*
X88600000Y-44161000D01*
X84120000Y-44121000D02*
X74292000Y-44121000D01*
X98428000Y-44121000D02*
X88600000Y-44121000D01*
X84120000Y-44081000D02*
X74280000Y-44081000D01*
X98440000Y-44081000D02*
X88600000Y-44081000D01*
X84120000Y-44041000D02*
X74269000Y-44041000D01*
X98451000Y-44041000D02*
X88600000Y-44041000D01*
X84120000Y-44001000D02*
X74257000Y-44001000D01*
X98463000Y-44001000D02*
X88600000Y-44001000D01*
X84120000Y-43961000D02*
X74246000Y-43961000D01*
X98474000Y-43961000D02*
X88600000Y-43961000D01*
X84120000Y-43921000D02*
X74235000Y-43921000D01*
X98485000Y-43921000D02*
X88600000Y-43921000D01*
X84120000Y-43881000D02*
X74224000Y-43881000D01*
X98496000Y-43881000D02*
X88600000Y-43881000D01*
X84120000Y-43841000D02*
X74213000Y-43841000D01*
X98507000Y-43841000D02*
X88600000Y-43841000D01*
X84120000Y-43801000D02*
X74203000Y-43801000D01*
X98517000Y-43801000D02*
X88600000Y-43801000D01*
X84120000Y-43761000D02*
X74192000Y-43761000D01*
X98528000Y-43761000D02*
X88600000Y-43761000D01*
X84120000Y-43721000D02*
X74182000Y-43721000D01*
X98538000Y-43721000D02*
X88600000Y-43721000D01*
X84120000Y-43681000D02*
X74171000Y-43681000D01*
X98549000Y-43681000D02*
X88600000Y-43681000D01*
X84120000Y-43641000D02*
X74161000Y-43641000D01*
X98559000Y-43641000D02*
X88600000Y-43641000D01*
X84120000Y-43601000D02*
X74151000Y-43601000D01*
X98569000Y-43601000D02*
X88600000Y-43601000D01*
X84120000Y-43561000D02*
X74141000Y-43561000D01*
X98579000Y-43561000D02*
X88600000Y-43561000D01*
X84120000Y-43521000D02*
X74132000Y-43521000D01*
X98588000Y-43521000D02*
X88600000Y-43521000D01*
X84120000Y-43481000D02*
X74122000Y-43481000D01*
X98598000Y-43481000D02*
X88600000Y-43481000D01*
X84120000Y-43441000D02*
X74113000Y-43441000D01*
X98607000Y-43441000D02*
X88600000Y-43441000D01*
X84120000Y-43401000D02*
X74103000Y-43401000D01*
X98617000Y-43401000D02*
X88600000Y-43401000D01*
X84120000Y-43361000D02*
X74094000Y-43361000D01*
X98626000Y-43361000D02*
X88600000Y-43361000D01*
X84120000Y-43321000D02*
X74085000Y-43321000D01*
X98635000Y-43321000D02*
X88600000Y-43321000D01*
X98644000Y-43281000D02*
X74076000Y-43281000D01*
X98653000Y-43241000D02*
X74067000Y-43241000D01*
X98661000Y-43201000D02*
X74059000Y-43201000D01*
X98670000Y-43161000D02*
X74050000Y-43161000D01*
X98678000Y-43121000D02*
X74042000Y-43121000D01*
X98686000Y-43081000D02*
X74034000Y-43081000D01*
X98694000Y-43041000D02*
X74026000Y-43041000D01*
X98702000Y-43001000D02*
X74018000Y-43001000D01*
X98710000Y-42961000D02*
X74010000Y-42961000D01*
X98718000Y-42921000D02*
X74002000Y-42921000D01*
X98725000Y-42881000D02*
X73995000Y-42881000D01*
X98733000Y-42841000D02*
X73987000Y-42841000D01*
X98740000Y-42801000D02*
X73980000Y-42801000D01*
X98747000Y-42761000D02*
X73973000Y-42761000D01*
X98754000Y-42721000D02*
X73966000Y-42721000D01*
X98761000Y-42681000D02*
X73959000Y-42681000D01*
X98768000Y-42641000D02*
X73952000Y-42641000D01*
X98775000Y-42601000D02*
X73945000Y-42601000D01*
X98781000Y-42561000D02*
X73939000Y-42561000D01*
X98787000Y-42521000D02*
X73933000Y-42521000D01*
X98794000Y-42481000D02*
X73926000Y-42481000D01*
X98800000Y-42441000D02*
X73920000Y-42441000D01*
X98806000Y-42401000D02*
X73914000Y-42401000D01*
X98811000Y-42361000D02*
X73909000Y-42361000D01*
X98817000Y-42321000D02*
X73903000Y-42321000D01*
X98823000Y-42281000D02*
X73897000Y-42281000D01*
X98828000Y-42241000D02*
X73892000Y-42241000D01*
X98833000Y-42201000D02*
X73887000Y-42201000D01*
X98839000Y-42161000D02*
X73881000Y-42161000D01*
X98844000Y-42121000D02*
X73876000Y-42121000D01*
X98849000Y-42081000D02*
X73871000Y-42081000D01*
X98853000Y-42041000D02*
X73867000Y-42041000D01*
X98858000Y-42001000D02*
X73862000Y-42001000D01*
X98863000Y-41961000D02*
X73857000Y-41961000D01*
X98867000Y-41921000D02*
X73853000Y-41921000D01*
X98871000Y-41881000D02*
X73849000Y-41881000D01*
X98875000Y-41841000D02*
X73845000Y-41841000D01*
X98879000Y-41801000D02*
X73841000Y-41801000D01*
X98883000Y-41761000D02*
X73837000Y-41761000D01*
X98887000Y-41721000D02*
X73833000Y-41721000D01*
X98891000Y-41681000D02*
X73829000Y-41681000D01*
X98894000Y-41641000D02*
X73826000Y-41641000D01*
X98898000Y-41601000D02*
X73822000Y-41601000D01*
X98901000Y-41561000D02*
X73819000Y-41561000D01*
X98904000Y-41521000D02*
X73816000Y-41521000D01*
X98907000Y-41481000D02*
X73813000Y-41481000D01*
X98910000Y-41441000D02*
X73810000Y-41441000D01*
X98913000Y-41401000D02*
X73807000Y-41401000D01*
X98915000Y-41361000D02*
X73805000Y-41361000D01*
X98918000Y-41321000D02*
X73802000Y-41321000D01*
X98920000Y-41281000D02*
X73800000Y-41281000D01*
X98922000Y-41240000D02*
X73798000Y-41240000D01*
X98924000Y-41200000D02*
X73796000Y-41200000D01*
X98926000Y-41160000D02*
X73794000Y-41160000D01*
X98928000Y-41120000D02*
X73792000Y-41120000D01*
X98930000Y-41080000D02*
X73790000Y-41080000D01*
X98931000Y-41040000D02*
X73789000Y-41040000D01*
X98933000Y-41000000D02*
X73787000Y-41000000D01*
X98934000Y-40960000D02*
X73786000Y-40960000D01*
X98935000Y-40920000D02*
X73785000Y-40920000D01*
X98936000Y-40880000D02*
X73784000Y-40880000D01*
X98937000Y-40840000D02*
X73783000Y-40840000D01*
X98938000Y-40800000D02*
X73782000Y-40800000D01*
X98939000Y-40760000D02*
X73781000Y-40760000D01*
X98939000Y-40720000D02*
X73781000Y-40720000D01*
X98940000Y-40680000D02*
X73780000Y-40680000D01*
X98940000Y-40640000D02*
X73780000Y-40640000D01*
X98940000Y-40600000D02*
X73780000Y-40600000D01*
X98941000Y-40560000D02*
X73779000Y-40560000D01*
X98980000Y-40560000D02*
G75*
G03X98980000Y-40560000I-12620000J0D01*
G01*
X94685000Y-61325741D02*
X92185000Y-61325741D01*
X93435000Y-60075741D02*
X93435000Y-62575741D01*
X87031000Y-86180000D02*
X85689000Y-86180000D01*
X87550000Y-86140000D02*
X85170000Y-86140000D01*
X87906000Y-86100000D02*
X84814000Y-86100000D01*
X88195000Y-86060000D02*
X84525000Y-86060000D01*
X88444000Y-86020000D02*
X84276000Y-86020000D01*
X88667000Y-85980000D02*
X84053000Y-85980000D01*
X88869000Y-85940000D02*
X83851000Y-85940000D01*
X89056000Y-85900000D02*
X83664000Y-85900000D01*
X89230000Y-85860000D02*
X83490000Y-85860000D01*
X89394000Y-85820000D02*
X83326000Y-85820000D01*
X89549000Y-85780000D02*
X83171000Y-85780000D01*
X89697000Y-85740000D02*
X83023000Y-85740000D01*
X89838000Y-85700000D02*
X82882000Y-85700000D01*
X89973000Y-85660000D02*
X82747000Y-85660000D01*
X90102000Y-85620000D02*
X82618000Y-85620000D01*
X90227000Y-85580000D02*
X82493000Y-85580000D01*
X90348000Y-85540000D02*
X82372000Y-85540000D01*
X90465000Y-85500000D02*
X82255000Y-85500000D01*
X90578000Y-85460000D02*
X82142000Y-85460000D01*
X90688000Y-85420000D02*
X82032000Y-85420000D01*
X90795000Y-85380000D02*
X81925000Y-85380000D01*
X90899000Y-85340000D02*
X81821000Y-85340000D01*
X91001000Y-85300000D02*
X81719000Y-85300000D01*
X91100000Y-85260000D02*
X81620000Y-85260000D01*
X91196000Y-85220000D02*
X81524000Y-85220000D01*
X91291000Y-85180000D02*
X81429000Y-85180000D01*
X91383000Y-85140000D02*
X81337000Y-85140000D01*
X91474000Y-85100000D02*
X81246000Y-85100000D01*
X91562000Y-85060000D02*
X81158000Y-85060000D01*
X91649000Y-85020000D02*
X81071000Y-85020000D01*
X91734000Y-84980000D02*
X80986000Y-84980000D01*
X91817000Y-84940000D02*
X80903000Y-84940000D01*
X91899000Y-84900000D02*
X80821000Y-84900000D01*
X91980000Y-84860000D02*
X80740000Y-84860000D01*
X92059000Y-84820000D02*
X80661000Y-84820000D01*
X92136000Y-84780000D02*
X80584000Y-84780000D01*
X92213000Y-84740000D02*
X80507000Y-84740000D01*
X92288000Y-84700000D02*
X80432000Y-84700000D01*
X92362000Y-84660000D02*
X80358000Y-84660000D01*
X92435000Y-84620000D02*
X80285000Y-84620000D01*
X92506000Y-84580000D02*
X80214000Y-84580000D01*
X92577000Y-84540000D02*
X80143000Y-84540000D01*
X92646000Y-84500000D02*
X80074000Y-84500000D01*
X92715000Y-84460000D02*
X80005000Y-84460000D01*
X92783000Y-84420000D02*
X79937000Y-84420000D01*
X92849000Y-84380000D02*
X79871000Y-84380000D01*
X92915000Y-84340000D02*
X79805000Y-84340000D01*
X92980000Y-84300000D02*
X79740000Y-84300000D01*
X93044000Y-84260000D02*
X79676000Y-84260000D01*
X93107000Y-84220000D02*
X79613000Y-84220000D01*
X93169000Y-84180000D02*
X79551000Y-84180000D01*
X93231000Y-84140000D02*
X79489000Y-84140000D01*
X93291000Y-84100000D02*
X79429000Y-84100000D01*
X93351000Y-84060000D02*
X79369000Y-84060000D01*
X93411000Y-84020000D02*
X79309000Y-84020000D01*
X93469000Y-83980000D02*
X79251000Y-83980000D01*
X93527000Y-83940000D02*
X79193000Y-83940000D01*
X93584000Y-83900000D02*
X79136000Y-83900000D01*
X93641000Y-83860000D02*
X79079000Y-83860000D01*
X93697000Y-83820000D02*
X79023000Y-83820000D01*
X93752000Y-83780000D02*
X78968000Y-83780000D01*
X93806000Y-83740000D02*
X78914000Y-83740000D01*
X93860000Y-83700000D02*
X78860000Y-83700000D01*
X93914000Y-83660000D02*
X78806000Y-83660000D01*
X93967000Y-83620000D02*
X78753000Y-83620000D01*
X94019000Y-83580000D02*
X78701000Y-83580000D01*
X94071000Y-83540000D02*
X78649000Y-83540000D01*
X94122000Y-83500000D02*
X78598000Y-83500000D01*
X94172000Y-83460000D02*
X78548000Y-83460000D01*
X94222000Y-83420000D02*
X78498000Y-83420000D01*
X94272000Y-83380000D02*
X78448000Y-83380000D01*
X94321000Y-83340000D02*
X78399000Y-83340000D01*
X94369000Y-83300000D02*
X78351000Y-83300000D01*
X94418000Y-83260000D02*
X78302000Y-83260000D01*
X94465000Y-83220000D02*
X78255000Y-83220000D01*
X94512000Y-83180000D02*
X78208000Y-83180000D01*
X94559000Y-83140000D02*
X78161000Y-83140000D01*
X94605000Y-83100000D02*
X78115000Y-83100000D01*
X94651000Y-83060000D02*
X78069000Y-83060000D01*
X94696000Y-83020000D02*
X78024000Y-83020000D01*
X94741000Y-82980000D02*
X77979000Y-82980000D01*
X94785000Y-82940000D02*
X77935000Y-82940000D01*
X94829000Y-82900000D02*
X77891000Y-82900000D01*
X94873000Y-82860000D02*
X77847000Y-82860000D01*
X94916000Y-82820000D02*
X77804000Y-82820000D01*
X94959000Y-82780000D02*
X77761000Y-82780000D01*
X95001000Y-82740000D02*
X77719000Y-82740000D01*
X95043000Y-82700000D02*
X77677000Y-82700000D01*
X95085000Y-82660000D02*
X77635000Y-82660000D01*
X95126000Y-82620000D02*
X77594000Y-82620000D01*
X95167000Y-82580000D02*
X77553000Y-82580000D01*
X95208000Y-82540000D02*
X77512000Y-82540000D01*
X95248000Y-82500000D02*
X77472000Y-82500000D01*
X95288000Y-82460000D02*
X77432000Y-82460000D01*
X95327000Y-82420000D02*
X77393000Y-82420000D01*
X95366000Y-82380000D02*
X77354000Y-82380000D01*
X95405000Y-82340000D02*
X77315000Y-82340000D01*
X95443000Y-82300000D02*
X77277000Y-82300000D01*
X95481000Y-82260000D02*
X77239000Y-82260000D01*
X95519000Y-82220000D02*
X77201000Y-82220000D01*
X95557000Y-82180000D02*
X77163000Y-82180000D01*
X95594000Y-82140000D02*
X77126000Y-82140000D01*
X95630000Y-82100000D02*
X77090000Y-82100000D01*
X95667000Y-82060000D02*
X77053000Y-82060000D01*
X95703000Y-82020000D02*
X77017000Y-82020000D01*
X95739000Y-81980000D02*
X76981000Y-81980000D01*
X95774000Y-81940000D02*
X76946000Y-81940000D01*
X95810000Y-81900000D02*
X76910000Y-81900000D01*
X95844000Y-81860000D02*
X76876000Y-81860000D01*
X95879000Y-81820000D02*
X76841000Y-81820000D01*
X95913000Y-81780000D02*
X76807000Y-81780000D01*
X95947000Y-81741000D02*
X76773000Y-81741000D01*
X95981000Y-81701000D02*
X76739000Y-81701000D01*
X96015000Y-81661000D02*
X76705000Y-81661000D01*
X96048000Y-81621000D02*
X76672000Y-81621000D01*
X96081000Y-81581000D02*
X76639000Y-81581000D01*
X96113000Y-81541000D02*
X76607000Y-81541000D01*
X96146000Y-81501000D02*
X76574000Y-81501000D01*
X96178000Y-81461000D02*
X76542000Y-81461000D01*
X96210000Y-81421000D02*
X76510000Y-81421000D01*
X96241000Y-81381000D02*
X76479000Y-81381000D01*
X96273000Y-81341000D02*
X76447000Y-81341000D01*
X96304000Y-81301000D02*
X76416000Y-81301000D01*
X96335000Y-81261000D02*
X76385000Y-81261000D01*
X96365000Y-81221000D02*
X76355000Y-81221000D01*
X96395000Y-81181000D02*
X76325000Y-81181000D01*
X96425000Y-81141000D02*
X76295000Y-81141000D01*
X96455000Y-81101000D02*
X76265000Y-81101000D01*
X96485000Y-81061000D02*
X76235000Y-81061000D01*
X96514000Y-81021000D02*
X76206000Y-81021000D01*
X96543000Y-80981000D02*
X76177000Y-80981000D01*
X96572000Y-80941000D02*
X76148000Y-80941000D01*
X96601000Y-80901000D02*
X76119000Y-80901000D01*
X96629000Y-80861000D02*
X76091000Y-80861000D01*
X96657000Y-80821000D02*
X76063000Y-80821000D01*
X84120000Y-80781000D02*
X76035000Y-80781000D01*
X96685000Y-80781000D02*
X88600000Y-80781000D01*
X84120000Y-80741000D02*
X76007000Y-80741000D01*
X96713000Y-80741000D02*
X88600000Y-80741000D01*
X84120000Y-80701000D02*
X75980000Y-80701000D01*
X96740000Y-80701000D02*
X88600000Y-80701000D01*
X84120000Y-80661000D02*
X75953000Y-80661000D01*
X96767000Y-80661000D02*
X88600000Y-80661000D01*
X84120000Y-80621000D02*
X75926000Y-80621000D01*
X96794000Y-80621000D02*
X88600000Y-80621000D01*
X84120000Y-80581000D02*
X75899000Y-80581000D01*
X96821000Y-80581000D02*
X88600000Y-80581000D01*
X84120000Y-80541000D02*
X75872000Y-80541000D01*
X96848000Y-80541000D02*
X88600000Y-80541000D01*
X84120000Y-80501000D02*
X75846000Y-80501000D01*
X96874000Y-80501000D02*
X88600000Y-80501000D01*
X84120000Y-80461000D02*
X75820000Y-80461000D01*
X96900000Y-80461000D02*
X88600000Y-80461000D01*
X84120000Y-80421000D02*
X75794000Y-80421000D01*
X96926000Y-80421000D02*
X88600000Y-80421000D01*
X84120000Y-80381000D02*
X75768000Y-80381000D01*
X96952000Y-80381000D02*
X88600000Y-80381000D01*
X84120000Y-80341000D02*
X75743000Y-80341000D01*
X96977000Y-80341000D02*
X88600000Y-80341000D01*
X84120000Y-80301000D02*
X75717000Y-80301000D01*
X97003000Y-80301000D02*
X88600000Y-80301000D01*
X84120000Y-80261000D02*
X75692000Y-80261000D01*
X97028000Y-80261000D02*
X88600000Y-80261000D01*
X84120000Y-80221000D02*
X75668000Y-80221000D01*
X97052000Y-80221000D02*
X88600000Y-80221000D01*
X84120000Y-80181000D02*
X75643000Y-80181000D01*
X97077000Y-80181000D02*
X88600000Y-80181000D01*
X84120000Y-80141000D02*
X75618000Y-80141000D01*
X97102000Y-80141000D02*
X88600000Y-80141000D01*
X84120000Y-80101000D02*
X75594000Y-80101000D01*
X97126000Y-80101000D02*
X88600000Y-80101000D01*
X84120000Y-80061000D02*
X75570000Y-80061000D01*
X97150000Y-80061000D02*
X88600000Y-80061000D01*
X84120000Y-80021000D02*
X75546000Y-80021000D01*
X97174000Y-80021000D02*
X88600000Y-80021000D01*
X84120000Y-79981000D02*
X75523000Y-79981000D01*
X97197000Y-79981000D02*
X88600000Y-79981000D01*
X84120000Y-79941000D02*
X75499000Y-79941000D01*
X97221000Y-79941000D02*
X88600000Y-79941000D01*
X84120000Y-79901000D02*
X75476000Y-79901000D01*
X97244000Y-79901000D02*
X88600000Y-79901000D01*
X84120000Y-79861000D02*
X75453000Y-79861000D01*
X97267000Y-79861000D02*
X88600000Y-79861000D01*
X84120000Y-79821000D02*
X75430000Y-79821000D01*
X97290000Y-79821000D02*
X88600000Y-79821000D01*
X84120000Y-79781000D02*
X75407000Y-79781000D01*
X97313000Y-79781000D02*
X88600000Y-79781000D01*
X84120000Y-79741000D02*
X75385000Y-79741000D01*
X97335000Y-79741000D02*
X88600000Y-79741000D01*
X84120000Y-79701000D02*
X75363000Y-79701000D01*
X97357000Y-79701000D02*
X88600000Y-79701000D01*
X84120000Y-79661000D02*
X75341000Y-79661000D01*
X97379000Y-79661000D02*
X88600000Y-79661000D01*
X84120000Y-79621000D02*
X75319000Y-79621000D01*
X97401000Y-79621000D02*
X88600000Y-79621000D01*
X84120000Y-79581000D02*
X75297000Y-79581000D01*
X97423000Y-79581000D02*
X88600000Y-79581000D01*
X84120000Y-79541000D02*
X75276000Y-79541000D01*
X97444000Y-79541000D02*
X88600000Y-79541000D01*
X84120000Y-79501000D02*
X75254000Y-79501000D01*
X97466000Y-79501000D02*
X88600000Y-79501000D01*
X84120000Y-79461000D02*
X75233000Y-79461000D01*
X97487000Y-79461000D02*
X88600000Y-79461000D01*
X84120000Y-79421000D02*
X75212000Y-79421000D01*
X97508000Y-79421000D02*
X88600000Y-79421000D01*
X84120000Y-79381000D02*
X75191000Y-79381000D01*
X97529000Y-79381000D02*
X88600000Y-79381000D01*
X84120000Y-79341000D02*
X75171000Y-79341000D01*
X97549000Y-79341000D02*
X88600000Y-79341000D01*
X84120000Y-79301000D02*
X75150000Y-79301000D01*
X97570000Y-79301000D02*
X88600000Y-79301000D01*
X84120000Y-79261000D02*
X75130000Y-79261000D01*
X97590000Y-79261000D02*
X88600000Y-79261000D01*
X84120000Y-79221000D02*
X75110000Y-79221000D01*
X97610000Y-79221000D02*
X88600000Y-79221000D01*
X84120000Y-79181000D02*
X75090000Y-79181000D01*
X97630000Y-79181000D02*
X88600000Y-79181000D01*
X84120000Y-79141000D02*
X75070000Y-79141000D01*
X97650000Y-79141000D02*
X88600000Y-79141000D01*
X84120000Y-79101000D02*
X75051000Y-79101000D01*
X97669000Y-79101000D02*
X88600000Y-79101000D01*
X84120000Y-79061000D02*
X75031000Y-79061000D01*
X97689000Y-79061000D02*
X88600000Y-79061000D01*
X84120000Y-79021000D02*
X75012000Y-79021000D01*
X97708000Y-79021000D02*
X88600000Y-79021000D01*
X84120000Y-78981000D02*
X74993000Y-78981000D01*
X97727000Y-78981000D02*
X88600000Y-78981000D01*
X84120000Y-78941000D02*
X74974000Y-78941000D01*
X97746000Y-78941000D02*
X88600000Y-78941000D01*
X84120000Y-78901000D02*
X74956000Y-78901000D01*
X97764000Y-78901000D02*
X88600000Y-78901000D01*
X84120000Y-78861000D02*
X74937000Y-78861000D01*
X97783000Y-78861000D02*
X88600000Y-78861000D01*
X84120000Y-78821000D02*
X74919000Y-78821000D01*
X97801000Y-78821000D02*
X88600000Y-78821000D01*
X84120000Y-78781000D02*
X74901000Y-78781000D01*
X97819000Y-78781000D02*
X88600000Y-78781000D01*
X84120000Y-78741000D02*
X74883000Y-78741000D01*
X97837000Y-78741000D02*
X88600000Y-78741000D01*
X84120000Y-78701000D02*
X74865000Y-78701000D01*
X97855000Y-78701000D02*
X88600000Y-78701000D01*
X84120000Y-78661000D02*
X74847000Y-78661000D01*
X97873000Y-78661000D02*
X88600000Y-78661000D01*
X84120000Y-78621000D02*
X74830000Y-78621000D01*
X97890000Y-78621000D02*
X88600000Y-78621000D01*
X84120000Y-78581000D02*
X74812000Y-78581000D01*
X97908000Y-78581000D02*
X88600000Y-78581000D01*
X84120000Y-78541000D02*
X74795000Y-78541000D01*
X97925000Y-78541000D02*
X88600000Y-78541000D01*
X84120000Y-78501000D02*
X74778000Y-78501000D01*
X97942000Y-78501000D02*
X88600000Y-78501000D01*
X84120000Y-78461000D02*
X74761000Y-78461000D01*
X97959000Y-78461000D02*
X88600000Y-78461000D01*
X84120000Y-78421000D02*
X74745000Y-78421000D01*
X97975000Y-78421000D02*
X88600000Y-78421000D01*
X84120000Y-78381000D02*
X74728000Y-78381000D01*
X97992000Y-78381000D02*
X88600000Y-78381000D01*
X84120000Y-78341000D02*
X74712000Y-78341000D01*
X98008000Y-78341000D02*
X88600000Y-78341000D01*
X84120000Y-78301000D02*
X74695000Y-78301000D01*
X98025000Y-78301000D02*
X88600000Y-78301000D01*
X84120000Y-78261000D02*
X74679000Y-78261000D01*
X98041000Y-78261000D02*
X88600000Y-78261000D01*
X84120000Y-78221000D02*
X74663000Y-78221000D01*
X98057000Y-78221000D02*
X88600000Y-78221000D01*
X84120000Y-78181000D02*
X74648000Y-78181000D01*
X98072000Y-78181000D02*
X88600000Y-78181000D01*
X84120000Y-78141000D02*
X74632000Y-78141000D01*
X98088000Y-78141000D02*
X88600000Y-78141000D01*
X84120000Y-78101000D02*
X74617000Y-78101000D01*
X98103000Y-78101000D02*
X88600000Y-78101000D01*
X84120000Y-78061000D02*
X74601000Y-78061000D01*
X98119000Y-78061000D02*
X88600000Y-78061000D01*
X84120000Y-78021000D02*
X74586000Y-78021000D01*
X98134000Y-78021000D02*
X88600000Y-78021000D01*
X84120000Y-77981000D02*
X74571000Y-77981000D01*
X98149000Y-77981000D02*
X88600000Y-77981000D01*
X84120000Y-77941000D02*
X74557000Y-77941000D01*
X98163000Y-77941000D02*
X88600000Y-77941000D01*
X84120000Y-77901000D02*
X74542000Y-77901000D01*
X98178000Y-77901000D02*
X88600000Y-77901000D01*
X84120000Y-77861000D02*
X74527000Y-77861000D01*
X98193000Y-77861000D02*
X88600000Y-77861000D01*
X84120000Y-77821000D02*
X74513000Y-77821000D01*
X98207000Y-77821000D02*
X88600000Y-77821000D01*
X84120000Y-77781000D02*
X74499000Y-77781000D01*
X98221000Y-77781000D02*
X88600000Y-77781000D01*
X84120000Y-77741000D02*
X74485000Y-77741000D01*
X98235000Y-77741000D02*
X88600000Y-77741000D01*
X84120000Y-77701000D02*
X74471000Y-77701000D01*
X98249000Y-77701000D02*
X88600000Y-77701000D01*
X84120000Y-77661000D02*
X74457000Y-77661000D01*
X98263000Y-77661000D02*
X88600000Y-77661000D01*
X84120000Y-77621000D02*
X74444000Y-77621000D01*
X98276000Y-77621000D02*
X88600000Y-77621000D01*
X84120000Y-77581000D02*
X74430000Y-77581000D01*
X98290000Y-77581000D02*
X88600000Y-77581000D01*
X84120000Y-77541000D02*
X74417000Y-77541000D01*
X98303000Y-77541000D02*
X88600000Y-77541000D01*
X84120000Y-77501000D02*
X74404000Y-77501000D01*
X98316000Y-77501000D02*
X88600000Y-77501000D01*
X84120000Y-77461000D02*
X74391000Y-77461000D01*
X98329000Y-77461000D02*
X88600000Y-77461000D01*
X84120000Y-77421000D02*
X74378000Y-77421000D01*
X98342000Y-77421000D02*
X88600000Y-77421000D01*
X84120000Y-77381000D02*
X74365000Y-77381000D01*
X98355000Y-77381000D02*
X88600000Y-77381000D01*
X84120000Y-77341000D02*
X74353000Y-77341000D01*
X98367000Y-77341000D02*
X88600000Y-77341000D01*
X84120000Y-77301000D02*
X74340000Y-77301000D01*
X98380000Y-77301000D02*
X88600000Y-77301000D01*
X84120000Y-77261000D02*
X74328000Y-77261000D01*
X98392000Y-77261000D02*
X88600000Y-77261000D01*
X84120000Y-77221000D02*
X74316000Y-77221000D01*
X98404000Y-77221000D02*
X88600000Y-77221000D01*
X84120000Y-77181000D02*
X74304000Y-77181000D01*
X98416000Y-77181000D02*
X88600000Y-77181000D01*
X84120000Y-77141000D02*
X74292000Y-77141000D01*
X98428000Y-77141000D02*
X88600000Y-77141000D01*
X84120000Y-77101000D02*
X74280000Y-77101000D01*
X98440000Y-77101000D02*
X88600000Y-77101000D01*
X84120000Y-77061000D02*
X74269000Y-77061000D01*
X98451000Y-77061000D02*
X88600000Y-77061000D01*
X84120000Y-77021000D02*
X74257000Y-77021000D01*
X98463000Y-77021000D02*
X88600000Y-77021000D01*
X84120000Y-76981000D02*
X74246000Y-76981000D01*
X98474000Y-76981000D02*
X88600000Y-76981000D01*
X84120000Y-76941000D02*
X74235000Y-76941000D01*
X98485000Y-76941000D02*
X88600000Y-76941000D01*
X84120000Y-76901000D02*
X74224000Y-76901000D01*
X98496000Y-76901000D02*
X88600000Y-76901000D01*
X84120000Y-76861000D02*
X74213000Y-76861000D01*
X98507000Y-76861000D02*
X88600000Y-76861000D01*
X84120000Y-76821000D02*
X74203000Y-76821000D01*
X98517000Y-76821000D02*
X88600000Y-76821000D01*
X84120000Y-76781000D02*
X74192000Y-76781000D01*
X98528000Y-76781000D02*
X88600000Y-76781000D01*
X84120000Y-76741000D02*
X74182000Y-76741000D01*
X98538000Y-76741000D02*
X88600000Y-76741000D01*
X84120000Y-76701000D02*
X74171000Y-76701000D01*
X98549000Y-76701000D02*
X88600000Y-76701000D01*
X84120000Y-76661000D02*
X74161000Y-76661000D01*
X98559000Y-76661000D02*
X88600000Y-76661000D01*
X84120000Y-76621000D02*
X74151000Y-76621000D01*
X98569000Y-76621000D02*
X88600000Y-76621000D01*
X84120000Y-76581000D02*
X74141000Y-76581000D01*
X98579000Y-76581000D02*
X88600000Y-76581000D01*
X84120000Y-76541000D02*
X74132000Y-76541000D01*
X98588000Y-76541000D02*
X88600000Y-76541000D01*
X84120000Y-76501000D02*
X74122000Y-76501000D01*
X98598000Y-76501000D02*
X88600000Y-76501000D01*
X84120000Y-76461000D02*
X74113000Y-76461000D01*
X98607000Y-76461000D02*
X88600000Y-76461000D01*
X84120000Y-76421000D02*
X74103000Y-76421000D01*
X98617000Y-76421000D02*
X88600000Y-76421000D01*
X84120000Y-76381000D02*
X74094000Y-76381000D01*
X98626000Y-76381000D02*
X88600000Y-76381000D01*
X84120000Y-76341000D02*
X74085000Y-76341000D01*
X98635000Y-76341000D02*
X88600000Y-76341000D01*
X98644000Y-76301000D02*
X74076000Y-76301000D01*
X98653000Y-76261000D02*
X74067000Y-76261000D01*
X98661000Y-76221000D02*
X74059000Y-76221000D01*
X98670000Y-76181000D02*
X74050000Y-76181000D01*
X98678000Y-76141000D02*
X74042000Y-76141000D01*
X98686000Y-76101000D02*
X74034000Y-76101000D01*
X98694000Y-76061000D02*
X74026000Y-76061000D01*
X98702000Y-76021000D02*
X74018000Y-76021000D01*
X98710000Y-75981000D02*
X74010000Y-75981000D01*
X98718000Y-75941000D02*
X74002000Y-75941000D01*
X98725000Y-75901000D02*
X73995000Y-75901000D01*
X98733000Y-75861000D02*
X73987000Y-75861000D01*
X98740000Y-75821000D02*
X73980000Y-75821000D01*
X98747000Y-75781000D02*
X73973000Y-75781000D01*
X98754000Y-75741000D02*
X73966000Y-75741000D01*
X98761000Y-75701000D02*
X73959000Y-75701000D01*
X98768000Y-75661000D02*
X73952000Y-75661000D01*
X98775000Y-75621000D02*
X73945000Y-75621000D01*
X98781000Y-75581000D02*
X73939000Y-75581000D01*
X98787000Y-75541000D02*
X73933000Y-75541000D01*
X98794000Y-75501000D02*
X73926000Y-75501000D01*
X98800000Y-75461000D02*
X73920000Y-75461000D01*
X98806000Y-75421000D02*
X73914000Y-75421000D01*
X98811000Y-75381000D02*
X73909000Y-75381000D01*
X98817000Y-75341000D02*
X73903000Y-75341000D01*
X98823000Y-75301000D02*
X73897000Y-75301000D01*
X98828000Y-75261000D02*
X73892000Y-75261000D01*
X98833000Y-75221000D02*
X73887000Y-75221000D01*
X98839000Y-75181000D02*
X73881000Y-75181000D01*
X98844000Y-75141000D02*
X73876000Y-75141000D01*
X98849000Y-75101000D02*
X73871000Y-75101000D01*
X98853000Y-75061000D02*
X73867000Y-75061000D01*
X98858000Y-75021000D02*
X73862000Y-75021000D01*
X98863000Y-74981000D02*
X73857000Y-74981000D01*
X98867000Y-74941000D02*
X73853000Y-74941000D01*
X98871000Y-74901000D02*
X73849000Y-74901000D01*
X98875000Y-74861000D02*
X73845000Y-74861000D01*
X98879000Y-74821000D02*
X73841000Y-74821000D01*
X98883000Y-74781000D02*
X73837000Y-74781000D01*
X98887000Y-74741000D02*
X73833000Y-74741000D01*
X98891000Y-74701000D02*
X73829000Y-74701000D01*
X98894000Y-74661000D02*
X73826000Y-74661000D01*
X98898000Y-74621000D02*
X73822000Y-74621000D01*
X98901000Y-74581000D02*
X73819000Y-74581000D01*
X98904000Y-74541000D02*
X73816000Y-74541000D01*
X98907000Y-74501000D02*
X73813000Y-74501000D01*
X98910000Y-74461000D02*
X73810000Y-74461000D01*
X98913000Y-74421000D02*
X73807000Y-74421000D01*
X98915000Y-74381000D02*
X73805000Y-74381000D01*
X98918000Y-74341000D02*
X73802000Y-74341000D01*
X98920000Y-74301000D02*
X73800000Y-74301000D01*
X98922000Y-74260000D02*
X73798000Y-74260000D01*
X98924000Y-74220000D02*
X73796000Y-74220000D01*
X98926000Y-74180000D02*
X73794000Y-74180000D01*
X98928000Y-74140000D02*
X73792000Y-74140000D01*
X98930000Y-74100000D02*
X73790000Y-74100000D01*
X98931000Y-74060000D02*
X73789000Y-74060000D01*
X98933000Y-74020000D02*
X73787000Y-74020000D01*
X98934000Y-73980000D02*
X73786000Y-73980000D01*
X98935000Y-73940000D02*
X73785000Y-73940000D01*
X98936000Y-73900000D02*
X73784000Y-73900000D01*
X98937000Y-73860000D02*
X73783000Y-73860000D01*
X98938000Y-73820000D02*
X73782000Y-73820000D01*
X98939000Y-73780000D02*
X73781000Y-73780000D01*
X98939000Y-73740000D02*
X73781000Y-73740000D01*
X98940000Y-73700000D02*
X73780000Y-73700000D01*
X98940000Y-73660000D02*
X73780000Y-73660000D01*
X98940000Y-73620000D02*
X73780000Y-73620000D01*
X98941000Y-73580000D02*
X73779000Y-73580000D01*
X98980000Y-73580000D02*
G75*
G03X98980000Y-73580000I-12620000J0D01*
G01*
X39010000Y-118712064D02*
X39010000Y-117507936D01*
X37190000Y-118712064D02*
X37190000Y-117507936D01*
X54250000Y-93312064D02*
X54250000Y-92107936D01*
X52430000Y-93312064D02*
X52430000Y-92107936D01*
X57752064Y-82910000D02*
X56547936Y-82910000D01*
X57752064Y-84730000D02*
X56547936Y-84730000D01*
D12*
X231767142Y-44982380D02*
X231433809Y-44506190D01*
X231195714Y-44982380D02*
X231195714Y-43982380D01*
X231576666Y-43982380D01*
X231671904Y-44030000D01*
X231719523Y-44077619D01*
X231767142Y-44172857D01*
X231767142Y-44315714D01*
X231719523Y-44410952D01*
X231671904Y-44458571D01*
X231576666Y-44506190D01*
X231195714Y-44506190D01*
X232148095Y-44077619D02*
X232195714Y-44030000D01*
X232290952Y-43982380D01*
X232529047Y-43982380D01*
X232624285Y-44030000D01*
X232671904Y-44077619D01*
X232719523Y-44172857D01*
X232719523Y-44268095D01*
X232671904Y-44410952D01*
X232100476Y-44982380D01*
X232719523Y-44982380D01*
X233576666Y-44315714D02*
X233576666Y-44982380D01*
X233338571Y-43934761D02*
X233100476Y-44649047D01*
X233719523Y-44649047D01*
X152352380Y-155701904D02*
X153161904Y-155701904D01*
X153257142Y-155654285D01*
X153304761Y-155606666D01*
X153352380Y-155511428D01*
X153352380Y-155320952D01*
X153304761Y-155225714D01*
X153257142Y-155178095D01*
X153161904Y-155130476D01*
X152352380Y-155130476D01*
X153352380Y-154130476D02*
X153352380Y-154701904D01*
X153352380Y-154416190D02*
X152352380Y-154416190D01*
X152495238Y-154511428D01*
X152590476Y-154606666D01*
X152638095Y-154701904D01*
X51308095Y-101412380D02*
X51308095Y-102221904D01*
X51355714Y-102317142D01*
X51403333Y-102364761D01*
X51498571Y-102412380D01*
X51689047Y-102412380D01*
X51784285Y-102364761D01*
X51831904Y-102317142D01*
X51879523Y-102221904D01*
X51879523Y-101412380D01*
X52403333Y-102412380D02*
X52593809Y-102412380D01*
X52689047Y-102364761D01*
X52736666Y-102317142D01*
X52831904Y-102174285D01*
X52879523Y-101983809D01*
X52879523Y-101602857D01*
X52831904Y-101507619D01*
X52784285Y-101460000D01*
X52689047Y-101412380D01*
X52498571Y-101412380D01*
X52403333Y-101460000D01*
X52355714Y-101507619D01*
X52308095Y-101602857D01*
X52308095Y-101840952D01*
X52355714Y-101936190D01*
X52403333Y-101983809D01*
X52498571Y-102031428D01*
X52689047Y-102031428D01*
X52784285Y-101983809D01*
X52831904Y-101936190D01*
X52879523Y-101840952D01*
X52578095Y-65582380D02*
X52578095Y-66391904D01*
X52625714Y-66487142D01*
X52673333Y-66534761D01*
X52768571Y-66582380D01*
X52959047Y-66582380D01*
X53054285Y-66534761D01*
X53101904Y-66487142D01*
X53149523Y-66391904D01*
X53149523Y-65582380D01*
X53768571Y-66010952D02*
X53673333Y-65963333D01*
X53625714Y-65915714D01*
X53578095Y-65820476D01*
X53578095Y-65772857D01*
X53625714Y-65677619D01*
X53673333Y-65630000D01*
X53768571Y-65582380D01*
X53959047Y-65582380D01*
X54054285Y-65630000D01*
X54101904Y-65677619D01*
X54149523Y-65772857D01*
X54149523Y-65820476D01*
X54101904Y-65915714D01*
X54054285Y-65963333D01*
X53959047Y-66010952D01*
X53768571Y-66010952D01*
X53673333Y-66058571D01*
X53625714Y-66106190D01*
X53578095Y-66201428D01*
X53578095Y-66391904D01*
X53625714Y-66487142D01*
X53673333Y-66534761D01*
X53768571Y-66582380D01*
X53959047Y-66582380D01*
X54054285Y-66534761D01*
X54101904Y-66487142D01*
X54149523Y-66391904D01*
X54149523Y-66201428D01*
X54101904Y-66106190D01*
X54054285Y-66058571D01*
X53959047Y-66010952D01*
X212598095Y-101042380D02*
X212598095Y-101851904D01*
X212645714Y-101947142D01*
X212693333Y-101994761D01*
X212788571Y-102042380D01*
X212979047Y-102042380D01*
X213074285Y-101994761D01*
X213121904Y-101947142D01*
X213169523Y-101851904D01*
X213169523Y-101042380D01*
X213550476Y-101042380D02*
X214217142Y-101042380D01*
X213788571Y-102042380D01*
X170042380Y-41401904D02*
X170851904Y-41401904D01*
X170947142Y-41354285D01*
X170994761Y-41306666D01*
X171042380Y-41211428D01*
X171042380Y-41020952D01*
X170994761Y-40925714D01*
X170947142Y-40878095D01*
X170851904Y-40830476D01*
X170042380Y-40830476D01*
X170042380Y-39925714D02*
X170042380Y-40116190D01*
X170090000Y-40211428D01*
X170137619Y-40259047D01*
X170280476Y-40354285D01*
X170470952Y-40401904D01*
X170851904Y-40401904D01*
X170947142Y-40354285D01*
X170994761Y-40306666D01*
X171042380Y-40211428D01*
X171042380Y-40020952D01*
X170994761Y-39925714D01*
X170947142Y-39878095D01*
X170851904Y-39830476D01*
X170613809Y-39830476D01*
X170518571Y-39878095D01*
X170470952Y-39925714D01*
X170423333Y-40020952D01*
X170423333Y-40211428D01*
X170470952Y-40306666D01*
X170518571Y-40354285D01*
X170613809Y-40401904D01*
X120512380Y-42671904D02*
X121321904Y-42671904D01*
X121417142Y-42624285D01*
X121464761Y-42576666D01*
X121512380Y-42481428D01*
X121512380Y-42290952D01*
X121464761Y-42195714D01*
X121417142Y-42148095D01*
X121321904Y-42100476D01*
X120512380Y-42100476D01*
X120512380Y-41148095D02*
X120512380Y-41624285D01*
X120988571Y-41671904D01*
X120940952Y-41624285D01*
X120893333Y-41529047D01*
X120893333Y-41290952D01*
X120940952Y-41195714D01*
X120988571Y-41148095D01*
X121083809Y-41100476D01*
X121321904Y-41100476D01*
X121417142Y-41148095D01*
X121464761Y-41195714D01*
X121512380Y-41290952D01*
X121512380Y-41529047D01*
X121464761Y-41624285D01*
X121417142Y-41671904D01*
X46638095Y-40407380D02*
X46638095Y-41216904D01*
X46685714Y-41312142D01*
X46733333Y-41359761D01*
X46828571Y-41407380D01*
X47019047Y-41407380D01*
X47114285Y-41359761D01*
X47161904Y-41312142D01*
X47209523Y-41216904D01*
X47209523Y-40407380D01*
X48114285Y-40740714D02*
X48114285Y-41407380D01*
X47876190Y-40359761D02*
X47638095Y-41074047D01*
X48257142Y-41074047D01*
X46228095Y-117562380D02*
X46228095Y-118371904D01*
X46275714Y-118467142D01*
X46323333Y-118514761D01*
X46418571Y-118562380D01*
X46609047Y-118562380D01*
X46704285Y-118514761D01*
X46751904Y-118467142D01*
X46799523Y-118371904D01*
X46799523Y-117562380D01*
X47180476Y-117562380D02*
X47799523Y-117562380D01*
X47466190Y-117943333D01*
X47609047Y-117943333D01*
X47704285Y-117990952D01*
X47751904Y-118038571D01*
X47799523Y-118133809D01*
X47799523Y-118371904D01*
X47751904Y-118467142D01*
X47704285Y-118514761D01*
X47609047Y-118562380D01*
X47323333Y-118562380D01*
X47228095Y-118514761D01*
X47180476Y-118467142D01*
X59502380Y-93471904D02*
X60311904Y-93471904D01*
X60407142Y-93424285D01*
X60454761Y-93376666D01*
X60502380Y-93281428D01*
X60502380Y-93090952D01*
X60454761Y-92995714D01*
X60407142Y-92948095D01*
X60311904Y-92900476D01*
X59502380Y-92900476D01*
X59597619Y-92471904D02*
X59550000Y-92424285D01*
X59502380Y-92329047D01*
X59502380Y-92090952D01*
X59550000Y-91995714D01*
X59597619Y-91948095D01*
X59692857Y-91900476D01*
X59788095Y-91900476D01*
X59930952Y-91948095D01*
X60502380Y-92519523D01*
X60502380Y-91900476D01*
X66048095Y-97242380D02*
X66619523Y-97242380D01*
X66333809Y-98242380D02*
X66333809Y-97242380D01*
X66952857Y-98242380D02*
X66952857Y-97242380D01*
X67333809Y-97242380D01*
X67429047Y-97290000D01*
X67476666Y-97337619D01*
X67524285Y-97432857D01*
X67524285Y-97575714D01*
X67476666Y-97670952D01*
X67429047Y-97718571D01*
X67333809Y-97766190D01*
X66952857Y-97766190D01*
X67857619Y-97242380D02*
X68524285Y-97242380D01*
X68095714Y-98242380D01*
X52078095Y-108672380D02*
X52649523Y-108672380D01*
X52363809Y-109672380D02*
X52363809Y-108672380D01*
X52982857Y-109672380D02*
X52982857Y-108672380D01*
X53363809Y-108672380D01*
X53459047Y-108720000D01*
X53506666Y-108767619D01*
X53554285Y-108862857D01*
X53554285Y-109005714D01*
X53506666Y-109100952D01*
X53459047Y-109148571D01*
X53363809Y-109196190D01*
X52982857Y-109196190D01*
X54411428Y-108672380D02*
X54220952Y-108672380D01*
X54125714Y-108720000D01*
X54078095Y-108767619D01*
X53982857Y-108910476D01*
X53935238Y-109100952D01*
X53935238Y-109481904D01*
X53982857Y-109577142D01*
X54030476Y-109624761D01*
X54125714Y-109672380D01*
X54316190Y-109672380D01*
X54411428Y-109624761D01*
X54459047Y-109577142D01*
X54506666Y-109481904D01*
X54506666Y-109243809D01*
X54459047Y-109148571D01*
X54411428Y-109100952D01*
X54316190Y-109053333D01*
X54125714Y-109053333D01*
X54030476Y-109100952D01*
X53982857Y-109148571D01*
X53935238Y-109243809D01*
X68588095Y-78192380D02*
X69159523Y-78192380D01*
X68873809Y-79192380D02*
X68873809Y-78192380D01*
X69492857Y-79192380D02*
X69492857Y-78192380D01*
X69873809Y-78192380D01*
X69969047Y-78240000D01*
X70016666Y-78287619D01*
X70064285Y-78382857D01*
X70064285Y-78525714D01*
X70016666Y-78620952D01*
X69969047Y-78668571D01*
X69873809Y-78716190D01*
X69492857Y-78716190D01*
X70969047Y-78192380D02*
X70492857Y-78192380D01*
X70445238Y-78668571D01*
X70492857Y-78620952D01*
X70588095Y-78573333D01*
X70826190Y-78573333D01*
X70921428Y-78620952D01*
X70969047Y-78668571D01*
X71016666Y-78763809D01*
X71016666Y-79001904D01*
X70969047Y-79097142D01*
X70921428Y-79144761D01*
X70826190Y-79192380D01*
X70588095Y-79192380D01*
X70492857Y-79144761D01*
X70445238Y-79097142D01*
X181618095Y-34722380D02*
X182189523Y-34722380D01*
X181903809Y-35722380D02*
X181903809Y-34722380D01*
X182522857Y-35722380D02*
X182522857Y-34722380D01*
X182903809Y-34722380D01*
X182999047Y-34770000D01*
X183046666Y-34817619D01*
X183094285Y-34912857D01*
X183094285Y-35055714D01*
X183046666Y-35150952D01*
X182999047Y-35198571D01*
X182903809Y-35246190D01*
X182522857Y-35246190D01*
X183951428Y-35055714D02*
X183951428Y-35722380D01*
X183713333Y-34674761D02*
X183475238Y-35389047D01*
X184094285Y-35389047D01*
X133358095Y-35992380D02*
X133929523Y-35992380D01*
X133643809Y-36992380D02*
X133643809Y-35992380D01*
X134262857Y-36992380D02*
X134262857Y-35992380D01*
X134643809Y-35992380D01*
X134739047Y-36040000D01*
X134786666Y-36087619D01*
X134834285Y-36182857D01*
X134834285Y-36325714D01*
X134786666Y-36420952D01*
X134739047Y-36468571D01*
X134643809Y-36516190D01*
X134262857Y-36516190D01*
X135167619Y-35992380D02*
X135786666Y-35992380D01*
X135453333Y-36373333D01*
X135596190Y-36373333D01*
X135691428Y-36420952D01*
X135739047Y-36468571D01*
X135786666Y-36563809D01*
X135786666Y-36801904D01*
X135739047Y-36897142D01*
X135691428Y-36944761D01*
X135596190Y-36992380D01*
X135310476Y-36992380D01*
X135215238Y-36944761D01*
X135167619Y-36897142D01*
X163838095Y-34722380D02*
X164409523Y-34722380D01*
X164123809Y-35722380D02*
X164123809Y-34722380D01*
X164742857Y-35722380D02*
X164742857Y-34722380D01*
X165123809Y-34722380D01*
X165219047Y-34770000D01*
X165266666Y-34817619D01*
X165314285Y-34912857D01*
X165314285Y-35055714D01*
X165266666Y-35150952D01*
X165219047Y-35198571D01*
X165123809Y-35246190D01*
X164742857Y-35246190D01*
X165695238Y-34817619D02*
X165742857Y-34770000D01*
X165838095Y-34722380D01*
X166076190Y-34722380D01*
X166171428Y-34770000D01*
X166219047Y-34817619D01*
X166266666Y-34912857D01*
X166266666Y-35008095D01*
X166219047Y-35150952D01*
X165647619Y-35722380D01*
X166266666Y-35722380D01*
X115578095Y-35992380D02*
X116149523Y-35992380D01*
X115863809Y-36992380D02*
X115863809Y-35992380D01*
X116482857Y-36992380D02*
X116482857Y-35992380D01*
X116863809Y-35992380D01*
X116959047Y-36040000D01*
X117006666Y-36087619D01*
X117054285Y-36182857D01*
X117054285Y-36325714D01*
X117006666Y-36420952D01*
X116959047Y-36468571D01*
X116863809Y-36516190D01*
X116482857Y-36516190D01*
X118006666Y-36992380D02*
X117435238Y-36992380D01*
X117720952Y-36992380D02*
X117720952Y-35992380D01*
X117625714Y-36135238D01*
X117530476Y-36230476D01*
X117435238Y-36278095D01*
X60317142Y-76652380D02*
X59983809Y-76176190D01*
X59745714Y-76652380D02*
X59745714Y-75652380D01*
X60126666Y-75652380D01*
X60221904Y-75700000D01*
X60269523Y-75747619D01*
X60317142Y-75842857D01*
X60317142Y-75985714D01*
X60269523Y-76080952D01*
X60221904Y-76128571D01*
X60126666Y-76176190D01*
X59745714Y-76176190D01*
X60650476Y-75652380D02*
X61269523Y-75652380D01*
X60936190Y-76033333D01*
X61079047Y-76033333D01*
X61174285Y-76080952D01*
X61221904Y-76128571D01*
X61269523Y-76223809D01*
X61269523Y-76461904D01*
X61221904Y-76557142D01*
X61174285Y-76604761D01*
X61079047Y-76652380D01*
X60793333Y-76652380D01*
X60698095Y-76604761D01*
X60650476Y-76557142D01*
X62221904Y-76652380D02*
X61650476Y-76652380D01*
X61936190Y-76652380D02*
X61936190Y-75652380D01*
X61840952Y-75795238D01*
X61745714Y-75890476D01*
X61650476Y-75938095D01*
X61412380Y-73032857D02*
X60936190Y-73366190D01*
X61412380Y-73604285D02*
X60412380Y-73604285D01*
X60412380Y-73223333D01*
X60460000Y-73128095D01*
X60507619Y-73080476D01*
X60602857Y-73032857D01*
X60745714Y-73032857D01*
X60840952Y-73080476D01*
X60888571Y-73128095D01*
X60936190Y-73223333D01*
X60936190Y-73604285D01*
X60412380Y-72699523D02*
X60412380Y-72080476D01*
X60793333Y-72413809D01*
X60793333Y-72270952D01*
X60840952Y-72175714D01*
X60888571Y-72128095D01*
X60983809Y-72080476D01*
X61221904Y-72080476D01*
X61317142Y-72128095D01*
X61364761Y-72175714D01*
X61412380Y-72270952D01*
X61412380Y-72556666D01*
X61364761Y-72651904D01*
X61317142Y-72699523D01*
X60412380Y-71461428D02*
X60412380Y-71366190D01*
X60460000Y-71270952D01*
X60507619Y-71223333D01*
X60602857Y-71175714D01*
X60793333Y-71128095D01*
X61031428Y-71128095D01*
X61221904Y-71175714D01*
X61317142Y-71223333D01*
X61364761Y-71270952D01*
X61412380Y-71366190D01*
X61412380Y-71461428D01*
X61364761Y-71556666D01*
X61317142Y-71604285D01*
X61221904Y-71651904D01*
X61031428Y-71699523D01*
X60793333Y-71699523D01*
X60602857Y-71651904D01*
X60507619Y-71604285D01*
X60460000Y-71556666D01*
X60412380Y-71461428D01*
X51427142Y-71572380D02*
X51093809Y-71096190D01*
X50855714Y-71572380D02*
X50855714Y-70572380D01*
X51236666Y-70572380D01*
X51331904Y-70620000D01*
X51379523Y-70667619D01*
X51427142Y-70762857D01*
X51427142Y-70905714D01*
X51379523Y-71000952D01*
X51331904Y-71048571D01*
X51236666Y-71096190D01*
X50855714Y-71096190D01*
X51808095Y-70667619D02*
X51855714Y-70620000D01*
X51950952Y-70572380D01*
X52189047Y-70572380D01*
X52284285Y-70620000D01*
X52331904Y-70667619D01*
X52379523Y-70762857D01*
X52379523Y-70858095D01*
X52331904Y-71000952D01*
X51760476Y-71572380D01*
X52379523Y-71572380D01*
X52855714Y-71572380D02*
X53046190Y-71572380D01*
X53141428Y-71524761D01*
X53189047Y-71477142D01*
X53284285Y-71334285D01*
X53331904Y-71143809D01*
X53331904Y-70762857D01*
X53284285Y-70667619D01*
X53236666Y-70620000D01*
X53141428Y-70572380D01*
X52950952Y-70572380D01*
X52855714Y-70620000D01*
X52808095Y-70667619D01*
X52760476Y-70762857D01*
X52760476Y-71000952D01*
X52808095Y-71096190D01*
X52855714Y-71143809D01*
X52950952Y-71191428D01*
X53141428Y-71191428D01*
X53236666Y-71143809D01*
X53284285Y-71096190D01*
X53331904Y-71000952D01*
X56507142Y-103322380D02*
X56173809Y-102846190D01*
X55935714Y-103322380D02*
X55935714Y-102322380D01*
X56316666Y-102322380D01*
X56411904Y-102370000D01*
X56459523Y-102417619D01*
X56507142Y-102512857D01*
X56507142Y-102655714D01*
X56459523Y-102750952D01*
X56411904Y-102798571D01*
X56316666Y-102846190D01*
X55935714Y-102846190D01*
X56888095Y-102417619D02*
X56935714Y-102370000D01*
X57030952Y-102322380D01*
X57269047Y-102322380D01*
X57364285Y-102370000D01*
X57411904Y-102417619D01*
X57459523Y-102512857D01*
X57459523Y-102608095D01*
X57411904Y-102750952D01*
X56840476Y-103322380D01*
X57459523Y-103322380D01*
X58030952Y-102750952D02*
X57935714Y-102703333D01*
X57888095Y-102655714D01*
X57840476Y-102560476D01*
X57840476Y-102512857D01*
X57888095Y-102417619D01*
X57935714Y-102370000D01*
X58030952Y-102322380D01*
X58221428Y-102322380D01*
X58316666Y-102370000D01*
X58364285Y-102417619D01*
X58411904Y-102512857D01*
X58411904Y-102560476D01*
X58364285Y-102655714D01*
X58316666Y-102703333D01*
X58221428Y-102750952D01*
X58030952Y-102750952D01*
X57935714Y-102798571D01*
X57888095Y-102846190D01*
X57840476Y-102941428D01*
X57840476Y-103131904D01*
X57888095Y-103227142D01*
X57935714Y-103274761D01*
X58030952Y-103322380D01*
X58221428Y-103322380D01*
X58316666Y-103274761D01*
X58364285Y-103227142D01*
X58411904Y-103131904D01*
X58411904Y-102941428D01*
X58364285Y-102846190D01*
X58316666Y-102798571D01*
X58221428Y-102750952D01*
X60317142Y-88082380D02*
X59983809Y-87606190D01*
X59745714Y-88082380D02*
X59745714Y-87082380D01*
X60126666Y-87082380D01*
X60221904Y-87130000D01*
X60269523Y-87177619D01*
X60317142Y-87272857D01*
X60317142Y-87415714D01*
X60269523Y-87510952D01*
X60221904Y-87558571D01*
X60126666Y-87606190D01*
X59745714Y-87606190D01*
X60698095Y-87177619D02*
X60745714Y-87130000D01*
X60840952Y-87082380D01*
X61079047Y-87082380D01*
X61174285Y-87130000D01*
X61221904Y-87177619D01*
X61269523Y-87272857D01*
X61269523Y-87368095D01*
X61221904Y-87510952D01*
X60650476Y-88082380D01*
X61269523Y-88082380D01*
X61602857Y-87082380D02*
X62269523Y-87082380D01*
X61840952Y-88082380D01*
X43632380Y-71762857D02*
X43156190Y-72096190D01*
X43632380Y-72334285D02*
X42632380Y-72334285D01*
X42632380Y-71953333D01*
X42680000Y-71858095D01*
X42727619Y-71810476D01*
X42822857Y-71762857D01*
X42965714Y-71762857D01*
X43060952Y-71810476D01*
X43108571Y-71858095D01*
X43156190Y-71953333D01*
X43156190Y-72334285D01*
X42727619Y-71381904D02*
X42680000Y-71334285D01*
X42632380Y-71239047D01*
X42632380Y-71000952D01*
X42680000Y-70905714D01*
X42727619Y-70858095D01*
X42822857Y-70810476D01*
X42918095Y-70810476D01*
X43060952Y-70858095D01*
X43632380Y-71429523D01*
X43632380Y-70810476D01*
X42632380Y-69953333D02*
X42632380Y-70143809D01*
X42680000Y-70239047D01*
X42727619Y-70286666D01*
X42870476Y-70381904D01*
X43060952Y-70429523D01*
X43441904Y-70429523D01*
X43537142Y-70381904D01*
X43584761Y-70334285D01*
X43632380Y-70239047D01*
X43632380Y-70048571D01*
X43584761Y-69953333D01*
X43537142Y-69905714D01*
X43441904Y-69858095D01*
X43203809Y-69858095D01*
X43108571Y-69905714D01*
X43060952Y-69953333D01*
X43013333Y-70048571D01*
X43013333Y-70239047D01*
X43060952Y-70334285D01*
X43108571Y-70381904D01*
X43203809Y-70429523D01*
X61587142Y-58872380D02*
X61253809Y-58396190D01*
X61015714Y-58872380D02*
X61015714Y-57872380D01*
X61396666Y-57872380D01*
X61491904Y-57920000D01*
X61539523Y-57967619D01*
X61587142Y-58062857D01*
X61587142Y-58205714D01*
X61539523Y-58300952D01*
X61491904Y-58348571D01*
X61396666Y-58396190D01*
X61015714Y-58396190D01*
X61968095Y-57967619D02*
X62015714Y-57920000D01*
X62110952Y-57872380D01*
X62349047Y-57872380D01*
X62444285Y-57920000D01*
X62491904Y-57967619D01*
X62539523Y-58062857D01*
X62539523Y-58158095D01*
X62491904Y-58300952D01*
X61920476Y-58872380D01*
X62539523Y-58872380D01*
X63444285Y-57872380D02*
X62968095Y-57872380D01*
X62920476Y-58348571D01*
X62968095Y-58300952D01*
X63063333Y-58253333D01*
X63301428Y-58253333D01*
X63396666Y-58300952D01*
X63444285Y-58348571D01*
X63491904Y-58443809D01*
X63491904Y-58681904D01*
X63444285Y-58777142D01*
X63396666Y-58824761D01*
X63301428Y-58872380D01*
X63063333Y-58872380D01*
X62968095Y-58824761D01*
X62920476Y-58777142D01*
X224147142Y-102052380D02*
X223813809Y-101576190D01*
X223575714Y-102052380D02*
X223575714Y-101052380D01*
X223956666Y-101052380D01*
X224051904Y-101100000D01*
X224099523Y-101147619D01*
X224147142Y-101242857D01*
X224147142Y-101385714D01*
X224099523Y-101480952D01*
X224051904Y-101528571D01*
X223956666Y-101576190D01*
X223575714Y-101576190D01*
X224528095Y-101147619D02*
X224575714Y-101100000D01*
X224670952Y-101052380D01*
X224909047Y-101052380D01*
X225004285Y-101100000D01*
X225051904Y-101147619D01*
X225099523Y-101242857D01*
X225099523Y-101338095D01*
X225051904Y-101480952D01*
X224480476Y-102052380D01*
X225099523Y-102052380D01*
X225432857Y-101052380D02*
X226051904Y-101052380D01*
X225718571Y-101433333D01*
X225861428Y-101433333D01*
X225956666Y-101480952D01*
X226004285Y-101528571D01*
X226051904Y-101623809D01*
X226051904Y-101861904D01*
X226004285Y-101957142D01*
X225956666Y-102004761D01*
X225861428Y-102052380D01*
X225575714Y-102052380D01*
X225480476Y-102004761D01*
X225432857Y-101957142D01*
X193667142Y-37282380D02*
X193333809Y-36806190D01*
X193095714Y-37282380D02*
X193095714Y-36282380D01*
X193476666Y-36282380D01*
X193571904Y-36330000D01*
X193619523Y-36377619D01*
X193667142Y-36472857D01*
X193667142Y-36615714D01*
X193619523Y-36710952D01*
X193571904Y-36758571D01*
X193476666Y-36806190D01*
X193095714Y-36806190D01*
X194048095Y-36377619D02*
X194095714Y-36330000D01*
X194190952Y-36282380D01*
X194429047Y-36282380D01*
X194524285Y-36330000D01*
X194571904Y-36377619D01*
X194619523Y-36472857D01*
X194619523Y-36568095D01*
X194571904Y-36710952D01*
X194000476Y-37282380D01*
X194619523Y-37282380D01*
X195000476Y-36377619D02*
X195048095Y-36330000D01*
X195143333Y-36282380D01*
X195381428Y-36282380D01*
X195476666Y-36330000D01*
X195524285Y-36377619D01*
X195571904Y-36472857D01*
X195571904Y-36568095D01*
X195524285Y-36710952D01*
X194952857Y-37282380D01*
X195571904Y-37282380D01*
X159922380Y-81922857D02*
X159446190Y-82256190D01*
X159922380Y-82494285D02*
X158922380Y-82494285D01*
X158922380Y-82113333D01*
X158970000Y-82018095D01*
X159017619Y-81970476D01*
X159112857Y-81922857D01*
X159255714Y-81922857D01*
X159350952Y-81970476D01*
X159398571Y-82018095D01*
X159446190Y-82113333D01*
X159446190Y-82494285D01*
X159017619Y-81541904D02*
X158970000Y-81494285D01*
X158922380Y-81399047D01*
X158922380Y-81160952D01*
X158970000Y-81065714D01*
X159017619Y-81018095D01*
X159112857Y-80970476D01*
X159208095Y-80970476D01*
X159350952Y-81018095D01*
X159922380Y-81589523D01*
X159922380Y-80970476D01*
X159922380Y-80018095D02*
X159922380Y-80589523D01*
X159922380Y-80303809D02*
X158922380Y-80303809D01*
X159065238Y-80399047D01*
X159160476Y-80494285D01*
X159208095Y-80589523D01*
X114202380Y-81922857D02*
X113726190Y-82256190D01*
X114202380Y-82494285D02*
X113202380Y-82494285D01*
X113202380Y-82113333D01*
X113250000Y-82018095D01*
X113297619Y-81970476D01*
X113392857Y-81922857D01*
X113535714Y-81922857D01*
X113630952Y-81970476D01*
X113678571Y-82018095D01*
X113726190Y-82113333D01*
X113726190Y-82494285D01*
X113297619Y-81541904D02*
X113250000Y-81494285D01*
X113202380Y-81399047D01*
X113202380Y-81160952D01*
X113250000Y-81065714D01*
X113297619Y-81018095D01*
X113392857Y-80970476D01*
X113488095Y-80970476D01*
X113630952Y-81018095D01*
X114202380Y-81589523D01*
X114202380Y-80970476D01*
X113202380Y-80351428D02*
X113202380Y-80256190D01*
X113250000Y-80160952D01*
X113297619Y-80113333D01*
X113392857Y-80065714D01*
X113583333Y-80018095D01*
X113821428Y-80018095D01*
X114011904Y-80065714D01*
X114107142Y-80113333D01*
X114154761Y-80160952D01*
X114202380Y-80256190D01*
X114202380Y-80351428D01*
X114154761Y-80446666D01*
X114107142Y-80494285D01*
X114011904Y-80541904D01*
X113821428Y-80589523D01*
X113583333Y-80589523D01*
X113392857Y-80541904D01*
X113297619Y-80494285D01*
X113250000Y-80446666D01*
X113202380Y-80351428D01*
X224147142Y-94432380D02*
X223813809Y-93956190D01*
X223575714Y-94432380D02*
X223575714Y-93432380D01*
X223956666Y-93432380D01*
X224051904Y-93480000D01*
X224099523Y-93527619D01*
X224147142Y-93622857D01*
X224147142Y-93765714D01*
X224099523Y-93860952D01*
X224051904Y-93908571D01*
X223956666Y-93956190D01*
X223575714Y-93956190D01*
X225099523Y-94432380D02*
X224528095Y-94432380D01*
X224813809Y-94432380D02*
X224813809Y-93432380D01*
X224718571Y-93575238D01*
X224623333Y-93670476D01*
X224528095Y-93718095D01*
X225575714Y-94432380D02*
X225766190Y-94432380D01*
X225861428Y-94384761D01*
X225909047Y-94337142D01*
X226004285Y-94194285D01*
X226051904Y-94003809D01*
X226051904Y-93622857D01*
X226004285Y-93527619D01*
X225956666Y-93480000D01*
X225861428Y-93432380D01*
X225670952Y-93432380D01*
X225575714Y-93480000D01*
X225528095Y-93527619D01*
X225480476Y-93622857D01*
X225480476Y-93860952D01*
X225528095Y-93956190D01*
X225575714Y-94003809D01*
X225670952Y-94051428D01*
X225861428Y-94051428D01*
X225956666Y-94003809D01*
X226004285Y-93956190D01*
X226051904Y-93860952D01*
X224017142Y-96972380D02*
X223683809Y-96496190D01*
X223445714Y-96972380D02*
X223445714Y-95972380D01*
X223826666Y-95972380D01*
X223921904Y-96020000D01*
X223969523Y-96067619D01*
X224017142Y-96162857D01*
X224017142Y-96305714D01*
X223969523Y-96400952D01*
X223921904Y-96448571D01*
X223826666Y-96496190D01*
X223445714Y-96496190D01*
X224969523Y-96972380D02*
X224398095Y-96972380D01*
X224683809Y-96972380D02*
X224683809Y-95972380D01*
X224588571Y-96115238D01*
X224493333Y-96210476D01*
X224398095Y-96258095D01*
X225540952Y-96400952D02*
X225445714Y-96353333D01*
X225398095Y-96305714D01*
X225350476Y-96210476D01*
X225350476Y-96162857D01*
X225398095Y-96067619D01*
X225445714Y-96020000D01*
X225540952Y-95972380D01*
X225731428Y-95972380D01*
X225826666Y-96020000D01*
X225874285Y-96067619D01*
X225921904Y-96162857D01*
X225921904Y-96210476D01*
X225874285Y-96305714D01*
X225826666Y-96353333D01*
X225731428Y-96400952D01*
X225540952Y-96400952D01*
X225445714Y-96448571D01*
X225398095Y-96496190D01*
X225350476Y-96591428D01*
X225350476Y-96781904D01*
X225398095Y-96877142D01*
X225445714Y-96924761D01*
X225540952Y-96972380D01*
X225731428Y-96972380D01*
X225826666Y-96924761D01*
X225874285Y-96877142D01*
X225921904Y-96781904D01*
X225921904Y-96591428D01*
X225874285Y-96496190D01*
X225826666Y-96448571D01*
X225731428Y-96400952D01*
X178802380Y-34932857D02*
X178326190Y-35266190D01*
X178802380Y-35504285D02*
X177802380Y-35504285D01*
X177802380Y-35123333D01*
X177850000Y-35028095D01*
X177897619Y-34980476D01*
X177992857Y-34932857D01*
X178135714Y-34932857D01*
X178230952Y-34980476D01*
X178278571Y-35028095D01*
X178326190Y-35123333D01*
X178326190Y-35504285D01*
X178802380Y-33980476D02*
X178802380Y-34551904D01*
X178802380Y-34266190D02*
X177802380Y-34266190D01*
X177945238Y-34361428D01*
X178040476Y-34456666D01*
X178088095Y-34551904D01*
X177802380Y-33647142D02*
X177802380Y-32980476D01*
X178802380Y-33409047D01*
X157932380Y-32392857D02*
X157456190Y-32726190D01*
X157932380Y-32964285D02*
X156932380Y-32964285D01*
X156932380Y-32583333D01*
X156980000Y-32488095D01*
X157027619Y-32440476D01*
X157122857Y-32392857D01*
X157265714Y-32392857D01*
X157360952Y-32440476D01*
X157408571Y-32488095D01*
X157456190Y-32583333D01*
X157456190Y-32964285D01*
X157932380Y-31440476D02*
X157932380Y-32011904D01*
X157932380Y-31726190D02*
X156932380Y-31726190D01*
X157075238Y-31821428D01*
X157170476Y-31916666D01*
X157218095Y-32011904D01*
X156932380Y-30583333D02*
X156932380Y-30773809D01*
X156980000Y-30869047D01*
X157027619Y-30916666D01*
X157170476Y-31011904D01*
X157360952Y-31059523D01*
X157741904Y-31059523D01*
X157837142Y-31011904D01*
X157884761Y-30964285D01*
X157932380Y-30869047D01*
X157932380Y-30678571D01*
X157884761Y-30583333D01*
X157837142Y-30535714D01*
X157741904Y-30488095D01*
X157503809Y-30488095D01*
X157408571Y-30535714D01*
X157360952Y-30583333D01*
X157313333Y-30678571D01*
X157313333Y-30869047D01*
X157360952Y-30964285D01*
X157408571Y-31011904D01*
X157503809Y-31059523D01*
X170632380Y-33662857D02*
X170156190Y-33996190D01*
X170632380Y-34234285D02*
X169632380Y-34234285D01*
X169632380Y-33853333D01*
X169680000Y-33758095D01*
X169727619Y-33710476D01*
X169822857Y-33662857D01*
X169965714Y-33662857D01*
X170060952Y-33710476D01*
X170108571Y-33758095D01*
X170156190Y-33853333D01*
X170156190Y-34234285D01*
X170632380Y-32710476D02*
X170632380Y-33281904D01*
X170632380Y-32996190D02*
X169632380Y-32996190D01*
X169775238Y-33091428D01*
X169870476Y-33186666D01*
X169918095Y-33281904D01*
X169632380Y-31805714D02*
X169632380Y-32281904D01*
X170108571Y-32329523D01*
X170060952Y-32281904D01*
X170013333Y-32186666D01*
X170013333Y-31948571D01*
X170060952Y-31853333D01*
X170108571Y-31805714D01*
X170203809Y-31758095D01*
X170441904Y-31758095D01*
X170537142Y-31805714D01*
X170584761Y-31853333D01*
X170632380Y-31948571D01*
X170632380Y-32186666D01*
X170584761Y-32281904D01*
X170537142Y-32329523D01*
X129272380Y-34932857D02*
X128796190Y-35266190D01*
X129272380Y-35504285D02*
X128272380Y-35504285D01*
X128272380Y-35123333D01*
X128320000Y-35028095D01*
X128367619Y-34980476D01*
X128462857Y-34932857D01*
X128605714Y-34932857D01*
X128700952Y-34980476D01*
X128748571Y-35028095D01*
X128796190Y-35123333D01*
X128796190Y-35504285D01*
X129272380Y-33980476D02*
X129272380Y-34551904D01*
X129272380Y-34266190D02*
X128272380Y-34266190D01*
X128415238Y-34361428D01*
X128510476Y-34456666D01*
X128558095Y-34551904D01*
X128605714Y-33123333D02*
X129272380Y-33123333D01*
X128224761Y-33361428D02*
X128939047Y-33599523D01*
X128939047Y-32980476D01*
X109672380Y-32392857D02*
X109196190Y-32726190D01*
X109672380Y-32964285D02*
X108672380Y-32964285D01*
X108672380Y-32583333D01*
X108720000Y-32488095D01*
X108767619Y-32440476D01*
X108862857Y-32392857D01*
X109005714Y-32392857D01*
X109100952Y-32440476D01*
X109148571Y-32488095D01*
X109196190Y-32583333D01*
X109196190Y-32964285D01*
X109672380Y-31440476D02*
X109672380Y-32011904D01*
X109672380Y-31726190D02*
X108672380Y-31726190D01*
X108815238Y-31821428D01*
X108910476Y-31916666D01*
X108958095Y-32011904D01*
X108672380Y-31107142D02*
X108672380Y-30488095D01*
X109053333Y-30821428D01*
X109053333Y-30678571D01*
X109100952Y-30583333D01*
X109148571Y-30535714D01*
X109243809Y-30488095D01*
X109481904Y-30488095D01*
X109577142Y-30535714D01*
X109624761Y-30583333D01*
X109672380Y-30678571D01*
X109672380Y-30964285D01*
X109624761Y-31059523D01*
X109577142Y-31107142D01*
X121102380Y-34932857D02*
X120626190Y-35266190D01*
X121102380Y-35504285D02*
X120102380Y-35504285D01*
X120102380Y-35123333D01*
X120150000Y-35028095D01*
X120197619Y-34980476D01*
X120292857Y-34932857D01*
X120435714Y-34932857D01*
X120530952Y-34980476D01*
X120578571Y-35028095D01*
X120626190Y-35123333D01*
X120626190Y-35504285D01*
X121102380Y-33980476D02*
X121102380Y-34551904D01*
X121102380Y-34266190D02*
X120102380Y-34266190D01*
X120245238Y-34361428D01*
X120340476Y-34456666D01*
X120388095Y-34551904D01*
X120197619Y-33599523D02*
X120150000Y-33551904D01*
X120102380Y-33456666D01*
X120102380Y-33218571D01*
X120150000Y-33123333D01*
X120197619Y-33075714D01*
X120292857Y-33028095D01*
X120388095Y-33028095D01*
X120530952Y-33075714D01*
X121102380Y-33647142D01*
X121102380Y-33028095D01*
X57777142Y-41092380D02*
X57443809Y-40616190D01*
X57205714Y-41092380D02*
X57205714Y-40092380D01*
X57586666Y-40092380D01*
X57681904Y-40140000D01*
X57729523Y-40187619D01*
X57777142Y-40282857D01*
X57777142Y-40425714D01*
X57729523Y-40520952D01*
X57681904Y-40568571D01*
X57586666Y-40616190D01*
X57205714Y-40616190D01*
X58729523Y-41092380D02*
X58158095Y-41092380D01*
X58443809Y-41092380D02*
X58443809Y-40092380D01*
X58348571Y-40235238D01*
X58253333Y-40330476D01*
X58158095Y-40378095D01*
X59681904Y-41092380D02*
X59110476Y-41092380D01*
X59396190Y-41092380D02*
X59396190Y-40092380D01*
X59300952Y-40235238D01*
X59205714Y-40330476D01*
X59110476Y-40378095D01*
X166997142Y-51252380D02*
X166663809Y-50776190D01*
X166425714Y-51252380D02*
X166425714Y-50252380D01*
X166806666Y-50252380D01*
X166901904Y-50300000D01*
X166949523Y-50347619D01*
X166997142Y-50442857D01*
X166997142Y-50585714D01*
X166949523Y-50680952D01*
X166901904Y-50728571D01*
X166806666Y-50776190D01*
X166425714Y-50776190D01*
X167949523Y-51252380D02*
X167378095Y-51252380D01*
X167663809Y-51252380D02*
X167663809Y-50252380D01*
X167568571Y-50395238D01*
X167473333Y-50490476D01*
X167378095Y-50538095D01*
X168568571Y-50252380D02*
X168663809Y-50252380D01*
X168759047Y-50300000D01*
X168806666Y-50347619D01*
X168854285Y-50442857D01*
X168901904Y-50633333D01*
X168901904Y-50871428D01*
X168854285Y-51061904D01*
X168806666Y-51157142D01*
X168759047Y-51204761D01*
X168663809Y-51252380D01*
X168568571Y-51252380D01*
X168473333Y-51204761D01*
X168425714Y-51157142D01*
X168378095Y-51061904D01*
X168330476Y-50871428D01*
X168330476Y-50633333D01*
X168378095Y-50442857D01*
X168425714Y-50347619D01*
X168473333Y-50300000D01*
X168568571Y-50252380D01*
X116673333Y-52522380D02*
X116340000Y-52046190D01*
X116101904Y-52522380D02*
X116101904Y-51522380D01*
X116482857Y-51522380D01*
X116578095Y-51570000D01*
X116625714Y-51617619D01*
X116673333Y-51712857D01*
X116673333Y-51855714D01*
X116625714Y-51950952D01*
X116578095Y-51998571D01*
X116482857Y-52046190D01*
X116101904Y-52046190D01*
X117149523Y-52522380D02*
X117340000Y-52522380D01*
X117435238Y-52474761D01*
X117482857Y-52427142D01*
X117578095Y-52284285D01*
X117625714Y-52093809D01*
X117625714Y-51712857D01*
X117578095Y-51617619D01*
X117530476Y-51570000D01*
X117435238Y-51522380D01*
X117244761Y-51522380D01*
X117149523Y-51570000D01*
X117101904Y-51617619D01*
X117054285Y-51712857D01*
X117054285Y-51950952D01*
X117101904Y-52046190D01*
X117149523Y-52093809D01*
X117244761Y-52141428D01*
X117435238Y-52141428D01*
X117530476Y-52093809D01*
X117578095Y-52046190D01*
X117625714Y-51950952D01*
X181443333Y-51252380D02*
X181110000Y-50776190D01*
X180871904Y-51252380D02*
X180871904Y-50252380D01*
X181252857Y-50252380D01*
X181348095Y-50300000D01*
X181395714Y-50347619D01*
X181443333Y-50442857D01*
X181443333Y-50585714D01*
X181395714Y-50680952D01*
X181348095Y-50728571D01*
X181252857Y-50776190D01*
X180871904Y-50776190D01*
X182014761Y-50680952D02*
X181919523Y-50633333D01*
X181871904Y-50585714D01*
X181824285Y-50490476D01*
X181824285Y-50442857D01*
X181871904Y-50347619D01*
X181919523Y-50300000D01*
X182014761Y-50252380D01*
X182205238Y-50252380D01*
X182300476Y-50300000D01*
X182348095Y-50347619D01*
X182395714Y-50442857D01*
X182395714Y-50490476D01*
X182348095Y-50585714D01*
X182300476Y-50633333D01*
X182205238Y-50680952D01*
X182014761Y-50680952D01*
X181919523Y-50728571D01*
X181871904Y-50776190D01*
X181824285Y-50871428D01*
X181824285Y-51061904D01*
X181871904Y-51157142D01*
X181919523Y-51204761D01*
X182014761Y-51252380D01*
X182205238Y-51252380D01*
X182300476Y-51204761D01*
X182348095Y-51157142D01*
X182395714Y-51061904D01*
X182395714Y-50871428D01*
X182348095Y-50776190D01*
X182300476Y-50728571D01*
X182205238Y-50680952D01*
X131913333Y-52522380D02*
X131580000Y-52046190D01*
X131341904Y-52522380D02*
X131341904Y-51522380D01*
X131722857Y-51522380D01*
X131818095Y-51570000D01*
X131865714Y-51617619D01*
X131913333Y-51712857D01*
X131913333Y-51855714D01*
X131865714Y-51950952D01*
X131818095Y-51998571D01*
X131722857Y-52046190D01*
X131341904Y-52046190D01*
X132246666Y-51522380D02*
X132913333Y-51522380D01*
X132484761Y-52522380D01*
X58872380Y-31916666D02*
X58396190Y-32250000D01*
X58872380Y-32488095D02*
X57872380Y-32488095D01*
X57872380Y-32107142D01*
X57920000Y-32011904D01*
X57967619Y-31964285D01*
X58062857Y-31916666D01*
X58205714Y-31916666D01*
X58300952Y-31964285D01*
X58348571Y-32011904D01*
X58396190Y-32107142D01*
X58396190Y-32488095D01*
X57872380Y-31059523D02*
X57872380Y-31250000D01*
X57920000Y-31345238D01*
X57967619Y-31392857D01*
X58110476Y-31488095D01*
X58300952Y-31535714D01*
X58681904Y-31535714D01*
X58777142Y-31488095D01*
X58824761Y-31440476D01*
X58872380Y-31345238D01*
X58872380Y-31154761D01*
X58824761Y-31059523D01*
X58777142Y-31011904D01*
X58681904Y-30964285D01*
X58443809Y-30964285D01*
X58348571Y-31011904D01*
X58300952Y-31059523D01*
X58253333Y-31154761D01*
X58253333Y-31345238D01*
X58300952Y-31440476D01*
X58348571Y-31488095D01*
X58443809Y-31535714D01*
X56332380Y-31916666D02*
X55856190Y-32250000D01*
X56332380Y-32488095D02*
X55332380Y-32488095D01*
X55332380Y-32107142D01*
X55380000Y-32011904D01*
X55427619Y-31964285D01*
X55522857Y-31916666D01*
X55665714Y-31916666D01*
X55760952Y-31964285D01*
X55808571Y-32011904D01*
X55856190Y-32107142D01*
X55856190Y-32488095D01*
X55332380Y-31011904D02*
X55332380Y-31488095D01*
X55808571Y-31535714D01*
X55760952Y-31488095D01*
X55713333Y-31392857D01*
X55713333Y-31154761D01*
X55760952Y-31059523D01*
X55808571Y-31011904D01*
X55903809Y-30964285D01*
X56141904Y-30964285D01*
X56237142Y-31011904D01*
X56284761Y-31059523D01*
X56332380Y-31154761D01*
X56332380Y-31392857D01*
X56284761Y-31488095D01*
X56237142Y-31535714D01*
X43013333Y-112932380D02*
X42680000Y-112456190D01*
X42441904Y-112932380D02*
X42441904Y-111932380D01*
X42822857Y-111932380D01*
X42918095Y-111980000D01*
X42965714Y-112027619D01*
X43013333Y-112122857D01*
X43013333Y-112265714D01*
X42965714Y-112360952D01*
X42918095Y-112408571D01*
X42822857Y-112456190D01*
X42441904Y-112456190D01*
X43870476Y-112265714D02*
X43870476Y-112932380D01*
X43632380Y-111884761D02*
X43394285Y-112599047D01*
X44013333Y-112599047D01*
X65873333Y-51252380D02*
X65540000Y-50776190D01*
X65301904Y-51252380D02*
X65301904Y-50252380D01*
X65682857Y-50252380D01*
X65778095Y-50300000D01*
X65825714Y-50347619D01*
X65873333Y-50442857D01*
X65873333Y-50585714D01*
X65825714Y-50680952D01*
X65778095Y-50728571D01*
X65682857Y-50776190D01*
X65301904Y-50776190D01*
X66206666Y-50252380D02*
X66825714Y-50252380D01*
X66492380Y-50633333D01*
X66635238Y-50633333D01*
X66730476Y-50680952D01*
X66778095Y-50728571D01*
X66825714Y-50823809D01*
X66825714Y-51061904D01*
X66778095Y-51157142D01*
X66730476Y-51204761D01*
X66635238Y-51252380D01*
X66349523Y-51252380D01*
X66254285Y-51204761D01*
X66206666Y-51157142D01*
X222152380Y-152566666D02*
X221676190Y-152900000D01*
X222152380Y-153138095D02*
X221152380Y-153138095D01*
X221152380Y-152757142D01*
X221200000Y-152661904D01*
X221247619Y-152614285D01*
X221342857Y-152566666D01*
X221485714Y-152566666D01*
X221580952Y-152614285D01*
X221628571Y-152661904D01*
X221676190Y-152757142D01*
X221676190Y-153138095D01*
X221247619Y-152185714D02*
X221200000Y-152138095D01*
X221152380Y-152042857D01*
X221152380Y-151804761D01*
X221200000Y-151709523D01*
X221247619Y-151661904D01*
X221342857Y-151614285D01*
X221438095Y-151614285D01*
X221580952Y-151661904D01*
X222152380Y-152233333D01*
X222152380Y-151614285D01*
X43013333Y-124192380D02*
X42680000Y-123716190D01*
X42441904Y-124192380D02*
X42441904Y-123192380D01*
X42822857Y-123192380D01*
X42918095Y-123240000D01*
X42965714Y-123287619D01*
X43013333Y-123382857D01*
X43013333Y-123525714D01*
X42965714Y-123620952D01*
X42918095Y-123668571D01*
X42822857Y-123716190D01*
X42441904Y-123716190D01*
X43965714Y-124192380D02*
X43394285Y-124192380D01*
X43680000Y-124192380D02*
X43680000Y-123192380D01*
X43584761Y-123335238D01*
X43489523Y-123430476D01*
X43394285Y-123478095D01*
X203104761Y-28797619D02*
X203009523Y-28750000D01*
X202914285Y-28654761D01*
X202771428Y-28511904D01*
X202676190Y-28464285D01*
X202580952Y-28464285D01*
X202628571Y-28702380D02*
X202533333Y-28654761D01*
X202438095Y-28559523D01*
X202390476Y-28369047D01*
X202390476Y-28035714D01*
X202438095Y-27845238D01*
X202533333Y-27750000D01*
X202628571Y-27702380D01*
X202819047Y-27702380D01*
X202914285Y-27750000D01*
X203009523Y-27845238D01*
X203057142Y-28035714D01*
X203057142Y-28369047D01*
X203009523Y-28559523D01*
X202914285Y-28654761D01*
X202819047Y-28702380D01*
X202628571Y-28702380D01*
X203914285Y-27702380D02*
X203723809Y-27702380D01*
X203628571Y-27750000D01*
X203580952Y-27797619D01*
X203485714Y-27940476D01*
X203438095Y-28130952D01*
X203438095Y-28511904D01*
X203485714Y-28607142D01*
X203533333Y-28654761D01*
X203628571Y-28702380D01*
X203819047Y-28702380D01*
X203914285Y-28654761D01*
X203961904Y-28607142D01*
X204009523Y-28511904D01*
X204009523Y-28273809D01*
X203961904Y-28178571D01*
X203914285Y-28130952D01*
X203819047Y-28083333D01*
X203628571Y-28083333D01*
X203533333Y-28130952D01*
X203485714Y-28178571D01*
X203438095Y-28273809D01*
X176117619Y-25495238D02*
X176070000Y-25590476D01*
X175974761Y-25685714D01*
X175831904Y-25828571D01*
X175784285Y-25923809D01*
X175784285Y-26019047D01*
X176022380Y-25971428D02*
X175974761Y-26066666D01*
X175879523Y-26161904D01*
X175689047Y-26209523D01*
X175355714Y-26209523D01*
X175165238Y-26161904D01*
X175070000Y-26066666D01*
X175022380Y-25971428D01*
X175022380Y-25780952D01*
X175070000Y-25685714D01*
X175165238Y-25590476D01*
X175355714Y-25542857D01*
X175689047Y-25542857D01*
X175879523Y-25590476D01*
X175974761Y-25685714D01*
X176022380Y-25780952D01*
X176022380Y-25971428D01*
X175022380Y-24638095D02*
X175022380Y-25114285D01*
X175498571Y-25161904D01*
X175450952Y-25114285D01*
X175403333Y-25019047D01*
X175403333Y-24780952D01*
X175450952Y-24685714D01*
X175498571Y-24638095D01*
X175593809Y-24590476D01*
X175831904Y-24590476D01*
X175927142Y-24638095D01*
X175974761Y-24685714D01*
X176022380Y-24780952D01*
X176022380Y-25019047D01*
X175974761Y-25114285D01*
X175927142Y-25161904D01*
X164687619Y-25495238D02*
X164640000Y-25590476D01*
X164544761Y-25685714D01*
X164401904Y-25828571D01*
X164354285Y-25923809D01*
X164354285Y-26019047D01*
X164592380Y-25971428D02*
X164544761Y-26066666D01*
X164449523Y-26161904D01*
X164259047Y-26209523D01*
X163925714Y-26209523D01*
X163735238Y-26161904D01*
X163640000Y-26066666D01*
X163592380Y-25971428D01*
X163592380Y-25780952D01*
X163640000Y-25685714D01*
X163735238Y-25590476D01*
X163925714Y-25542857D01*
X164259047Y-25542857D01*
X164449523Y-25590476D01*
X164544761Y-25685714D01*
X164592380Y-25780952D01*
X164592380Y-25971428D01*
X163925714Y-24685714D02*
X164592380Y-24685714D01*
X163544761Y-24923809D02*
X164259047Y-25161904D01*
X164259047Y-24542857D01*
X127857619Y-25495238D02*
X127810000Y-25590476D01*
X127714761Y-25685714D01*
X127571904Y-25828571D01*
X127524285Y-25923809D01*
X127524285Y-26019047D01*
X127762380Y-25971428D02*
X127714761Y-26066666D01*
X127619523Y-26161904D01*
X127429047Y-26209523D01*
X127095714Y-26209523D01*
X126905238Y-26161904D01*
X126810000Y-26066666D01*
X126762380Y-25971428D01*
X126762380Y-25780952D01*
X126810000Y-25685714D01*
X126905238Y-25590476D01*
X127095714Y-25542857D01*
X127429047Y-25542857D01*
X127619523Y-25590476D01*
X127714761Y-25685714D01*
X127762380Y-25780952D01*
X127762380Y-25971428D01*
X126762380Y-25209523D02*
X126762380Y-24590476D01*
X127143333Y-24923809D01*
X127143333Y-24780952D01*
X127190952Y-24685714D01*
X127238571Y-24638095D01*
X127333809Y-24590476D01*
X127571904Y-24590476D01*
X127667142Y-24638095D01*
X127714761Y-24685714D01*
X127762380Y-24780952D01*
X127762380Y-25066666D01*
X127714761Y-25161904D01*
X127667142Y-25209523D01*
X117697619Y-25495238D02*
X117650000Y-25590476D01*
X117554761Y-25685714D01*
X117411904Y-25828571D01*
X117364285Y-25923809D01*
X117364285Y-26019047D01*
X117602380Y-25971428D02*
X117554761Y-26066666D01*
X117459523Y-26161904D01*
X117269047Y-26209523D01*
X116935714Y-26209523D01*
X116745238Y-26161904D01*
X116650000Y-26066666D01*
X116602380Y-25971428D01*
X116602380Y-25780952D01*
X116650000Y-25685714D01*
X116745238Y-25590476D01*
X116935714Y-25542857D01*
X117269047Y-25542857D01*
X117459523Y-25590476D01*
X117554761Y-25685714D01*
X117602380Y-25780952D01*
X117602380Y-25971428D01*
X116697619Y-25161904D02*
X116650000Y-25114285D01*
X116602380Y-25019047D01*
X116602380Y-24780952D01*
X116650000Y-24685714D01*
X116697619Y-24638095D01*
X116792857Y-24590476D01*
X116888095Y-24590476D01*
X117030952Y-24638095D01*
X117602380Y-25209523D01*
X117602380Y-24590476D01*
X33877619Y-110585238D02*
X33830000Y-110680476D01*
X33734761Y-110775714D01*
X33591904Y-110918571D01*
X33544285Y-111013809D01*
X33544285Y-111109047D01*
X33782380Y-111061428D02*
X33734761Y-111156666D01*
X33639523Y-111251904D01*
X33449047Y-111299523D01*
X33115714Y-111299523D01*
X32925238Y-111251904D01*
X32830000Y-111156666D01*
X32782380Y-111061428D01*
X32782380Y-110870952D01*
X32830000Y-110775714D01*
X32925238Y-110680476D01*
X33115714Y-110632857D01*
X33449047Y-110632857D01*
X33639523Y-110680476D01*
X33734761Y-110775714D01*
X33782380Y-110870952D01*
X33782380Y-111061428D01*
X33782380Y-109680476D02*
X33782380Y-110251904D01*
X33782380Y-109966190D02*
X32782380Y-109966190D01*
X32925238Y-110061428D01*
X33020476Y-110156666D01*
X33068095Y-110251904D01*
X43013333Y-74482380D02*
X42537142Y-74482380D01*
X42537142Y-73482380D01*
X43251428Y-73482380D02*
X43870476Y-73482380D01*
X43537142Y-73863333D01*
X43680000Y-73863333D01*
X43775238Y-73910952D01*
X43822857Y-73958571D01*
X43870476Y-74053809D01*
X43870476Y-74291904D01*
X43822857Y-74387142D01*
X43775238Y-74434761D01*
X43680000Y-74482380D01*
X43394285Y-74482380D01*
X43299047Y-74434761D01*
X43251428Y-74387142D01*
X170013333Y-90622380D02*
X169537142Y-90622380D01*
X169537142Y-89622380D01*
X170299047Y-89717619D02*
X170346666Y-89670000D01*
X170441904Y-89622380D01*
X170680000Y-89622380D01*
X170775238Y-89670000D01*
X170822857Y-89717619D01*
X170870476Y-89812857D01*
X170870476Y-89908095D01*
X170822857Y-90050952D01*
X170251428Y-90622380D01*
X170870476Y-90622380D01*
X124293333Y-90622380D02*
X123817142Y-90622380D01*
X123817142Y-89622380D01*
X125150476Y-90622380D02*
X124579047Y-90622380D01*
X124864761Y-90622380D02*
X124864761Y-89622380D01*
X124769523Y-89765238D01*
X124674285Y-89860476D01*
X124579047Y-89908095D01*
X238426666Y-34802380D02*
X238426666Y-35516666D01*
X238379047Y-35659523D01*
X238283809Y-35754761D01*
X238140952Y-35802380D01*
X238045714Y-35802380D01*
X239379047Y-34802380D02*
X238902857Y-34802380D01*
X238855238Y-35278571D01*
X238902857Y-35230952D01*
X238998095Y-35183333D01*
X239236190Y-35183333D01*
X239331428Y-35230952D01*
X239379047Y-35278571D01*
X239426666Y-35373809D01*
X239426666Y-35611904D01*
X239379047Y-35707142D01*
X239331428Y-35754761D01*
X239236190Y-35802380D01*
X238998095Y-35802380D01*
X238902857Y-35754761D01*
X238855238Y-35707142D01*
X238426666Y-140632380D02*
X238426666Y-141346666D01*
X238379047Y-141489523D01*
X238283809Y-141584761D01*
X238140952Y-141632380D01*
X238045714Y-141632380D01*
X239331428Y-140965714D02*
X239331428Y-141632380D01*
X239093333Y-140584761D02*
X238855238Y-141299047D01*
X239474285Y-141299047D01*
X238426666Y-136402380D02*
X238426666Y-137116666D01*
X238379047Y-137259523D01*
X238283809Y-137354761D01*
X238140952Y-137402380D01*
X238045714Y-137402380D01*
X238807619Y-136402380D02*
X239426666Y-136402380D01*
X239093333Y-136783333D01*
X239236190Y-136783333D01*
X239331428Y-136830952D01*
X239379047Y-136878571D01*
X239426666Y-136973809D01*
X239426666Y-137211904D01*
X239379047Y-137307142D01*
X239331428Y-137354761D01*
X239236190Y-137402380D01*
X238950476Y-137402380D01*
X238855238Y-137354761D01*
X238807619Y-137307142D01*
X210482380Y-157813333D02*
X211196666Y-157813333D01*
X211339523Y-157860952D01*
X211434761Y-157956190D01*
X211482380Y-158099047D01*
X211482380Y-158194285D01*
X210577619Y-157384761D02*
X210530000Y-157337142D01*
X210482380Y-157241904D01*
X210482380Y-157003809D01*
X210530000Y-156908571D01*
X210577619Y-156860952D01*
X210672857Y-156813333D01*
X210768095Y-156813333D01*
X210910952Y-156860952D01*
X211482380Y-157432380D01*
X211482380Y-156813333D01*
X36496666Y-47922380D02*
X36496666Y-48636666D01*
X36449047Y-48779523D01*
X36353809Y-48874761D01*
X36210952Y-48922380D01*
X36115714Y-48922380D01*
X37496666Y-48922380D02*
X36925238Y-48922380D01*
X37210952Y-48922380D02*
X37210952Y-47922380D01*
X37115714Y-48065238D01*
X37020476Y-48160476D01*
X36925238Y-48208095D01*
X215066666Y-109528571D02*
X214733333Y-109528571D01*
X214733333Y-110052380D02*
X214733333Y-109052380D01*
X215209523Y-109052380D01*
X215923809Y-109528571D02*
X216066666Y-109576190D01*
X216114285Y-109623809D01*
X216161904Y-109719047D01*
X216161904Y-109861904D01*
X216114285Y-109957142D01*
X216066666Y-110004761D01*
X215971428Y-110052380D01*
X215590476Y-110052380D01*
X215590476Y-109052380D01*
X215923809Y-109052380D01*
X216019047Y-109100000D01*
X216066666Y-109147619D01*
X216114285Y-109242857D01*
X216114285Y-109338095D01*
X216066666Y-109433333D01*
X216019047Y-109480952D01*
X215923809Y-109528571D01*
X215590476Y-109528571D01*
X216542857Y-109147619D02*
X216590476Y-109100000D01*
X216685714Y-109052380D01*
X216923809Y-109052380D01*
X217019047Y-109100000D01*
X217066666Y-109147619D01*
X217114285Y-109242857D01*
X217114285Y-109338095D01*
X217066666Y-109480952D01*
X216495238Y-110052380D01*
X217114285Y-110052380D01*
X48696666Y-48568571D02*
X48363333Y-48568571D01*
X48363333Y-49092380D02*
X48363333Y-48092380D01*
X48839523Y-48092380D01*
X49553809Y-48568571D02*
X49696666Y-48616190D01*
X49744285Y-48663809D01*
X49791904Y-48759047D01*
X49791904Y-48901904D01*
X49744285Y-48997142D01*
X49696666Y-49044761D01*
X49601428Y-49092380D01*
X49220476Y-49092380D01*
X49220476Y-48092380D01*
X49553809Y-48092380D01*
X49649047Y-48140000D01*
X49696666Y-48187619D01*
X49744285Y-48282857D01*
X49744285Y-48378095D01*
X49696666Y-48473333D01*
X49649047Y-48520952D01*
X49553809Y-48568571D01*
X49220476Y-48568571D01*
X50744285Y-49092380D02*
X50172857Y-49092380D01*
X50458571Y-49092380D02*
X50458571Y-48092380D01*
X50363333Y-48235238D01*
X50268095Y-48330476D01*
X50172857Y-48378095D01*
X52601904Y-59682380D02*
X52601904Y-58682380D01*
X52840000Y-58682380D01*
X52982857Y-58730000D01*
X53078095Y-58825238D01*
X53125714Y-58920476D01*
X53173333Y-59110952D01*
X53173333Y-59253809D01*
X53125714Y-59444285D01*
X53078095Y-59539523D01*
X52982857Y-59634761D01*
X52840000Y-59682380D01*
X52601904Y-59682380D01*
X54030476Y-58682380D02*
X53840000Y-58682380D01*
X53744761Y-58730000D01*
X53697142Y-58777619D01*
X53601904Y-58920476D01*
X53554285Y-59110952D01*
X53554285Y-59491904D01*
X53601904Y-59587142D01*
X53649523Y-59634761D01*
X53744761Y-59682380D01*
X53935238Y-59682380D01*
X54030476Y-59634761D01*
X54078095Y-59587142D01*
X54125714Y-59491904D01*
X54125714Y-59253809D01*
X54078095Y-59158571D01*
X54030476Y-59110952D01*
X53935238Y-59063333D01*
X53744761Y-59063333D01*
X53649523Y-59110952D01*
X53601904Y-59158571D01*
X53554285Y-59253809D01*
X194802380Y-31218095D02*
X193802380Y-31218095D01*
X193802380Y-30980000D01*
X193850000Y-30837142D01*
X193945238Y-30741904D01*
X194040476Y-30694285D01*
X194230952Y-30646666D01*
X194373809Y-30646666D01*
X194564285Y-30694285D01*
X194659523Y-30741904D01*
X194754761Y-30837142D01*
X194802380Y-30980000D01*
X194802380Y-31218095D01*
X193802380Y-29741904D02*
X193802380Y-30218095D01*
X194278571Y-30265714D01*
X194230952Y-30218095D01*
X194183333Y-30122857D01*
X194183333Y-29884761D01*
X194230952Y-29789523D01*
X194278571Y-29741904D01*
X194373809Y-29694285D01*
X194611904Y-29694285D01*
X194707142Y-29741904D01*
X194754761Y-29789523D01*
X194802380Y-29884761D01*
X194802380Y-30122857D01*
X194754761Y-30218095D01*
X194707142Y-30265714D01*
X183292380Y-41378095D02*
X182292380Y-41378095D01*
X182292380Y-41140000D01*
X182340000Y-40997142D01*
X182435238Y-40901904D01*
X182530476Y-40854285D01*
X182720952Y-40806666D01*
X182863809Y-40806666D01*
X183054285Y-40854285D01*
X183149523Y-40901904D01*
X183244761Y-40997142D01*
X183292380Y-41140000D01*
X183292380Y-41378095D01*
X182625714Y-39949523D02*
X183292380Y-39949523D01*
X182244761Y-40187619D02*
X182959047Y-40425714D01*
X182959047Y-39806666D01*
X133802380Y-42648095D02*
X132802380Y-42648095D01*
X132802380Y-42410000D01*
X132850000Y-42267142D01*
X132945238Y-42171904D01*
X133040476Y-42124285D01*
X133230952Y-42076666D01*
X133373809Y-42076666D01*
X133564285Y-42124285D01*
X133659523Y-42171904D01*
X133754761Y-42267142D01*
X133802380Y-42410000D01*
X133802380Y-42648095D01*
X132802380Y-41743333D02*
X132802380Y-41124285D01*
X133183333Y-41457619D01*
X133183333Y-41314761D01*
X133230952Y-41219523D01*
X133278571Y-41171904D01*
X133373809Y-41124285D01*
X133611904Y-41124285D01*
X133707142Y-41171904D01*
X133754761Y-41219523D01*
X133802380Y-41314761D01*
X133802380Y-41600476D01*
X133754761Y-41695714D01*
X133707142Y-41743333D01*
X164282380Y-40108095D02*
X163282380Y-40108095D01*
X163282380Y-39870000D01*
X163330000Y-39727142D01*
X163425238Y-39631904D01*
X163520476Y-39584285D01*
X163710952Y-39536666D01*
X163853809Y-39536666D01*
X164044285Y-39584285D01*
X164139523Y-39631904D01*
X164234761Y-39727142D01*
X164282380Y-39870000D01*
X164282380Y-40108095D01*
X163377619Y-39155714D02*
X163330000Y-39108095D01*
X163282380Y-39012857D01*
X163282380Y-38774761D01*
X163330000Y-38679523D01*
X163377619Y-38631904D01*
X163472857Y-38584285D01*
X163568095Y-38584285D01*
X163710952Y-38631904D01*
X164282380Y-39203333D01*
X164282380Y-38584285D01*
X114752380Y-42648095D02*
X113752380Y-42648095D01*
X113752380Y-42410000D01*
X113800000Y-42267142D01*
X113895238Y-42171904D01*
X113990476Y-42124285D01*
X114180952Y-42076666D01*
X114323809Y-42076666D01*
X114514285Y-42124285D01*
X114609523Y-42171904D01*
X114704761Y-42267142D01*
X114752380Y-42410000D01*
X114752380Y-42648095D01*
X114752380Y-41124285D02*
X114752380Y-41695714D01*
X114752380Y-41410000D02*
X113752380Y-41410000D01*
X113895238Y-41505238D01*
X113990476Y-41600476D01*
X114038095Y-41695714D01*
X40407142Y-104802857D02*
X40454761Y-104850476D01*
X40502380Y-104993333D01*
X40502380Y-105088571D01*
X40454761Y-105231428D01*
X40359523Y-105326666D01*
X40264285Y-105374285D01*
X40073809Y-105421904D01*
X39930952Y-105421904D01*
X39740476Y-105374285D01*
X39645238Y-105326666D01*
X39550000Y-105231428D01*
X39502380Y-105088571D01*
X39502380Y-104993333D01*
X39550000Y-104850476D01*
X39597619Y-104802857D01*
X39502380Y-104469523D02*
X39502380Y-103850476D01*
X39883333Y-104183809D01*
X39883333Y-104040952D01*
X39930952Y-103945714D01*
X39978571Y-103898095D01*
X40073809Y-103850476D01*
X40311904Y-103850476D01*
X40407142Y-103898095D01*
X40454761Y-103945714D01*
X40502380Y-104040952D01*
X40502380Y-104326666D01*
X40454761Y-104421904D01*
X40407142Y-104469523D01*
X39502380Y-102993333D02*
X39502380Y-103183809D01*
X39550000Y-103279047D01*
X39597619Y-103326666D01*
X39740476Y-103421904D01*
X39930952Y-103469523D01*
X40311904Y-103469523D01*
X40407142Y-103421904D01*
X40454761Y-103374285D01*
X40502380Y-103279047D01*
X40502380Y-103088571D01*
X40454761Y-102993333D01*
X40407142Y-102945714D01*
X40311904Y-102898095D01*
X40073809Y-102898095D01*
X39978571Y-102945714D01*
X39930952Y-102993333D01*
X39883333Y-103088571D01*
X39883333Y-103279047D01*
X39930952Y-103374285D01*
X39978571Y-103421904D01*
X40073809Y-103469523D01*
X60317142Y-80367142D02*
X60269523Y-80414761D01*
X60126666Y-80462380D01*
X60031428Y-80462380D01*
X59888571Y-80414761D01*
X59793333Y-80319523D01*
X59745714Y-80224285D01*
X59698095Y-80033809D01*
X59698095Y-79890952D01*
X59745714Y-79700476D01*
X59793333Y-79605238D01*
X59888571Y-79510000D01*
X60031428Y-79462380D01*
X60126666Y-79462380D01*
X60269523Y-79510000D01*
X60317142Y-79557619D01*
X60650476Y-79462380D02*
X61269523Y-79462380D01*
X60936190Y-79843333D01*
X61079047Y-79843333D01*
X61174285Y-79890952D01*
X61221904Y-79938571D01*
X61269523Y-80033809D01*
X61269523Y-80271904D01*
X61221904Y-80367142D01*
X61174285Y-80414761D01*
X61079047Y-80462380D01*
X60793333Y-80462380D01*
X60698095Y-80414761D01*
X60650476Y-80367142D01*
X62174285Y-79462380D02*
X61698095Y-79462380D01*
X61650476Y-79938571D01*
X61698095Y-79890952D01*
X61793333Y-79843333D01*
X62031428Y-79843333D01*
X62126666Y-79890952D01*
X62174285Y-79938571D01*
X62221904Y-80033809D01*
X62221904Y-80271904D01*
X62174285Y-80367142D01*
X62126666Y-80414761D01*
X62031428Y-80462380D01*
X61793333Y-80462380D01*
X61698095Y-80414761D01*
X61650476Y-80367142D01*
X43807142Y-99417142D02*
X43759523Y-99464761D01*
X43616666Y-99512380D01*
X43521428Y-99512380D01*
X43378571Y-99464761D01*
X43283333Y-99369523D01*
X43235714Y-99274285D01*
X43188095Y-99083809D01*
X43188095Y-98940952D01*
X43235714Y-98750476D01*
X43283333Y-98655238D01*
X43378571Y-98560000D01*
X43521428Y-98512380D01*
X43616666Y-98512380D01*
X43759523Y-98560000D01*
X43807142Y-98607619D01*
X44140476Y-98512380D02*
X44759523Y-98512380D01*
X44426190Y-98893333D01*
X44569047Y-98893333D01*
X44664285Y-98940952D01*
X44711904Y-98988571D01*
X44759523Y-99083809D01*
X44759523Y-99321904D01*
X44711904Y-99417142D01*
X44664285Y-99464761D01*
X44569047Y-99512380D01*
X44283333Y-99512380D01*
X44188095Y-99464761D01*
X44140476Y-99417142D01*
X45616666Y-98845714D02*
X45616666Y-99512380D01*
X45378571Y-98464761D02*
X45140476Y-99179047D01*
X45759523Y-99179047D01*
X44807142Y-66682857D02*
X44854761Y-66730476D01*
X44902380Y-66873333D01*
X44902380Y-66968571D01*
X44854761Y-67111428D01*
X44759523Y-67206666D01*
X44664285Y-67254285D01*
X44473809Y-67301904D01*
X44330952Y-67301904D01*
X44140476Y-67254285D01*
X44045238Y-67206666D01*
X43950000Y-67111428D01*
X43902380Y-66968571D01*
X43902380Y-66873333D01*
X43950000Y-66730476D01*
X43997619Y-66682857D01*
X43902380Y-66349523D02*
X43902380Y-65730476D01*
X44283333Y-66063809D01*
X44283333Y-65920952D01*
X44330952Y-65825714D01*
X44378571Y-65778095D01*
X44473809Y-65730476D01*
X44711904Y-65730476D01*
X44807142Y-65778095D01*
X44854761Y-65825714D01*
X44902380Y-65920952D01*
X44902380Y-66206666D01*
X44854761Y-66301904D01*
X44807142Y-66349523D01*
X43902380Y-65397142D02*
X43902380Y-64778095D01*
X44283333Y-65111428D01*
X44283333Y-64968571D01*
X44330952Y-64873333D01*
X44378571Y-64825714D01*
X44473809Y-64778095D01*
X44711904Y-64778095D01*
X44807142Y-64825714D01*
X44854761Y-64873333D01*
X44902380Y-64968571D01*
X44902380Y-65254285D01*
X44854761Y-65349523D01*
X44807142Y-65397142D01*
X59047142Y-63857142D02*
X58999523Y-63904761D01*
X58856666Y-63952380D01*
X58761428Y-63952380D01*
X58618571Y-63904761D01*
X58523333Y-63809523D01*
X58475714Y-63714285D01*
X58428095Y-63523809D01*
X58428095Y-63380952D01*
X58475714Y-63190476D01*
X58523333Y-63095238D01*
X58618571Y-63000000D01*
X58761428Y-62952380D01*
X58856666Y-62952380D01*
X58999523Y-63000000D01*
X59047142Y-63047619D01*
X59380476Y-62952380D02*
X59999523Y-62952380D01*
X59666190Y-63333333D01*
X59809047Y-63333333D01*
X59904285Y-63380952D01*
X59951904Y-63428571D01*
X59999523Y-63523809D01*
X59999523Y-63761904D01*
X59951904Y-63857142D01*
X59904285Y-63904761D01*
X59809047Y-63952380D01*
X59523333Y-63952380D01*
X59428095Y-63904761D01*
X59380476Y-63857142D01*
X60380476Y-63047619D02*
X60428095Y-63000000D01*
X60523333Y-62952380D01*
X60761428Y-62952380D01*
X60856666Y-63000000D01*
X60904285Y-63047619D01*
X60951904Y-63142857D01*
X60951904Y-63238095D01*
X60904285Y-63380952D01*
X60332857Y-63952380D01*
X60951904Y-63952380D01*
X41057142Y-94892857D02*
X41104761Y-94940476D01*
X41152380Y-95083333D01*
X41152380Y-95178571D01*
X41104761Y-95321428D01*
X41009523Y-95416666D01*
X40914285Y-95464285D01*
X40723809Y-95511904D01*
X40580952Y-95511904D01*
X40390476Y-95464285D01*
X40295238Y-95416666D01*
X40200000Y-95321428D01*
X40152380Y-95178571D01*
X40152380Y-95083333D01*
X40200000Y-94940476D01*
X40247619Y-94892857D01*
X40152380Y-94559523D02*
X40152380Y-93940476D01*
X40533333Y-94273809D01*
X40533333Y-94130952D01*
X40580952Y-94035714D01*
X40628571Y-93988095D01*
X40723809Y-93940476D01*
X40961904Y-93940476D01*
X41057142Y-93988095D01*
X41104761Y-94035714D01*
X41152380Y-94130952D01*
X41152380Y-94416666D01*
X41104761Y-94511904D01*
X41057142Y-94559523D01*
X41152380Y-92988095D02*
X41152380Y-93559523D01*
X41152380Y-93273809D02*
X40152380Y-93273809D01*
X40295238Y-93369047D01*
X40390476Y-93464285D01*
X40438095Y-93559523D01*
X62857142Y-63857142D02*
X62809523Y-63904761D01*
X62666666Y-63952380D01*
X62571428Y-63952380D01*
X62428571Y-63904761D01*
X62333333Y-63809523D01*
X62285714Y-63714285D01*
X62238095Y-63523809D01*
X62238095Y-63380952D01*
X62285714Y-63190476D01*
X62333333Y-63095238D01*
X62428571Y-63000000D01*
X62571428Y-62952380D01*
X62666666Y-62952380D01*
X62809523Y-63000000D01*
X62857142Y-63047619D01*
X63190476Y-62952380D02*
X63809523Y-62952380D01*
X63476190Y-63333333D01*
X63619047Y-63333333D01*
X63714285Y-63380952D01*
X63761904Y-63428571D01*
X63809523Y-63523809D01*
X63809523Y-63761904D01*
X63761904Y-63857142D01*
X63714285Y-63904761D01*
X63619047Y-63952380D01*
X63333333Y-63952380D01*
X63238095Y-63904761D01*
X63190476Y-63857142D01*
X64428571Y-62952380D02*
X64523809Y-62952380D01*
X64619047Y-63000000D01*
X64666666Y-63047619D01*
X64714285Y-63142857D01*
X64761904Y-63333333D01*
X64761904Y-63571428D01*
X64714285Y-63761904D01*
X64666666Y-63857142D01*
X64619047Y-63904761D01*
X64523809Y-63952380D01*
X64428571Y-63952380D01*
X64333333Y-63904761D01*
X64285714Y-63857142D01*
X64238095Y-63761904D01*
X64190476Y-63571428D01*
X64190476Y-63333333D01*
X64238095Y-63142857D01*
X64285714Y-63047619D01*
X64333333Y-63000000D01*
X64428571Y-62952380D01*
X224147142Y-104497142D02*
X224099523Y-104544761D01*
X223956666Y-104592380D01*
X223861428Y-104592380D01*
X223718571Y-104544761D01*
X223623333Y-104449523D01*
X223575714Y-104354285D01*
X223528095Y-104163809D01*
X223528095Y-104020952D01*
X223575714Y-103830476D01*
X223623333Y-103735238D01*
X223718571Y-103640000D01*
X223861428Y-103592380D01*
X223956666Y-103592380D01*
X224099523Y-103640000D01*
X224147142Y-103687619D01*
X224528095Y-103687619D02*
X224575714Y-103640000D01*
X224670952Y-103592380D01*
X224909047Y-103592380D01*
X225004285Y-103640000D01*
X225051904Y-103687619D01*
X225099523Y-103782857D01*
X225099523Y-103878095D01*
X225051904Y-104020952D01*
X224480476Y-104592380D01*
X225099523Y-104592380D01*
X225575714Y-104592380D02*
X225766190Y-104592380D01*
X225861428Y-104544761D01*
X225909047Y-104497142D01*
X226004285Y-104354285D01*
X226051904Y-104163809D01*
X226051904Y-103782857D01*
X226004285Y-103687619D01*
X225956666Y-103640000D01*
X225861428Y-103592380D01*
X225670952Y-103592380D01*
X225575714Y-103640000D01*
X225528095Y-103687619D01*
X225480476Y-103782857D01*
X225480476Y-104020952D01*
X225528095Y-104116190D01*
X225575714Y-104163809D01*
X225670952Y-104211428D01*
X225861428Y-104211428D01*
X225956666Y-104163809D01*
X226004285Y-104116190D01*
X226051904Y-104020952D01*
X196207142Y-57507142D02*
X196159523Y-57554761D01*
X196016666Y-57602380D01*
X195921428Y-57602380D01*
X195778571Y-57554761D01*
X195683333Y-57459523D01*
X195635714Y-57364285D01*
X195588095Y-57173809D01*
X195588095Y-57030952D01*
X195635714Y-56840476D01*
X195683333Y-56745238D01*
X195778571Y-56650000D01*
X195921428Y-56602380D01*
X196016666Y-56602380D01*
X196159523Y-56650000D01*
X196207142Y-56697619D01*
X196588095Y-56697619D02*
X196635714Y-56650000D01*
X196730952Y-56602380D01*
X196969047Y-56602380D01*
X197064285Y-56650000D01*
X197111904Y-56697619D01*
X197159523Y-56792857D01*
X197159523Y-56888095D01*
X197111904Y-57030952D01*
X196540476Y-57602380D01*
X197159523Y-57602380D01*
X197730952Y-57030952D02*
X197635714Y-56983333D01*
X197588095Y-56935714D01*
X197540476Y-56840476D01*
X197540476Y-56792857D01*
X197588095Y-56697619D01*
X197635714Y-56650000D01*
X197730952Y-56602380D01*
X197921428Y-56602380D01*
X198016666Y-56650000D01*
X198064285Y-56697619D01*
X198111904Y-56792857D01*
X198111904Y-56840476D01*
X198064285Y-56935714D01*
X198016666Y-56983333D01*
X197921428Y-57030952D01*
X197730952Y-57030952D01*
X197635714Y-57078571D01*
X197588095Y-57126190D01*
X197540476Y-57221428D01*
X197540476Y-57411904D01*
X197588095Y-57507142D01*
X197635714Y-57554761D01*
X197730952Y-57602380D01*
X197921428Y-57602380D01*
X198016666Y-57554761D01*
X198064285Y-57507142D01*
X198111904Y-57411904D01*
X198111904Y-57221428D01*
X198064285Y-57126190D01*
X198016666Y-57078571D01*
X197921428Y-57030952D01*
X224147142Y-107037142D02*
X224099523Y-107084761D01*
X223956666Y-107132380D01*
X223861428Y-107132380D01*
X223718571Y-107084761D01*
X223623333Y-106989523D01*
X223575714Y-106894285D01*
X223528095Y-106703809D01*
X223528095Y-106560952D01*
X223575714Y-106370476D01*
X223623333Y-106275238D01*
X223718571Y-106180000D01*
X223861428Y-106132380D01*
X223956666Y-106132380D01*
X224099523Y-106180000D01*
X224147142Y-106227619D01*
X224528095Y-106227619D02*
X224575714Y-106180000D01*
X224670952Y-106132380D01*
X224909047Y-106132380D01*
X225004285Y-106180000D01*
X225051904Y-106227619D01*
X225099523Y-106322857D01*
X225099523Y-106418095D01*
X225051904Y-106560952D01*
X224480476Y-107132380D01*
X225099523Y-107132380D01*
X225432857Y-106132380D02*
X226099523Y-106132380D01*
X225670952Y-107132380D01*
X200017142Y-57507142D02*
X199969523Y-57554761D01*
X199826666Y-57602380D01*
X199731428Y-57602380D01*
X199588571Y-57554761D01*
X199493333Y-57459523D01*
X199445714Y-57364285D01*
X199398095Y-57173809D01*
X199398095Y-57030952D01*
X199445714Y-56840476D01*
X199493333Y-56745238D01*
X199588571Y-56650000D01*
X199731428Y-56602380D01*
X199826666Y-56602380D01*
X199969523Y-56650000D01*
X200017142Y-56697619D01*
X200398095Y-56697619D02*
X200445714Y-56650000D01*
X200540952Y-56602380D01*
X200779047Y-56602380D01*
X200874285Y-56650000D01*
X200921904Y-56697619D01*
X200969523Y-56792857D01*
X200969523Y-56888095D01*
X200921904Y-57030952D01*
X200350476Y-57602380D01*
X200969523Y-57602380D01*
X201826666Y-56602380D02*
X201636190Y-56602380D01*
X201540952Y-56650000D01*
X201493333Y-56697619D01*
X201398095Y-56840476D01*
X201350476Y-57030952D01*
X201350476Y-57411904D01*
X201398095Y-57507142D01*
X201445714Y-57554761D01*
X201540952Y-57602380D01*
X201731428Y-57602380D01*
X201826666Y-57554761D01*
X201874285Y-57507142D01*
X201921904Y-57411904D01*
X201921904Y-57173809D01*
X201874285Y-57078571D01*
X201826666Y-57030952D01*
X201731428Y-56983333D01*
X201540952Y-56983333D01*
X201445714Y-57030952D01*
X201398095Y-57078571D01*
X201350476Y-57173809D01*
X203817142Y-54062857D02*
X203864761Y-54110476D01*
X203912380Y-54253333D01*
X203912380Y-54348571D01*
X203864761Y-54491428D01*
X203769523Y-54586666D01*
X203674285Y-54634285D01*
X203483809Y-54681904D01*
X203340952Y-54681904D01*
X203150476Y-54634285D01*
X203055238Y-54586666D01*
X202960000Y-54491428D01*
X202912380Y-54348571D01*
X202912380Y-54253333D01*
X202960000Y-54110476D01*
X203007619Y-54062857D01*
X203007619Y-53681904D02*
X202960000Y-53634285D01*
X202912380Y-53539047D01*
X202912380Y-53300952D01*
X202960000Y-53205714D01*
X203007619Y-53158095D01*
X203102857Y-53110476D01*
X203198095Y-53110476D01*
X203340952Y-53158095D01*
X203912380Y-53729523D01*
X203912380Y-53110476D01*
X202912380Y-52205714D02*
X202912380Y-52681904D01*
X203388571Y-52729523D01*
X203340952Y-52681904D01*
X203293333Y-52586666D01*
X203293333Y-52348571D01*
X203340952Y-52253333D01*
X203388571Y-52205714D01*
X203483809Y-52158095D01*
X203721904Y-52158095D01*
X203817142Y-52205714D01*
X203864761Y-52253333D01*
X203912380Y-52348571D01*
X203912380Y-52586666D01*
X203864761Y-52681904D01*
X203817142Y-52729523D01*
X159827142Y-76842857D02*
X159874761Y-76890476D01*
X159922380Y-77033333D01*
X159922380Y-77128571D01*
X159874761Y-77271428D01*
X159779523Y-77366666D01*
X159684285Y-77414285D01*
X159493809Y-77461904D01*
X159350952Y-77461904D01*
X159160476Y-77414285D01*
X159065238Y-77366666D01*
X158970000Y-77271428D01*
X158922380Y-77128571D01*
X158922380Y-77033333D01*
X158970000Y-76890476D01*
X159017619Y-76842857D01*
X159017619Y-76461904D02*
X158970000Y-76414285D01*
X158922380Y-76319047D01*
X158922380Y-76080952D01*
X158970000Y-75985714D01*
X159017619Y-75938095D01*
X159112857Y-75890476D01*
X159208095Y-75890476D01*
X159350952Y-75938095D01*
X159922380Y-76509523D01*
X159922380Y-75890476D01*
X159255714Y-75033333D02*
X159922380Y-75033333D01*
X158874761Y-75271428D02*
X159589047Y-75509523D01*
X159589047Y-74890476D01*
X114107142Y-76842857D02*
X114154761Y-76890476D01*
X114202380Y-77033333D01*
X114202380Y-77128571D01*
X114154761Y-77271428D01*
X114059523Y-77366666D01*
X113964285Y-77414285D01*
X113773809Y-77461904D01*
X113630952Y-77461904D01*
X113440476Y-77414285D01*
X113345238Y-77366666D01*
X113250000Y-77271428D01*
X113202380Y-77128571D01*
X113202380Y-77033333D01*
X113250000Y-76890476D01*
X113297619Y-76842857D01*
X113297619Y-76461904D02*
X113250000Y-76414285D01*
X113202380Y-76319047D01*
X113202380Y-76080952D01*
X113250000Y-75985714D01*
X113297619Y-75938095D01*
X113392857Y-75890476D01*
X113488095Y-75890476D01*
X113630952Y-75938095D01*
X114202380Y-76509523D01*
X114202380Y-75890476D01*
X113202380Y-75557142D02*
X113202380Y-74938095D01*
X113583333Y-75271428D01*
X113583333Y-75128571D01*
X113630952Y-75033333D01*
X113678571Y-74985714D01*
X113773809Y-74938095D01*
X114011904Y-74938095D01*
X114107142Y-74985714D01*
X114154761Y-75033333D01*
X114202380Y-75128571D01*
X114202380Y-75414285D01*
X114154761Y-75509523D01*
X114107142Y-75557142D01*
X224147142Y-91797142D02*
X224099523Y-91844761D01*
X223956666Y-91892380D01*
X223861428Y-91892380D01*
X223718571Y-91844761D01*
X223623333Y-91749523D01*
X223575714Y-91654285D01*
X223528095Y-91463809D01*
X223528095Y-91320952D01*
X223575714Y-91130476D01*
X223623333Y-91035238D01*
X223718571Y-90940000D01*
X223861428Y-90892380D01*
X223956666Y-90892380D01*
X224099523Y-90940000D01*
X224147142Y-90987619D01*
X224528095Y-90987619D02*
X224575714Y-90940000D01*
X224670952Y-90892380D01*
X224909047Y-90892380D01*
X225004285Y-90940000D01*
X225051904Y-90987619D01*
X225099523Y-91082857D01*
X225099523Y-91178095D01*
X225051904Y-91320952D01*
X224480476Y-91892380D01*
X225099523Y-91892380D01*
X225480476Y-90987619D02*
X225528095Y-90940000D01*
X225623333Y-90892380D01*
X225861428Y-90892380D01*
X225956666Y-90940000D01*
X226004285Y-90987619D01*
X226051904Y-91082857D01*
X226051904Y-91178095D01*
X226004285Y-91320952D01*
X225432857Y-91892380D01*
X226051904Y-91892380D01*
X57777142Y-43537142D02*
X57729523Y-43584761D01*
X57586666Y-43632380D01*
X57491428Y-43632380D01*
X57348571Y-43584761D01*
X57253333Y-43489523D01*
X57205714Y-43394285D01*
X57158095Y-43203809D01*
X57158095Y-43060952D01*
X57205714Y-42870476D01*
X57253333Y-42775238D01*
X57348571Y-42680000D01*
X57491428Y-42632380D01*
X57586666Y-42632380D01*
X57729523Y-42680000D01*
X57777142Y-42727619D01*
X58158095Y-42727619D02*
X58205714Y-42680000D01*
X58300952Y-42632380D01*
X58539047Y-42632380D01*
X58634285Y-42680000D01*
X58681904Y-42727619D01*
X58729523Y-42822857D01*
X58729523Y-42918095D01*
X58681904Y-43060952D01*
X58110476Y-43632380D01*
X58729523Y-43632380D01*
X59681904Y-43632380D02*
X59110476Y-43632380D01*
X59396190Y-43632380D02*
X59396190Y-42632380D01*
X59300952Y-42775238D01*
X59205714Y-42870476D01*
X59110476Y-42918095D01*
X157837142Y-38742857D02*
X157884761Y-38790476D01*
X157932380Y-38933333D01*
X157932380Y-39028571D01*
X157884761Y-39171428D01*
X157789523Y-39266666D01*
X157694285Y-39314285D01*
X157503809Y-39361904D01*
X157360952Y-39361904D01*
X157170476Y-39314285D01*
X157075238Y-39266666D01*
X156980000Y-39171428D01*
X156932380Y-39028571D01*
X156932380Y-38933333D01*
X156980000Y-38790476D01*
X157027619Y-38742857D01*
X157027619Y-38361904D02*
X156980000Y-38314285D01*
X156932380Y-38219047D01*
X156932380Y-37980952D01*
X156980000Y-37885714D01*
X157027619Y-37838095D01*
X157122857Y-37790476D01*
X157218095Y-37790476D01*
X157360952Y-37838095D01*
X157932380Y-38409523D01*
X157932380Y-37790476D01*
X156932380Y-37171428D02*
X156932380Y-37076190D01*
X156980000Y-36980952D01*
X157027619Y-36933333D01*
X157122857Y-36885714D01*
X157313333Y-36838095D01*
X157551428Y-36838095D01*
X157741904Y-36885714D01*
X157837142Y-36933333D01*
X157884761Y-36980952D01*
X157932380Y-37076190D01*
X157932380Y-37171428D01*
X157884761Y-37266666D01*
X157837142Y-37314285D01*
X157741904Y-37361904D01*
X157551428Y-37409523D01*
X157313333Y-37409523D01*
X157122857Y-37361904D01*
X157027619Y-37314285D01*
X156980000Y-37266666D01*
X156932380Y-37171428D01*
X110297142Y-40012857D02*
X110344761Y-40060476D01*
X110392380Y-40203333D01*
X110392380Y-40298571D01*
X110344761Y-40441428D01*
X110249523Y-40536666D01*
X110154285Y-40584285D01*
X109963809Y-40631904D01*
X109820952Y-40631904D01*
X109630476Y-40584285D01*
X109535238Y-40536666D01*
X109440000Y-40441428D01*
X109392380Y-40298571D01*
X109392380Y-40203333D01*
X109440000Y-40060476D01*
X109487619Y-40012857D01*
X110392380Y-39060476D02*
X110392380Y-39631904D01*
X110392380Y-39346190D02*
X109392380Y-39346190D01*
X109535238Y-39441428D01*
X109630476Y-39536666D01*
X109678095Y-39631904D01*
X110392380Y-38584285D02*
X110392380Y-38393809D01*
X110344761Y-38298571D01*
X110297142Y-38250952D01*
X110154285Y-38155714D01*
X109963809Y-38108095D01*
X109582857Y-38108095D01*
X109487619Y-38155714D01*
X109440000Y-38203333D01*
X109392380Y-38298571D01*
X109392380Y-38489047D01*
X109440000Y-38584285D01*
X109487619Y-38631904D01*
X109582857Y-38679523D01*
X109820952Y-38679523D01*
X109916190Y-38631904D01*
X109963809Y-38584285D01*
X110011428Y-38489047D01*
X110011428Y-38298571D01*
X109963809Y-38203333D01*
X109916190Y-38155714D01*
X109820952Y-38108095D01*
X57777142Y-46077142D02*
X57729523Y-46124761D01*
X57586666Y-46172380D01*
X57491428Y-46172380D01*
X57348571Y-46124761D01*
X57253333Y-46029523D01*
X57205714Y-45934285D01*
X57158095Y-45743809D01*
X57158095Y-45600952D01*
X57205714Y-45410476D01*
X57253333Y-45315238D01*
X57348571Y-45220000D01*
X57491428Y-45172380D01*
X57586666Y-45172380D01*
X57729523Y-45220000D01*
X57777142Y-45267619D01*
X58729523Y-46172380D02*
X58158095Y-46172380D01*
X58443809Y-46172380D02*
X58443809Y-45172380D01*
X58348571Y-45315238D01*
X58253333Y-45410476D01*
X58158095Y-45458095D01*
X59300952Y-45600952D02*
X59205714Y-45553333D01*
X59158095Y-45505714D01*
X59110476Y-45410476D01*
X59110476Y-45362857D01*
X59158095Y-45267619D01*
X59205714Y-45220000D01*
X59300952Y-45172380D01*
X59491428Y-45172380D01*
X59586666Y-45220000D01*
X59634285Y-45267619D01*
X59681904Y-45362857D01*
X59681904Y-45410476D01*
X59634285Y-45505714D01*
X59586666Y-45553333D01*
X59491428Y-45600952D01*
X59300952Y-45600952D01*
X59205714Y-45648571D01*
X59158095Y-45696190D01*
X59110476Y-45791428D01*
X59110476Y-45981904D01*
X59158095Y-46077142D01*
X59205714Y-46124761D01*
X59300952Y-46172380D01*
X59491428Y-46172380D01*
X59586666Y-46124761D01*
X59634285Y-46077142D01*
X59681904Y-45981904D01*
X59681904Y-45791428D01*
X59634285Y-45696190D01*
X59586666Y-45648571D01*
X59491428Y-45600952D01*
X161097142Y-45092857D02*
X161144761Y-45140476D01*
X161192380Y-45283333D01*
X161192380Y-45378571D01*
X161144761Y-45521428D01*
X161049523Y-45616666D01*
X160954285Y-45664285D01*
X160763809Y-45711904D01*
X160620952Y-45711904D01*
X160430476Y-45664285D01*
X160335238Y-45616666D01*
X160240000Y-45521428D01*
X160192380Y-45378571D01*
X160192380Y-45283333D01*
X160240000Y-45140476D01*
X160287619Y-45092857D01*
X161192380Y-44140476D02*
X161192380Y-44711904D01*
X161192380Y-44426190D02*
X160192380Y-44426190D01*
X160335238Y-44521428D01*
X160430476Y-44616666D01*
X160478095Y-44711904D01*
X160192380Y-43807142D02*
X160192380Y-43140476D01*
X161192380Y-43569047D01*
X110297142Y-47632857D02*
X110344761Y-47680476D01*
X110392380Y-47823333D01*
X110392380Y-47918571D01*
X110344761Y-48061428D01*
X110249523Y-48156666D01*
X110154285Y-48204285D01*
X109963809Y-48251904D01*
X109820952Y-48251904D01*
X109630476Y-48204285D01*
X109535238Y-48156666D01*
X109440000Y-48061428D01*
X109392380Y-47918571D01*
X109392380Y-47823333D01*
X109440000Y-47680476D01*
X109487619Y-47632857D01*
X110392380Y-46680476D02*
X110392380Y-47251904D01*
X110392380Y-46966190D02*
X109392380Y-46966190D01*
X109535238Y-47061428D01*
X109630476Y-47156666D01*
X109678095Y-47251904D01*
X109392380Y-45823333D02*
X109392380Y-46013809D01*
X109440000Y-46109047D01*
X109487619Y-46156666D01*
X109630476Y-46251904D01*
X109820952Y-46299523D01*
X110201904Y-46299523D01*
X110297142Y-46251904D01*
X110344761Y-46204285D01*
X110392380Y-46109047D01*
X110392380Y-45918571D01*
X110344761Y-45823333D01*
X110297142Y-45775714D01*
X110201904Y-45728095D01*
X109963809Y-45728095D01*
X109868571Y-45775714D01*
X109820952Y-45823333D01*
X109773333Y-45918571D01*
X109773333Y-46109047D01*
X109820952Y-46204285D01*
X109868571Y-46251904D01*
X109963809Y-46299523D01*
X166997142Y-48617142D02*
X166949523Y-48664761D01*
X166806666Y-48712380D01*
X166711428Y-48712380D01*
X166568571Y-48664761D01*
X166473333Y-48569523D01*
X166425714Y-48474285D01*
X166378095Y-48283809D01*
X166378095Y-48140952D01*
X166425714Y-47950476D01*
X166473333Y-47855238D01*
X166568571Y-47760000D01*
X166711428Y-47712380D01*
X166806666Y-47712380D01*
X166949523Y-47760000D01*
X166997142Y-47807619D01*
X167949523Y-48712380D02*
X167378095Y-48712380D01*
X167663809Y-48712380D02*
X167663809Y-47712380D01*
X167568571Y-47855238D01*
X167473333Y-47950476D01*
X167378095Y-47998095D01*
X168854285Y-47712380D02*
X168378095Y-47712380D01*
X168330476Y-48188571D01*
X168378095Y-48140952D01*
X168473333Y-48093333D01*
X168711428Y-48093333D01*
X168806666Y-48140952D01*
X168854285Y-48188571D01*
X168901904Y-48283809D01*
X168901904Y-48521904D01*
X168854285Y-48617142D01*
X168806666Y-48664761D01*
X168711428Y-48712380D01*
X168473333Y-48712380D01*
X168378095Y-48664761D01*
X168330476Y-48617142D01*
X116197142Y-49887142D02*
X116149523Y-49934761D01*
X116006666Y-49982380D01*
X115911428Y-49982380D01*
X115768571Y-49934761D01*
X115673333Y-49839523D01*
X115625714Y-49744285D01*
X115578095Y-49553809D01*
X115578095Y-49410952D01*
X115625714Y-49220476D01*
X115673333Y-49125238D01*
X115768571Y-49030000D01*
X115911428Y-48982380D01*
X116006666Y-48982380D01*
X116149523Y-49030000D01*
X116197142Y-49077619D01*
X117149523Y-49982380D02*
X116578095Y-49982380D01*
X116863809Y-49982380D02*
X116863809Y-48982380D01*
X116768571Y-49125238D01*
X116673333Y-49220476D01*
X116578095Y-49268095D01*
X118006666Y-49315714D02*
X118006666Y-49982380D01*
X117768571Y-48934761D02*
X117530476Y-49649047D01*
X118149523Y-49649047D01*
X180967142Y-48617142D02*
X180919523Y-48664761D01*
X180776666Y-48712380D01*
X180681428Y-48712380D01*
X180538571Y-48664761D01*
X180443333Y-48569523D01*
X180395714Y-48474285D01*
X180348095Y-48283809D01*
X180348095Y-48140952D01*
X180395714Y-47950476D01*
X180443333Y-47855238D01*
X180538571Y-47760000D01*
X180681428Y-47712380D01*
X180776666Y-47712380D01*
X180919523Y-47760000D01*
X180967142Y-47807619D01*
X181919523Y-48712380D02*
X181348095Y-48712380D01*
X181633809Y-48712380D02*
X181633809Y-47712380D01*
X181538571Y-47855238D01*
X181443333Y-47950476D01*
X181348095Y-47998095D01*
X182252857Y-47712380D02*
X182871904Y-47712380D01*
X182538571Y-48093333D01*
X182681428Y-48093333D01*
X182776666Y-48140952D01*
X182824285Y-48188571D01*
X182871904Y-48283809D01*
X182871904Y-48521904D01*
X182824285Y-48617142D01*
X182776666Y-48664761D01*
X182681428Y-48712380D01*
X182395714Y-48712380D01*
X182300476Y-48664761D01*
X182252857Y-48617142D01*
X131437142Y-49887142D02*
X131389523Y-49934761D01*
X131246666Y-49982380D01*
X131151428Y-49982380D01*
X131008571Y-49934761D01*
X130913333Y-49839523D01*
X130865714Y-49744285D01*
X130818095Y-49553809D01*
X130818095Y-49410952D01*
X130865714Y-49220476D01*
X130913333Y-49125238D01*
X131008571Y-49030000D01*
X131151428Y-48982380D01*
X131246666Y-48982380D01*
X131389523Y-49030000D01*
X131437142Y-49077619D01*
X132389523Y-49982380D02*
X131818095Y-49982380D01*
X132103809Y-49982380D02*
X132103809Y-48982380D01*
X132008571Y-49125238D01*
X131913333Y-49220476D01*
X131818095Y-49268095D01*
X132770476Y-49077619D02*
X132818095Y-49030000D01*
X132913333Y-48982380D01*
X133151428Y-48982380D01*
X133246666Y-49030000D01*
X133294285Y-49077619D01*
X133341904Y-49172857D01*
X133341904Y-49268095D01*
X133294285Y-49410952D01*
X132722857Y-49982380D01*
X133341904Y-49982380D01*
X65397142Y-43537142D02*
X65349523Y-43584761D01*
X65206666Y-43632380D01*
X65111428Y-43632380D01*
X64968571Y-43584761D01*
X64873333Y-43489523D01*
X64825714Y-43394285D01*
X64778095Y-43203809D01*
X64778095Y-43060952D01*
X64825714Y-42870476D01*
X64873333Y-42775238D01*
X64968571Y-42680000D01*
X65111428Y-42632380D01*
X65206666Y-42632380D01*
X65349523Y-42680000D01*
X65397142Y-42727619D01*
X66349523Y-43632380D02*
X65778095Y-43632380D01*
X66063809Y-43632380D02*
X66063809Y-42632380D01*
X65968571Y-42775238D01*
X65873333Y-42870476D01*
X65778095Y-42918095D01*
X67301904Y-43632380D02*
X66730476Y-43632380D01*
X67016190Y-43632380D02*
X67016190Y-42632380D01*
X66920952Y-42775238D01*
X66825714Y-42870476D01*
X66730476Y-42918095D01*
X65397142Y-40997142D02*
X65349523Y-41044761D01*
X65206666Y-41092380D01*
X65111428Y-41092380D01*
X64968571Y-41044761D01*
X64873333Y-40949523D01*
X64825714Y-40854285D01*
X64778095Y-40663809D01*
X64778095Y-40520952D01*
X64825714Y-40330476D01*
X64873333Y-40235238D01*
X64968571Y-40140000D01*
X65111428Y-40092380D01*
X65206666Y-40092380D01*
X65349523Y-40140000D01*
X65397142Y-40187619D01*
X66349523Y-41092380D02*
X65778095Y-41092380D01*
X66063809Y-41092380D02*
X66063809Y-40092380D01*
X65968571Y-40235238D01*
X65873333Y-40330476D01*
X65778095Y-40378095D01*
X66968571Y-40092380D02*
X67063809Y-40092380D01*
X67159047Y-40140000D01*
X67206666Y-40187619D01*
X67254285Y-40282857D01*
X67301904Y-40473333D01*
X67301904Y-40711428D01*
X67254285Y-40901904D01*
X67206666Y-40997142D01*
X67159047Y-41044761D01*
X67063809Y-41092380D01*
X66968571Y-41092380D01*
X66873333Y-41044761D01*
X66825714Y-40997142D01*
X66778095Y-40901904D01*
X66730476Y-40711428D01*
X66730476Y-40473333D01*
X66778095Y-40282857D01*
X66825714Y-40187619D01*
X66873333Y-40140000D01*
X66968571Y-40092380D01*
X65873333Y-38457142D02*
X65825714Y-38504761D01*
X65682857Y-38552380D01*
X65587619Y-38552380D01*
X65444761Y-38504761D01*
X65349523Y-38409523D01*
X65301904Y-38314285D01*
X65254285Y-38123809D01*
X65254285Y-37980952D01*
X65301904Y-37790476D01*
X65349523Y-37695238D01*
X65444761Y-37600000D01*
X65587619Y-37552380D01*
X65682857Y-37552380D01*
X65825714Y-37600000D01*
X65873333Y-37647619D01*
X66349523Y-38552380D02*
X66540000Y-38552380D01*
X66635238Y-38504761D01*
X66682857Y-38457142D01*
X66778095Y-38314285D01*
X66825714Y-38123809D01*
X66825714Y-37742857D01*
X66778095Y-37647619D01*
X66730476Y-37600000D01*
X66635238Y-37552380D01*
X66444761Y-37552380D01*
X66349523Y-37600000D01*
X66301904Y-37647619D01*
X66254285Y-37742857D01*
X66254285Y-37980952D01*
X66301904Y-38076190D01*
X66349523Y-38123809D01*
X66444761Y-38171428D01*
X66635238Y-38171428D01*
X66730476Y-38123809D01*
X66778095Y-38076190D01*
X66825714Y-37980952D01*
X61317142Y-31916666D02*
X61364761Y-31964285D01*
X61412380Y-32107142D01*
X61412380Y-32202380D01*
X61364761Y-32345238D01*
X61269523Y-32440476D01*
X61174285Y-32488095D01*
X60983809Y-32535714D01*
X60840952Y-32535714D01*
X60650476Y-32488095D01*
X60555238Y-32440476D01*
X60460000Y-32345238D01*
X60412380Y-32202380D01*
X60412380Y-32107142D01*
X60460000Y-31964285D01*
X60507619Y-31916666D01*
X60840952Y-31345238D02*
X60793333Y-31440476D01*
X60745714Y-31488095D01*
X60650476Y-31535714D01*
X60602857Y-31535714D01*
X60507619Y-31488095D01*
X60460000Y-31440476D01*
X60412380Y-31345238D01*
X60412380Y-31154761D01*
X60460000Y-31059523D01*
X60507619Y-31011904D01*
X60602857Y-30964285D01*
X60650476Y-30964285D01*
X60745714Y-31011904D01*
X60793333Y-31059523D01*
X60840952Y-31154761D01*
X60840952Y-31345238D01*
X60888571Y-31440476D01*
X60936190Y-31488095D01*
X61031428Y-31535714D01*
X61221904Y-31535714D01*
X61317142Y-31488095D01*
X61364761Y-31440476D01*
X61412380Y-31345238D01*
X61412380Y-31154761D01*
X61364761Y-31059523D01*
X61317142Y-31011904D01*
X61221904Y-30964285D01*
X61031428Y-30964285D01*
X60936190Y-31011904D01*
X60888571Y-31059523D01*
X60840952Y-31154761D01*
X65873333Y-35917142D02*
X65825714Y-35964761D01*
X65682857Y-36012380D01*
X65587619Y-36012380D01*
X65444761Y-35964761D01*
X65349523Y-35869523D01*
X65301904Y-35774285D01*
X65254285Y-35583809D01*
X65254285Y-35440952D01*
X65301904Y-35250476D01*
X65349523Y-35155238D01*
X65444761Y-35060000D01*
X65587619Y-35012380D01*
X65682857Y-35012380D01*
X65825714Y-35060000D01*
X65873333Y-35107619D01*
X66206666Y-35012380D02*
X66873333Y-35012380D01*
X66444761Y-36012380D01*
X66003333Y-46077142D02*
X65955714Y-46124761D01*
X65812857Y-46172380D01*
X65717619Y-46172380D01*
X65574761Y-46124761D01*
X65479523Y-46029523D01*
X65431904Y-45934285D01*
X65384285Y-45743809D01*
X65384285Y-45600952D01*
X65431904Y-45410476D01*
X65479523Y-45315238D01*
X65574761Y-45220000D01*
X65717619Y-45172380D01*
X65812857Y-45172380D01*
X65955714Y-45220000D01*
X66003333Y-45267619D01*
X66860476Y-45172380D02*
X66670000Y-45172380D01*
X66574761Y-45220000D01*
X66527142Y-45267619D01*
X66431904Y-45410476D01*
X66384285Y-45600952D01*
X66384285Y-45981904D01*
X66431904Y-46077142D01*
X66479523Y-46124761D01*
X66574761Y-46172380D01*
X66765238Y-46172380D01*
X66860476Y-46124761D01*
X66908095Y-46077142D01*
X66955714Y-45981904D01*
X66955714Y-45743809D01*
X66908095Y-45648571D01*
X66860476Y-45600952D01*
X66765238Y-45553333D01*
X66574761Y-45553333D01*
X66479523Y-45600952D01*
X66431904Y-45648571D01*
X66384285Y-45743809D01*
X100467142Y-40726666D02*
X100514761Y-40774285D01*
X100562380Y-40917142D01*
X100562380Y-41012380D01*
X100514761Y-41155238D01*
X100419523Y-41250476D01*
X100324285Y-41298095D01*
X100133809Y-41345714D01*
X99990952Y-41345714D01*
X99800476Y-41298095D01*
X99705238Y-41250476D01*
X99610000Y-41155238D01*
X99562380Y-41012380D01*
X99562380Y-40917142D01*
X99610000Y-40774285D01*
X99657619Y-40726666D01*
X99562380Y-39821904D02*
X99562380Y-40298095D01*
X100038571Y-40345714D01*
X99990952Y-40298095D01*
X99943333Y-40202857D01*
X99943333Y-39964761D01*
X99990952Y-39869523D01*
X100038571Y-39821904D01*
X100133809Y-39774285D01*
X100371904Y-39774285D01*
X100467142Y-39821904D01*
X100514761Y-39869523D01*
X100562380Y-39964761D01*
X100562380Y-40202857D01*
X100514761Y-40298095D01*
X100467142Y-40345714D01*
X100467142Y-73746666D02*
X100514761Y-73794285D01*
X100562380Y-73937142D01*
X100562380Y-74032380D01*
X100514761Y-74175238D01*
X100419523Y-74270476D01*
X100324285Y-74318095D01*
X100133809Y-74365714D01*
X99990952Y-74365714D01*
X99800476Y-74318095D01*
X99705238Y-74270476D01*
X99610000Y-74175238D01*
X99562380Y-74032380D01*
X99562380Y-73937142D01*
X99610000Y-73794285D01*
X99657619Y-73746666D01*
X99895714Y-72889523D02*
X100562380Y-72889523D01*
X99514761Y-73127619D02*
X100229047Y-73365714D01*
X100229047Y-72746666D01*
X36637142Y-118276666D02*
X36684761Y-118324285D01*
X36732380Y-118467142D01*
X36732380Y-118562380D01*
X36684761Y-118705238D01*
X36589523Y-118800476D01*
X36494285Y-118848095D01*
X36303809Y-118895714D01*
X36160952Y-118895714D01*
X35970476Y-118848095D01*
X35875238Y-118800476D01*
X35780000Y-118705238D01*
X35732380Y-118562380D01*
X35732380Y-118467142D01*
X35780000Y-118324285D01*
X35827619Y-118276666D01*
X35732380Y-117943333D02*
X35732380Y-117324285D01*
X36113333Y-117657619D01*
X36113333Y-117514761D01*
X36160952Y-117419523D01*
X36208571Y-117371904D01*
X36303809Y-117324285D01*
X36541904Y-117324285D01*
X36637142Y-117371904D01*
X36684761Y-117419523D01*
X36732380Y-117514761D01*
X36732380Y-117800476D01*
X36684761Y-117895714D01*
X36637142Y-117943333D01*
X50633333Y-93067142D02*
X50585714Y-93114761D01*
X50442857Y-93162380D01*
X50347619Y-93162380D01*
X50204761Y-93114761D01*
X50109523Y-93019523D01*
X50061904Y-92924285D01*
X50014285Y-92733809D01*
X50014285Y-92590952D01*
X50061904Y-92400476D01*
X50109523Y-92305238D01*
X50204761Y-92210000D01*
X50347619Y-92162380D01*
X50442857Y-92162380D01*
X50585714Y-92210000D01*
X50633333Y-92257619D01*
X51014285Y-92257619D02*
X51061904Y-92210000D01*
X51157142Y-92162380D01*
X51395238Y-92162380D01*
X51490476Y-92210000D01*
X51538095Y-92257619D01*
X51585714Y-92352857D01*
X51585714Y-92448095D01*
X51538095Y-92590952D01*
X50966666Y-93162380D01*
X51585714Y-93162380D01*
X60793333Y-84177142D02*
X60745714Y-84224761D01*
X60602857Y-84272380D01*
X60507619Y-84272380D01*
X60364761Y-84224761D01*
X60269523Y-84129523D01*
X60221904Y-84034285D01*
X60174285Y-83843809D01*
X60174285Y-83700952D01*
X60221904Y-83510476D01*
X60269523Y-83415238D01*
X60364761Y-83320000D01*
X60507619Y-83272380D01*
X60602857Y-83272380D01*
X60745714Y-83320000D01*
X60793333Y-83367619D01*
X61745714Y-84272380D02*
X61174285Y-84272380D01*
X61460000Y-84272380D02*
X61460000Y-83272380D01*
X61364761Y-83415238D01*
X61269523Y-83510476D01*
X61174285Y-83558095D01*
M02*
