M48
; DRILL file {KiCad 5.1.5-1.fc30} date Sun 01 Nov 2020 08:22:08 PM CST
; FORMAT={-:-/ absolute / metric / decimal}
; #@! TF.CreationDate,2020-11-01T20:22:08-06:00
; #@! TF.GenerationSoftware,Kicad,Pcbnew,5.1.5-1.fc30
; #@! TF.FileFunction,Plated,1,2,PTH
FMAT,2
METRIC
T1C0.400
T2C0.800
T3C1.000
T4C1.400
T5C2.000
%
G90
G05
T1
X34.29Y-118.11
X34.29Y-120.65
X34.29Y-135.89
X35.56Y-121.92
X38.1Y-121.92
X41.91Y-55.88
X41.91Y-66.04
X41.91Y-71.12
X44.45Y-40.64
X45.72Y-107.95
X46.99Y-46.99
X46.99Y-91.44
X46.99Y-121.92
X49.53Y-135.89
X51.75Y-137.48
X54.61Y-121.92
X55.88Y-58.42
X59.69Y-134.75
X60.96Y-90.17
X60.96Y-119.38
X64.64Y-36.96
X100.33Y-44.45
X114.3Y-44.45
X115.57Y-46.99
X115.57Y-72.39
X120.715Y-44.385
X123.19Y-33.02
X124.1Y-28.3
X128.27Y-30.48
X129.54Y-30.48
X129.67Y-46.86
X134.62Y-43.18
X134.62Y-80.01
X138.43Y-80.01
X144.78Y-104.14
X144.78Y-115.57
X147.32Y-102.87
X149.86Y-43.18
X151.13Y-104.14
X153.67Y-104.14
X157.48Y-156.21
X158.88Y-43.05
X161.29Y-72.39
X166.24Y-45.85
X166.37Y-148.59
X166.37Y-156.21
X168.91Y-67.31
X170.18Y-148.59
X171.45Y-28.3
X172.72Y-31.75
X172.72Y-71.12
X175.26Y-130.81
X176.53Y-30.48
X179.07Y-30.48
X179.2Y-45.59
X180.34Y-160.02
X190.5Y-115.57
X193.04Y-27.94
X193.04Y-29.21
X193.04Y-30.48
X193.04Y-31.75
X193.04Y-33.02
X210.82Y-100.33
X218.44Y-147.32
X219.58Y-89.03
X224.79Y-115.57
X226.06Y-97.79
X237.49Y-41.91
X238.76Y-40.64
X240.03Y-41.91
T2
X44.45Y-102.91
X44.45Y-105.41
X44.45Y-93.25
X44.45Y-95.25
T3
X36.83Y-50.8
X36.83Y-53.34
X36.83Y-55.88
X36.83Y-58.42
X36.83Y-60.96
X36.83Y-63.5
X238.76Y-30.48
X238.76Y-33.02
X238.76Y-143.51
X238.76Y-146.05
X238.76Y-148.59
X156.21Y-107.95
X156.21Y-110.49
X156.21Y-151.13
X156.21Y-153.67
X158.75Y-107.95
X158.75Y-110.49
X158.75Y-151.13
X158.75Y-153.67
X161.29Y-107.95
X161.29Y-110.49
X161.29Y-151.13
X161.29Y-153.67
X163.83Y-107.95
X163.83Y-110.49
X163.83Y-151.13
X163.83Y-153.67
X166.37Y-107.95
X166.37Y-110.49
X166.37Y-151.13
X166.37Y-153.67
X168.91Y-107.95
X168.91Y-110.49
X168.91Y-151.13
X168.91Y-153.67
X171.45Y-107.95
X171.45Y-110.49
X171.45Y-151.13
X171.45Y-153.67
X173.99Y-107.95
X173.99Y-110.49
X173.99Y-151.13
X173.99Y-153.67
X176.53Y-107.95
X176.53Y-110.49
X176.53Y-151.13
X176.53Y-153.67
X179.07Y-107.95
X179.07Y-110.49
X179.07Y-151.13
X179.07Y-153.67
X196.85Y-105.41
X196.85Y-107.95
X196.85Y-110.49
X196.85Y-113.03
X196.85Y-115.57
X196.85Y-118.11
X196.85Y-120.65
X196.85Y-123.19
X196.85Y-125.73
X196.85Y-128.27
X196.85Y-130.81
X196.85Y-133.35
X196.85Y-135.89
X196.85Y-138.43
X196.85Y-140.97
X196.85Y-143.51
X196.85Y-146.05
X196.85Y-148.59
X196.85Y-151.13
X196.85Y-153.67
X199.39Y-105.41
X199.39Y-107.95
X199.39Y-110.49
X199.39Y-113.03
X199.39Y-115.57
X199.39Y-118.11
X199.39Y-120.65
X199.39Y-123.19
X199.39Y-125.73
X199.39Y-128.27
X199.39Y-130.81
X199.39Y-133.35
X199.39Y-135.89
X199.39Y-138.43
X199.39Y-140.97
X199.39Y-143.51
X199.39Y-146.05
X199.39Y-148.59
X199.39Y-151.13
X199.39Y-153.67
X238.76Y-121.92
X238.76Y-124.46
X238.76Y-127.0
X238.76Y-129.54
X238.76Y-132.08
X238.76Y-134.62
X213.36Y-157.48
X215.9Y-157.48
X218.44Y-157.48
X220.98Y-157.48
X223.52Y-157.48
X226.06Y-157.48
T4
X182.88Y-33.02
X53.34Y-106.68
X116.84Y-34.29
X63.5Y-97.79
X66.04Y-78.74
X134.62Y-34.29
X165.1Y-33.02
T5
X219.71Y-48.42
X219.71Y-58.42
X86.36Y-68.58
X86.36Y-78.58
X86.36Y-35.56
X86.36Y-45.56
T0
M30
